<?xml version="1.0" encoding="UTF-8"?>
<svg xmlns="http://www.w3.org/2000/svg" viewBox="0 0 1080 1080">
  <defs>
    <style>
      .cls-1, .cls-2, .cls-3 {
        mix-blend-mode: multiply;
      }

      .cls-1, .cls-3 {
        opacity: .4;
      }

      .cls-2 {
        opacity: .13;
      }

      .cls-2, .cls-4, .cls-5, .cls-6, .cls-7, .cls-8, .cls-9, .cls-10, .cls-11, .cls-12, .cls-13, .cls-14, .cls-15, .cls-3 {
        stroke-width: 0px;
      }

      .cls-2, .cls-14 {
        fill: #1d2b2d;
      }

      .cls-4 {
        fill: #364d51;
      }

      .cls-5 {
        fill: #f1f2f2;
      }

      .cls-16 {
        isolation: isolate;
      }

      .cls-6, .cls-7 {
        fill: #f5f5f5;
      }

      .cls-7 {
        opacity: .8;
      }

      .cls-8 {
        fill: #e6e7e8;
      }

      .cls-9 {
        fill: #d1d3d4;
      }

      .cls-17 {
        fill: none;
        stroke: #d1d3d4;
        stroke-miterlimit: 10;
        stroke-width: 4px;
      }

      .cls-10 {
        fill: #172628;
      }

      .cls-11 {
        fill: #83bc3b;
      }

      .cls-12 {
        fill: #fff;
      }

      .cls-13, .cls-3 {
        fill: #6a9925;
      }

      .cls-15 {
        fill: #2b8cc8;
      }
    </style>
  </defs>
  <g class="cls-16">
    <g id="Layer_1" data-name="Layer 1">
      <g>
        <rect class="cls-15" x="395.38" y="213.75" width="322.53" height="487.45" rx="36.47" ry="36.47" transform="translate(255.76 -197.21) rotate(25.9)"/>
        <g>
          <g>
            <path class="cls-12" d="M578.14,724.9c-3.94-.03-7.75-.93-11.33-2.67l-224.51-109.03c-6.36-3.09-11.14-8.47-13.45-15.15-2.31-6.68-1.89-13.87,1.2-20.23l181.07-372.87c4.44-9.14,13.88-14.99,24.05-14.92,3.94.03,7.75.93,11.33,2.67l224.51,109.03c6.36,3.09,11.14,8.47,13.45,15.15,2.31,6.68,1.89,13.87-1.2,20.23l-181.07,372.86c-4.44,9.14-13.88,15-24.04,14.92Z"/>
            <g>
              <path class="cls-4" d="M739.48,275.32l-152.73-74.17c4.02-8.27,11.01-14.13,19.07-16.92,8.06-2.79,17.18-2.51,25.45,1.51l23.42,11.37c6.17-12.7,21.45-17.99,34.15-11.82,12.68,6.16,17.97,21.45,11.81,34.14l23.42,11.37c16.56,8.04,23.45,27.97,15.41,44.52Z"/>
              <circle class="cls-12" cx="677.67" cy="208.27" r="13.48"/>
            </g>
          </g>
          <g>
            <circle class="cls-11" cx="550.36" cy="256.11" r="30.78"/>
            <g>
              <rect class="cls-12" x="550.05" y="243.31" width="9.13" height="29.74" transform="translate(617.12 -350.38) rotate(70.9)"/>
              <rect class="cls-12" x="538.12" y="243.98" width="9.13" height="22.5" transform="translate(-53.64 191.6) rotate(-19.1)"/>
            </g>
          </g>
          <g>
            <circle class="cls-11" cx="512.8" cy="333.46" r="30.78"/>
            <g>
              <rect class="cls-12" x="512.48" y="320.66" width="9.13" height="29.74" transform="translate(664.94 -262.84) rotate(70.9)"/>
              <rect class="cls-12" x="500.56" y="321.33" width="9.13" height="22.5" transform="translate(-81.01 183.57) rotate(-19.1)"/>
            </g>
          </g>
          <g>
            <circle class="cls-11" cx="475.23" cy="410.81" r="30.78"/>
            <g>
              <rect class="cls-12" x="474.92" y="398.01" width="9.13" height="29.74" transform="translate(712.76 -175.3) rotate(70.9)"/>
              <rect class="cls-12" x="462.99" y="398.68" width="9.13" height="22.5" transform="translate(-108.39 175.54) rotate(-19.1)"/>
            </g>
          </g>
          <g>
            <circle class="cls-15" cx="437.67" cy="488.16" r="30.78"/>
            <g>
              <rect class="cls-12" x="433.1" y="473.29" width="9.13" height="29.74" transform="translate(257.22 -142.15) rotate(25.9)"/>
              <rect class="cls-12" x="433.1" y="473.29" width="9.13" height="29.74" transform="translate(-192.64 668.62) rotate(-64.1)"/>
            </g>
          </g>
          <rect class="cls-8" x="602.31" y="305.73" width="145.57" height="21.91" rx="10.96" ry="10.96" transform="translate(206.16 -263.09) rotate(25.9)"/>
          <rect class="cls-8" x="564.75" y="383.08" width="145.57" height="21.91" rx="10.96" ry="10.96" transform="translate(236.18 -238.91) rotate(25.9)"/>
          <rect class="cls-8" x="527.19" y="460.43" width="145.57" height="21.91" rx="10.96" ry="10.96" transform="translate(266.19 -214.73) rotate(25.9)"/>
          <rect class="cls-8" x="489.62" y="537.78" width="145.57" height="21.91" rx="10.96" ry="10.96" transform="translate(296.21 -190.55) rotate(25.9)"/>
          <rect class="cls-8" x="452.06" y="615.13" width="145.57" height="21.91" rx="10.96" ry="10.96" transform="translate(326.22 -166.37) rotate(25.9)"/>
        </g>
      </g>
      <g>
        <rect class="cls-4" x="353.09" y="388.74" width="28.17" height="15.65"/>
        <rect class="cls-11" x="353.09" y="398.52" width="28.17" height="227.57"/>
        <rect class="cls-3" x="362.48" y="398.52" width="9.39" height="227.57"/>
        <path class="cls-8" d="M367.17,374.46h0c7.77,0,14.09,6.31,14.09,14.09v.2h-28.17v-.2c0-7.77,6.31-14.09,14.09-14.09Z"/>
        <polygon class="cls-5" points="381.26 626.09 374.21 646.61 367.18 667.09 360.14 646.61 353.09 626.09 381.26 626.09"/>
        <path class="cls-4" d="M374.21,646.61l-7.03,20.48-7.04-20.48c2.2-.77,4.57-1.18,7.04-1.18s4.83.41,7.03,1.18Z"/>
      </g>
      <g>
        <path class="cls-5" d="M992.1,686.54c-.15.28-.31.56-.47.84l-101.51,173.18c-6.57,11.22-21,14.98-32.22,8.41l-74.6-43.74c-3.9-2.29-6.9-5.52-8.87-9.24-3.72-6.98-3.83-15.66.46-22.97l101.51-173.18c6.58-11.22,21-14.98,32.22-8.41l74.61,43.73c10.94,6.42,14.79,20.29,8.87,31.38Z"/>
        <path class="cls-8" d="M992.1,686.54c-.15.28-.31.56-.47.84l-101.51,173.18c-6.57,11.22-21,14.98-32.22,8.41l-74.6-43.74c-3.9-2.29-6.9-5.52-8.87-9.24.15-.28.3-.56.46-.83l101.51-173.18c6.58-11.22,21-14.98,32.22-8.4l74.61,43.73c3.9,2.28,6.9,5.51,8.87,9.23Z"/>
        <line class="cls-17" x1="945.92" y1="633.3" x2="820.6" y2="847.1"/>
        <circle class="cls-12" cx="957.66" cy="675.18" r="15.26"/>
        <circle class="cls-12" cx="926.06" cy="729.08" r="15.26"/>
        <circle class="cls-12" cx="894.47" cy="782.98" r="15.26"/>
        <circle class="cls-12" cx="862.88" cy="836.87" r="15.26"/>
        <circle class="cls-12" cx="903.64" cy="643.52" r="15.26"/>
        <circle class="cls-12" cx="872.05" cy="697.42" r="15.26"/>
        <circle class="cls-12" cx="840.46" cy="751.32" r="15.26"/>
        <circle class="cls-12" cx="808.87" cy="805.21" r="15.26"/>
      </g>
      <g>
        <path class="cls-11" d="M871.08,862.56l-15.59,7.62-62.61,30.57-51.53-105.53c2.93-8.54,4.91-14.29,7.36-21.41.83-2.44,1.73-5.05,2.74-7.98l38.7-18.9c11.48,3.95,17.91,6.16,29.39,10.1l51.54,105.53Z"/>
        <path class="cls-3" d="M855.49,870.18l-62.61,30.57-51.53-105.53c2.93-8.54,4.91-14.29,7.36-21.41l28.46-13.9c11.48,3.94,17.92,6.15,29.4,10.1l48.92,100.17Z"/>
        <rect class="cls-14" x="736.21" y="733.52" width="58.61" height="24.09" transform="translate(-249.53 411.57) rotate(-26.03)"/>
        <rect class="cls-3" x="764" y="801.97" width="58.61" height="65.71" transform="translate(-285.89 432.82) rotate(-26.03)"/>
      </g>
      <g>
        <path class="cls-11" d="M815.88,647.47l-3.61,14.29c-1.68,6.63-8.42,10.65-15.05,8.98-6.63-1.68-10.65-8.42-8.98-15.05l3.61-14.29,14.54-6.96,9.48,13.04Z"/>
        <path class="cls-8" d="M819.49,633.18l-3.61,14.29-24.02-6.07,3.61-14.29c1.68-6.63,8.42-10.65,15.05-8.98,3.32.84,5.98,2.95,7.6,5.67,1.62,2.72,2.21,6.07,1.37,9.38Z"/>
      </g>
      <g>
        <path class="cls-8" d="M955.4,822.41l-11.27,9.5c-5.23,4.41-13.05,3.75-17.46-1.48-4.41-5.23-3.75-13.05,1.48-17.46l11.27-9.5,15.87,2.82.1,16.12Z"/>
        <path class="cls-11" d="M966.67,812.9l-11.27,9.5-15.98-18.94,11.27-9.5c5.23-4.41,13.05-3.75,17.46,1.48,2.21,2.61,3.14,5.88,2.87,9.04-.27,3.16-1.74,6.22-4.36,8.42Z"/>
      </g>
      <g>
        <path class="cls-15" d="M916.75,829.33l8.98,11.69c4.17,5.43,3.14,13.21-2.28,17.37s-13.21,3.14-17.37-2.28l-8.98-11.69,3.55-15.73,16.11.63Z"/>
        <path class="cls-12" d="M907.77,817.64l8.98,11.69-19.65,15.09-8.98-11.69c-4.17-5.43-3.14-13.21,2.28-17.37,2.71-2.08,6.02-2.87,9.16-2.46,3.14.41,6.13,2.02,8.21,4.74Z"/>
      </g>
      <g>
        <path class="cls-8" d="M769.25,713.95l8.98,11.69c4.17,5.43,3.14,13.21-2.28,17.37s-13.21,3.14-17.37-2.28l-8.98-11.69,3.55-15.73,16.11.63Z"/>
        <path class="cls-15" d="M760.27,702.26l8.98,11.69-19.65,15.09-8.98-11.69c-4.17-5.43-3.14-13.21,2.28-17.37,2.71-2.08,6.02-2.87,9.16-2.46,3.14.41,6.13,2.02,8.21,4.74Z"/>
      </g>
      <g>
        <path class="cls-8" d="M715.09,758.51l-5.28,13.76c-2.45,6.39-9.62,9.58-16,7.14-6.39-2.45-9.58-9.62-7.14-16l5.28-13.76,15.26-5.2,7.88,14.06Z"/>
        <path class="cls-11" d="M720.37,744.75l-5.28,13.76-23.14-8.87,5.28-13.76c2.45-6.39,9.62-9.58,16-7.14,3.19,1.22,5.59,3.63,6.88,6.52,1.29,2.89,1.48,6.29.25,9.48Z"/>
      </g>
      <g>
        <path class="cls-7" d="M676.49,747.41l-14.26-7.53-36.2-19.09,111.24-210.86c1.44-2.73,4.32-4.23,7.21-4.07,1.06.06,2.11.34,3.11.87l36.95,19.5c3.74,1.97,5.15,6.59,3.2,10.32l-111.25,210.85Z"/>
        <g>
          <path class="cls-14" d="M775.53,521.49l-18.92-9.98,16.64-31.54,8.98-6.87c2.13-1.63,5.01-1.87,7.39-.62h0c2.48,1.31,3.92,3.99,3.63,6.78l-1.08,10.7-16.64,31.54Z"/>
          <rect class="cls-14" x="754.42" y="513.13" width="24.96" height="3.57" transform="translate(328.87 -298.35) rotate(27.81)"/>
        </g>
        <polygon class="cls-14" points="767.25 510.19 839.32 373.58 844.31 368.01 845.94 369.15 770.6 511.95 767.25 510.19"/>
        <path class="cls-15" d="M685.68,556.6h110.35v42.79h-110.35c-7.98,0-14.46-6.48-14.46-14.46v-13.88c0-7.98,6.48-14.46,14.46-14.46Z" transform="translate(1587.15 198.83) rotate(117.81)"/>
        <rect class="cls-14" x="691.43" y="619.67" width="17.83" height="42.79" transform="translate(-193.45 961.37) rotate(-62.19)"/>
        <g>
          <polygon class="cls-8" points="704.07 653.11 656.89 742.54 650.24 755.15 612.56 826.57 596.79 818.25 634.47 746.83 641.12 734.22 688.3 644.79 704.07 653.11"/>
          <rect class="cls-6" x="584.73" y="821.76" width="35.66" height="7.13" transform="translate(454.73 -185.8) rotate(27.81)"/>
        </g>
        <path class="cls-2" d="M662.23,739.89l-36.2-19.09,111.24-210.86c1.44-2.73,4.32-4.23,7.21-4.07l25.48,13.44c3.72,1.96,5.15,6.59,3.18,10.31l-110.92,210.26Z"/>
        <rect class="cls-2" x="638.55" y="735.77" width="14.26" height="17.83" transform="translate(-314.21 968.43) rotate(-62.19)"/>
        <path class="cls-6" d="M676.23,759.37l-59.92-31.61c-3.48-1.84-4.82-6.15-2.98-9.64h0c1.84-3.48,6.15-4.82,9.64-2.98l59.92,31.61c3.48,1.84,4.82,6.15,2.98,9.64h0c-1.84,3.48-6.15,4.82-9.64,2.98Z"/>
      </g>
      <g>
        <g>
          <g>
            <g>
              <path class="cls-8" d="M191.16,207.61l-61.52,17.8c-11.82,3.42-18.77,15.45-15.83,27.4l43.09,174.99c1.06,4.29-1.56,8.62-5.85,9.68-.65.16-1.29.23-1.92.23-.38,0-.75-.03-1.12-.08-3.14-.45-5.84-2.74-6.64-6.01l-43.09-174.98c-5.01-20.32,6.82-40.79,26.92-46.6l61.52-17.8c4.24-1.23,8.68,1.22,9.91,5.46.11.38.2.77.24,1.16.53,3.87-1.85,7.63-5.71,8.75Z"/>
              <path class="cls-9" d="M191.16,207.61l-61.52,17.8c-11.82,3.42-18.77,15.45-15.83,27.4l43.09,174.99c1.06,4.29-1.56,8.62-5.85,9.68-.65.16-1.29.23-1.92.23-.38,0-.75-.03-1.12-.08l-42.88-174.14c-5-20.31,6.82-40.78,26.92-46.6l61.52-17.79c1.11-.32,2.23-.39,3.3-.24.53,3.87-1.85,7.63-5.71,8.75Z"/>
              <path class="cls-11" d="M211.78,203.55c-1.75,3.81-5.09,6.86-9.44,8.12l-9.23,2.67c-1.39.4-2.8.59-4.17.59-5.78,0-11.15-3.36-13.61-8.71-.32-.68-.59-1.39-.8-2.13-2.3-7.95,2.29-16.27,10.24-18.57l9.23-2.67c7.96-2.31,16.28,2.28,18.58,10.24,1.04,3.61.67,7.3-.8,10.46Z"/>
            </g>
            <g>
              <path class="cls-8" d="M368.32,256.64l-43.09,174.98c-.9,3.65-4.17,6.09-7.77,6.09-.27,0-.55,0-.82-.04-.36-.04-.73-.1-1.09-.19-4.29-1.06-6.92-5.39-5.86-9.68l43.09-174.99c2.94-11.95-4.01-23.98-15.83-27.4l-61.52-17.8c-4.25-1.23-6.69-5.66-5.46-9.91.31-1.08.83-2.05,1.51-2.86,1.96-2.39,5.23-3.52,8.39-2.6l61.52,17.8c20.1,5.81,31.93,26.28,26.93,46.6Z"/>
              <path class="cls-9" d="M361.33,259.51l-43.09,174.98c-.3,1.21-.85,2.28-1.6,3.18-.36-.04-.73-.1-1.09-.19-4.29-1.06-6.92-5.39-5.86-9.68l43.09-174.99c2.94-11.95-4.01-23.98-15.83-27.4l-61.52-17.8c-4.25-1.23-6.69-5.66-5.46-9.91.31-1.08.83-2.05,1.51-2.86.47.04.94.13,1.41.27l61.52,17.8c20.1,5.81,31.93,26.28,26.92,46.6Z"/>
              <path class="cls-11" d="M292.06,204.09c-.21.74-.48,1.45-.8,2.13-2.46,5.35-7.82,8.71-13.6,8.71-1.38,0-2.79-.19-4.18-.59l-9.23-2.67c-4.34-1.26-7.68-4.31-9.44-8.12-1.47-3.16-1.84-6.85-.8-10.46,2.3-7.96,10.62-12.55,18.58-10.24l9.23,2.67c7.96,2.3,12.54,10.62,10.24,18.57Z"/>
              <g class="cls-1">
                <path class="cls-13" d="M211.78,203.55c-1.75,3.81-5.09,6.86-9.44,8.12l-9.23,2.67c-1.39.4-2.8.59-4.17.59-5.78,0-11.15-3.36-13.61-8.71,1.76-3.81,5.1-6.85,9.44-8.11l9.23-2.67c7.22-2.1,14.74,1.49,17.78,8.11Z"/>
              </g>
              <g class="cls-1">
                <path class="cls-13" d="M291.26,206.22c-2.46,5.35-7.82,8.71-13.6,8.71-1.38,0-2.79-.19-4.18-.59l-9.23-2.67c-4.34-1.26-7.68-4.31-9.44-8.12,3.04-6.62,10.56-10.21,17.78-8.11l9.23,2.67c4.35,1.26,7.69,4.31,9.44,8.11Z"/>
              </g>
            </g>
          </g>
          <g>
            <path class="cls-4" d="M240.04,530.03c-1.51.16-4.18.36-7.72.36,2.26-.01,4.86-.11,7.72-.36Z"/>
            <path class="cls-4" d="M576.65,477.91v34c-24.02,0-36.18,15.48-47.31,43.79-4.05,10.32-7.97,22.34-12.27,35.93-9.54,30.17-20.36,64.37-41.03,90.94-24.83,31.91-58.99,47.43-104.43,47.43-59.75,0-104.49-37.87-129.39-109.51-8.15-23.47-12.85-46.78-15.55-65.29-2.33-15.89-3.17-28.26-3.47-34.18-.11-2.17-.15-3.47-.16-3.78l33.99-.84c0,.1.02.71.07,1.77.22,4.55,1.03,17.45,3.62,34.35,8.02,52.45,33.14,143.48,110.89,143.48s94.4-55.68,113.04-114.62c6.31-19.95,12.35-39.03,20.76-55.46,2.25-4.42,4.68-8.65,7.33-12.65,15.55-23.46,37.06-35.36,63.91-35.36Z"/>
            <path class="cls-10" d="M260.72,552.52c-5.88,1.52-11.37,2.35-16.14,2.78-.14.02-.28.04-.41.04-2.86.25-5.46.35-7.72.36-.39,0-.77,0-1.13-.01-2.11-.02-4.51-.12-7.12-.35-.15-.01-.28-.02-.41-.04-.37-.03-.74-.07-1.12-.1-2.33-15.89-3.17-28.26-3.47-34.18,4.02,1.14,8.34,1.91,12.98,2.24,7.86-.56,14.8-2.37,20.92-5.09.22,4.55,1.03,17.45,3.62,34.35Z"/>
            <path class="cls-4" d="M316.07,424.94c9.45,2.43,15.22,12.07,12.76,21.51-17.56,67.48-63.02,81.28-88.38,83.54-.14.02-.28.04-.41.04-2.86.25-5.46.35-7.72.36-.39,0-.77,0-1.13-.01-2.11-.02-4.51-.12-7.12-.35-.15-.01-.28-.02-.41-.04-25.36-2.26-70.83-16.06-88.39-83.54-2.46-9.44,3.31-19.07,12.76-21.51h0c9.38-2.42,18.92,3.16,21.52,12.5,6.13,21.98,22.22,57.62,62.5,60.51,40.28-2.89,56.38-38.53,62.5-60.51,2.6-9.33,12.13-14.92,21.52-12.5h0Z"/>
            <path class="cls-4" d="M231.19,530.38c-3.25-.01-5.7-.2-7.12-.35,2.61.23,5.01.33,7.12.35Z"/>
          </g>
        </g>
        <g>
          <path class="cls-10" d="M576.65,477.91v34c-24.02,0-36.18,15.48-47.31,43.79-11.23-6.61-19.84-17.18-23.93-29.78,2.25-4.42,4.68-8.65,7.33-12.65,15.55-23.46,37.06-35.36,63.91-35.36Z"/>
          <circle class="cls-11" cx="583.3" cy="497.52" r="53.87"/>
          <g class="cls-1">
            <circle class="cls-13" cx="583.3" cy="497.52" r="33.13"/>
          </g>
        </g>
      </g>
    </g>
  </g>
</svg>