<svg width="1080" height="1080" viewBox="0 0 1080 1080" fill="none" xmlns="http://www.w3.org/2000/svg">
<path d="M935.409 830.252C929.649 837.582 923.419 844.512 916.789 851.032C861.589 905.302 778.409 930.562 702.529 914.112C676.899 908.552 652.019 898.652 625.849 897.212C544.719 892.712 481.17 967.482 402.21 986.622C322.72 1005.89 237.65 963.692 186.93 899.522C174.89 884.292 164.49 868.042 155.47 851.042C126.45 796.382 111.66 733.862 102.74 672.132C93.4195 607.522 90.2395 539.082 116.88 479.492C146.58 413.042 208.5 367.712 267.79 325.492C341.72 272.852 415.63 220.212 489.56 167.582C536.3 134.292 585.249 100.072 641.889 90.902C698.529 81.732 765.01 105.892 785.06 159.652C800.46 200.942 785.3 244.972 774.24 285.282C766.24 314.422 755.589 349.512 761.889 380.052C767.089 405.312 787.54 419.882 807.88 433.312C868.56 473.372 929.189 516.872 961.849 584.152C999.839 662.382 989.139 761.882 935.399 830.252H935.409Z" fill="#E6E7E8"/>
<mask id="mask0_1_165" style="mask-type:luminance" maskUnits="userSpaceOnUse" x="96" y="89" width="889" height="903">
<path d="M935.409 830.252C929.649 837.582 923.419 844.512 916.789 851.032C861.589 905.302 778.409 930.562 702.529 914.112C676.899 908.552 652.019 898.652 625.849 897.212C544.719 892.712 481.17 967.482 402.21 986.622C322.72 1005.89 237.65 963.692 186.93 899.522C174.89 884.292 164.49 868.042 155.47 851.042C126.45 796.382 111.66 733.862 102.74 672.132C93.4195 607.522 90.2395 539.082 116.88 479.492C146.58 413.042 208.5 367.712 267.79 325.492C341.72 272.852 415.63 220.212 489.56 167.582C536.3 134.292 585.249 100.072 641.889 90.902C698.529 81.732 765.01 105.892 785.06 159.652C800.46 200.942 785.3 244.972 774.24 285.282C766.24 314.422 755.589 349.512 761.889 380.052C767.089 405.312 787.54 419.882 807.88 433.312C868.56 473.372 929.189 516.872 961.849 584.152C999.839 662.382 989.139 761.882 935.399 830.252H935.409Z" fill="white"/>
</mask>
<g mask="url(#mask0_1_165)">
<path d="M107.5 448.312C107.5 448.312 8.28952 614.872 107.5 714.082C206.71 614.872 107.5 448.312 107.5 448.312Z" fill="#649321"/>
<path d="M107.5 484.372V653.412" stroke="black" stroke-width="4" stroke-linecap="round" stroke-linejoin="round"/>
<path d="M153.09 687.182C142.12 698.002 128.83 707.232 112.76 714.082C93.9295 669.892 102.75 627.232 120.67 591.512C149.18 534.702 200.72 495.442 200.72 495.442C200.72 495.442 220.29 620.962 153.09 687.182Z" fill="#83BC3B"/>
<g style="mix-blend-mode:multiply" opacity="0.7">
<path d="M153.09 687.182C142.12 698.002 128.83 707.232 112.76 714.082C93.9295 669.892 102.75 627.232 120.67 591.512C144.84 562.162 168.55 544.092 168.55 544.092C168.55 544.092 180.67 621.802 153.09 687.182Z" fill="#83BC3B"/>
</g>
<path d="M14.2795 495.442C14.2795 495.442 151.02 599.632 102.25 714.082C-12.2105 665.302 14.2795 495.442 14.2795 495.442Z" fill="#83BC3B"/>
<path d="M116.53 697.962C147.25 641.722 167.41 594.452 183.05 539.562" stroke="black" stroke-width="4" stroke-linecap="round" stroke-linejoin="round"/>
<path d="M166.19 898.042H48.8195L12.4095 689.402H202.6L166.19 898.042Z" fill="#2B8CC8"/>
<g style="mix-blend-mode:multiply" opacity="0.5">
<path d="M142.42 926.022H25.0495L-11.3705 717.382H178.83L142.42 926.022Z" fill="#2B8CC8"/>
</g>
<path d="M1048.9 621.322H837.849V678.702H1048.9V621.322Z" fill="#156E9B"/>
<path d="M905.459 621.322H837.849V678.702H905.459V621.322Z" fill="#F1F2F2"/>
<path d="M905.459 621.322H837.849V634.212H905.459V621.322Z" fill="#2B8CC8"/>
<path d="M905.459 665.812H837.849V678.702H905.459V665.812Z" fill="#2B8CC8"/>
<path d="M1048.9 678.702H837.849V736.082H1048.9V678.702Z" fill="#649321"/>
<path d="M905.459 678.702H837.849V736.082H905.459V678.702Z" fill="#F1F2F2"/>
<path d="M905.459 678.702H837.849V691.592H905.459V678.702Z" fill="#83BC3B"/>
<path d="M905.459 723.192H837.849V736.082H905.459V723.192Z" fill="#83BC3B"/>
<path d="M1048.9 736.272H837.849V793.652H1048.9V736.272Z" fill="#156E9B"/>
<path d="M905.459 736.272H837.849V793.652H905.459V736.272Z" fill="#F1F2F2"/>
<path d="M905.459 736.272H837.849V749.162H905.459V736.272Z" fill="#2B8CC8"/>
<path d="M905.459 780.762H837.849V793.652H905.459V780.762Z" fill="#2B8CC8"/>
<path d="M1048.9 793.652H837.849V851.032H1048.9V793.652Z" fill="#649321"/>
<path d="M905.459 793.652H837.849V851.032H905.459V793.652Z" fill="#F1F2F2"/>
<path d="M905.459 793.652H837.849V806.542H905.459V793.652Z" fill="#83BC3B"/>
<path d="M905.459 838.142H837.849V851.032H905.459V838.142Z" fill="#83BC3B"/>
</g>
<path d="M479 278.342H354.78V441.782H479V278.342Z" fill="white"/>
<path d="M456.15 308.402H377.64V411.702H456.15V308.402Z" fill="#E6E7E8"/>
<path d="M801.959 897.322H278.5L310.96 438.252C313.01 409.252 339.18 386.122 369.44 386.122H711.01C741.27 386.122 767.44 409.252 769.49 438.252L801.949 897.322H801.959Z" fill="#2B8CC8"/>
<g style="mix-blend-mode:multiply" opacity="0.5">
<path d="M769.77 871.892H310.69L335.84 469.222C337.46 443.212 360.58 422.422 387.48 422.422H692.97C719.88 422.422 742.99 443.212 744.61 469.222L769.76 871.892H769.77Z" fill="#2B8CC8"/>
</g>
<path d="M735.74 139.552H611.52V302.992H735.74V139.552Z" fill="white"/>
<path d="M712.88 169.622H634.37V272.922H712.88V169.622Z" fill="#E6E7E8"/>
<path d="M617.949 193.862C617.949 193.862 603.28 165.852 552.6 171.342C493.27 177.772 441.14 217.932 438.63 325.682C436.12 433.432 424.94 464.312 402.9 501.692L519.699 540.572L692.59 509.982C692.59 509.982 657.24 419.742 677.57 312.352C699.26 197.752 617.949 193.862 617.949 193.862Z" fill="#4C4C4C"/>
<path d="M615.48 212.312C615.48 212.312 600.81 184.302 550.13 189.792C490.8 196.222 438.67 236.382 436.16 344.132C433.65 451.882 422.47 482.762 400.43 520.142L517.23 559.022L690.12 528.432C690.12 528.432 654.77 438.192 675.1 330.802C696.79 216.202 615.48 212.312 615.48 212.312Z" fill="#1A1A1A"/>
<path d="M414.29 490.332C414.29 490.332 347.88 489.112 314.81 545.402C281.74 601.692 215.53 920.372 215.53 920.372L379.41 927.632L414.29 490.342V490.332Z" fill="white"/>
<path d="M851.23 896.262C815.25 913.052 775.12 921.082 735.57 918.652C724.48 917.982 713.43 916.472 702.53 914.112C699.71 913.502 696.9 912.832 694.09 912.132L694.64 851.032L697.77 502.892C697.77 502.892 706.57 503.512 719.12 507.152C740.98 513.512 774.21 529.052 791.98 566.542C809.9 604.362 831.86 750.792 845.31 851.032C847.53 867.602 849.52 882.912 851.23 896.262Z" fill="white"/>
<path d="M769.33 587.522L742.46 851.032L735.57 918.652C724.48 917.982 713.43 916.472 702.53 914.112C699.71 913.502 696.9 912.832 694.09 912.132C671.41 906.472 649.14 898.492 625.84 897.202C588.17 895.112 554.29 910.112 520.9 928.712L340.12 920.702L339.21 851.032L335.52 568.302C334.94 523.902 371.82 488.162 416.18 490.122L554.62 496.252L557.46 496.382L695.9 502.512C704.06 502.872 711.86 504.482 719.12 507.152C751.33 518.962 773.01 551.482 769.33 587.522Z" fill="white"/>
<path d="M655.75 289.872C655.74 302.152 654.84 310.472 654.84 310.472L626.47 313.152L570.46 267.182L518.29 246.122C511.04 262.532 505.89 284.312 501.65 308.422C492.62 307.882 483.95 305.782 475.62 302.212C475.62 302.212 475.53 301.442 475.41 300.032V299.972C474.37 287.862 479.97 238.482 511.71 210.502C511.71 210.502 581.37 190.902 615.5 212.322C644.56 230.572 655.81 262.282 655.76 289.882L655.75 289.872Z" fill="#1A1A1A"/>
<path d="M490.14 467.282L621.53 473.112L618.05 530.962L492.16 518.212L490.14 467.282Z" fill="#2B8CC8"/>
<path d="M616.56 482.772L635.76 525.602L549.529 591.722L469.49 518.052L495.9 478.802C513.55 473.472 518.889 450.032 520.279 431.612C521.259 418.642 520.289 408.142 520.289 408.142L558.899 399.172L596.859 410.672C596.859 410.672 595 422.382 595.38 436.492C595.86 454.562 600.019 476.562 616.549 482.782L616.56 482.772Z" fill="#FFABB1"/>
<path d="M492.639 305.732C492.639 305.732 482.759 289.892 470.209 297.942C453.969 308.352 466.029 365.592 491.899 353.352L510.389 335.712L492.639 305.732Z" fill="#FFABB1"/>
<path d="M631.199 310.292C631.199 310.292 642.099 295.132 654.099 304.002C669.619 315.462 653.829 371.782 628.809 357.862L611.519 339.042L631.199 310.292Z" fill="#FFABB1"/>
<path d="M596.869 410.672C596.869 410.672 595.009 422.382 595.389 436.492C593.299 437.932 591.129 439.292 588.869 440.542C579.779 445.602 569.649 448.932 558.899 448.582C548.149 448.222 538.249 444.232 529.509 438.582C526.239 436.472 523.159 434.152 520.279 431.622C521.259 418.652 520.289 408.152 520.289 408.152L558.899 399.182L596.859 410.682L596.869 410.672Z" fill="#E07C88"/>
<path d="M627.549 340.432L650.059 319.712" stroke="#E07C88" stroke-width="4" stroke-linecap="round" stroke-linejoin="round"/>
<path d="M497.02 339.032L476.24 316.582" stroke="#E07C88" stroke-width="4" stroke-linecap="round" stroke-linejoin="round"/>
<path d="M632.029 293.142L630.289 346.042C629.329 375.202 613.569 402.172 588.069 416.352C578.989 421.402 568.839 424.742 558.099 424.382C547.349 424.032 537.449 420.032 528.709 414.392C504.199 398.562 490.239 370.622 491.199 341.452L492.939 288.562C494.199 250.152 526.359 220.042 564.769 221.312C603.179 222.572 633.289 254.732 632.019 293.142H632.029Z" fill="#FFABB1"/>
<path d="M524.893 332.735C528.841 332.72 532.03 329.507 532.015 325.558C532 321.609 528.787 318.42 524.838 318.435C520.889 318.45 517.7 321.664 517.715 325.613C517.73 329.561 520.944 332.75 524.893 332.735Z" fill="black"/>
<path d="M599.05 337.41C602.999 337.395 606.188 334.182 606.173 330.233C606.157 326.284 602.944 323.095 598.995 323.11C595.046 323.126 591.858 326.339 591.873 330.288C591.888 334.237 595.101 337.426 599.05 337.41Z" fill="black"/>
<path d="M598.589 326.542C598.589 326.542 605.6 326.142 610.74 319.072" stroke="black" stroke-width="4" stroke-linecap="round" stroke-linejoin="round"/>
<path d="M526.07 323.322C526.07 323.322 519.13 322.302 514.63 314.812" stroke="black" stroke-width="4" stroke-linecap="round" stroke-linejoin="round"/>
<path d="M613.199 308.662C606.199 303.772 597.799 299.842 589.129 301.902C585.849 302.762 583.949 298.422 586.829 296.662C594.369 291.962 604.379 294.132 611.209 299.072C613.519 300.692 615.449 302.402 617.279 304.642C618.269 305.882 618.069 307.682 616.829 308.672C615.739 309.552 614.249 309.462 613.199 308.662Z" fill="black"/>
<path d="M512.85 295.692C519.69 290.852 528.5 288.422 536.76 290.772C539.6 291.562 542.17 293.172 544.32 295.062C545.5 296.102 545.62 297.912 544.57 299.092C543.61 300.192 542.05 300.322 540.86 299.622C538.91 298.692 537.059 297.832 535.029 297.462C528.629 296.192 521.82 298.122 515.88 300.562C512.73 302.042 510.13 297.832 512.86 295.702L512.85 295.692Z" fill="black"/>
<path d="M563.85 317.712L560.28 334.672L557.16 338.012C553.63 341.792 553.34 347.562 556.48 351.672L559.13 355.142" stroke="#E07C88" stroke-width="4" stroke-linecap="round" stroke-linejoin="round"/>
<path d="M586.619 375.302C587.259 360.782 534.689 358.452 534.049 372.972C533.409 387.492 544.649 399.782 559.169 400.422C573.689 401.062 585.979 389.822 586.619 375.302Z" fill="white"/>
<path d="M600.469 228.322C600.469 228.322 598.869 282.262 631.209 310.292C637.939 304.382 641.829 295.882 641.899 286.932L642.139 254.832L600.469 228.322Z" fill="#1A1A1A"/>
<path d="M501.65 308.412C501.56 308.412 501.47 308.402 501.38 308.392C486.33 307.442 476.55 292.912 479.75 278.172C487.79 241.102 521.24 215.062 551.39 211.542C585.57 207.552 619.14 216.052 619.14 216.052C611.51 256.462 509.02 241.372 501.66 308.402L501.65 308.412Z" fill="#1A1A1A"/>
<path d="M609.51 368.082C616.115 368.082 621.47 362.727 621.47 356.122C621.47 349.517 616.115 344.162 609.51 344.162C602.904 344.162 597.55 349.517 597.55 356.122C597.55 362.727 602.904 368.082 609.51 368.082Z" fill="#E07C88"/>
<path d="M516.11 363.182C522.715 363.182 528.07 357.827 528.07 351.222C528.07 344.617 522.715 339.262 516.11 339.262C509.504 339.262 504.15 344.617 504.15 351.222C504.15 357.827 509.504 363.182 516.11 363.182Z" fill="#E07C88"/>
<path d="M541.81 793.722L486.67 607.302L497.03 539.562L526.27 565.272L549.53 591.712L584.04 556.252L613.24 544.712L590.11 691.912L541.81 793.722Z" fill="#2B8CC8"/>
<path d="M490.14 467.282L549.53 591.712L501.83 550.472L470.32 570.842L444.26 493.692L490.14 467.282Z" fill="#2B8CC8"/>
<path d="M621.53 473.112L549.53 591.712L600.69 554.852L630.28 577.932L663.06 503.382L621.53 473.112Z" fill="#2B8CC8"/>
<path d="M513.88 460.662C513.88 460.662 484.6 589.342 542.89 794.172C488.35 734.992 443.03 680.002 420.94 635.582L476.1 582.162L433.04 491.002C462.38 473.362 490.74 458.822 513.89 460.662H513.88Z" fill="#E6E7E8"/>
<path d="M599.72 464.002C599.72 464.002 617.69 594.742 541.81 793.722C601.29 739.512 651.22 688.672 677.1 646.342L626.79 588.332L677.62 501.262C649.93 481.132 622.94 464.182 599.72 464.002Z" fill="#E6E7E8"/>
<path d="M713.109 632.722L714.399 666.152C714.999 681.572 705.959 695.642 691.909 701.602" stroke="white" stroke-width="4" stroke-linecap="round" stroke-linejoin="round"/>
<path d="M617.38 632.722L616.089 666.152C615.479 682.032 625.08 696.482 639.86 702.112" stroke="white" stroke-width="4" stroke-linecap="round" stroke-linejoin="round"/>
<path d="M681.529 711.722C682.229 711.722 682.939 711.612 683.639 711.362L691.679 708.572C692.589 708.252 693.509 707.902 694.419 707.522C697.699 706.142 699.229 702.362 697.839 699.082C696.459 695.802 692.669 694.272 689.399 695.662C688.759 695.932 688.119 696.182 687.459 696.412L679.419 699.202C676.059 700.362 674.279 704.032 675.439 707.392C676.359 710.052 678.859 711.722 681.519 711.722H681.529Z" fill="#364D51"/>
<path d="M648.96 711.722C651.63 711.722 654.12 710.052 655.04 707.392C656.2 704.032 654.42 700.362 651.06 699.202L643.02 696.412C642.73 696.312 642.44 696.202 642.15 696.092C638.83 694.822 635.11 696.492 633.84 699.812C632.57 703.132 634.24 706.852 637.56 708.122C637.97 708.282 638.38 708.432 638.8 708.572L646.85 711.362C647.55 711.602 648.26 711.722 648.96 711.722Z" fill="#364D51"/>
<path d="M617.55 645.932C620.39 645.932 622.7 643.632 622.7 640.782C622.7 640.542 622.79 631.102 626.04 592.782C626.07 592.412 626.1 592.062 626.14 591.712C628.7 567.332 647.63 556.412 665.25 556.412C682.87 556.412 701.8 567.322 704.36 591.702C704.4 592.062 704.43 592.422 704.46 592.782C707.73 631.412 707.8 640.692 707.8 640.782C707.8 643.622 710.11 645.922 712.95 645.922C715.79 645.922 718.09 643.612 718.09 640.772C718.09 640.402 718.05 631.302 714.71 591.902C714.67 591.462 714.63 591.042 714.59 590.612C711.38 560.032 686.76 546.102 665.24 546.102C643.72 546.102 619.09 560.032 615.89 590.622C615.85 591.042 615.8 591.482 615.77 591.912C612.43 631.302 612.39 640.402 612.39 640.772C612.39 643.612 614.7 645.922 617.54 645.922L617.55 645.932Z" fill="#364D51"/>
<path d="M665.24 556.412C665.35 556.412 665.47 556.412 665.58 556.402C668.42 556.212 670.57 553.762 670.38 550.922C667.77 511.172 656.61 483.162 637.21 467.652C622.14 455.612 607.67 456.082 607.07 456.102C604.23 456.222 602.02 458.622 602.14 461.462C602.26 464.292 604.66 466.512 607.47 466.392C609.47 466.342 654.49 466.132 660.1 551.602C660.28 554.322 662.54 556.412 665.23 556.412H665.24Z" fill="#364D51"/>
<path d="M402.14 629.292L400.85 662.722C400.25 678.142 409.29 692.212 423.34 698.172" stroke="white" stroke-width="4" stroke-linecap="round" stroke-linejoin="round"/>
<path d="M497.86 629.292L499.15 662.722C499.76 678.602 490.16 693.052 475.38 698.682" stroke="white" stroke-width="4" stroke-linecap="round" stroke-linejoin="round"/>
<path d="M433.71 708.292C433.01 708.292 432.299 708.182 431.599 707.932L423.559 705.142C422.649 704.822 421.729 704.472 420.819 704.092C417.539 702.712 416.01 698.932 417.4 695.652C418.78 692.372 422.569 690.842 425.839 692.232C426.479 692.502 427.119 692.752 427.779 692.982L435.819 695.772C439.179 696.932 440.96 700.602 439.8 703.962C438.88 706.622 436.379 708.292 433.719 708.292H433.71Z" fill="#364D51"/>
<path d="M466.28 708.292C463.61 708.292 461.12 706.622 460.2 703.962C459.04 700.602 460.82 696.932 464.18 695.772L472.22 692.982C472.51 692.882 472.8 692.772 473.09 692.662C476.41 691.392 480.13 693.062 481.4 696.382C482.67 699.702 481 703.422 477.68 704.692C477.27 704.852 476.86 705.002 476.44 705.142L468.39 707.932C467.69 708.172 466.98 708.292 466.28 708.292Z" fill="#364D51"/>
<path d="M497.7 642.512C494.86 642.512 492.55 640.212 492.55 637.362C492.55 637.122 492.46 627.682 489.21 589.362C489.18 588.992 489.15 588.642 489.11 588.292C486.55 563.912 467.62 552.992 450 552.992C432.38 552.992 413.45 563.902 410.89 588.282C410.85 588.642 410.82 589.002 410.79 589.362C407.52 627.992 407.45 637.272 407.45 637.362C407.45 640.202 405.14 642.502 402.3 642.502C399.46 642.502 397.16 640.192 397.16 637.352C397.16 636.982 397.2 627.882 400.54 588.482C400.58 588.042 400.62 587.622 400.66 587.192C403.87 556.612 428.49 542.682 450.01 542.682C471.53 542.682 496.16 556.612 499.36 587.202C499.4 587.622 499.45 588.062 499.48 588.492C502.82 627.882 502.86 636.982 502.86 637.352C502.86 640.192 500.55 642.502 497.71 642.502L497.7 642.512Z" fill="#364D51"/>
<path d="M450 552.982C449.89 552.982 449.77 552.982 449.66 552.972C446.82 552.782 444.67 550.332 444.86 547.492C447.47 507.742 458.63 479.732 478.03 464.222C493.1 452.182 507.57 452.652 508.17 452.672C511.01 452.792 513.22 455.192 513.1 458.032C512.98 460.862 510.58 463.082 507.77 462.962C505.77 462.912 460.75 462.702 455.14 548.172C454.96 550.892 452.7 552.982 450.01 552.982H450Z" fill="#364D51"/>
<path d="M916.789 851.032C906.109 861.532 894.379 870.952 881.859 879.192C872.089 885.612 861.839 891.322 851.229 896.262C815.249 913.052 775.12 921.082 735.57 918.652C724.48 917.982 713.429 916.472 702.529 914.112C699.709 913.502 696.899 912.832 694.089 912.132C671.409 906.472 649.139 898.492 625.839 897.202C588.169 895.112 554.289 910.112 520.899 928.712C482.369 950.152 444.499 976.372 402.199 986.622C322.719 1005.89 237.639 963.692 186.929 899.522C181.719 892.932 176.819 886.152 172.199 879.192C166.149 870.082 160.589 860.682 155.469 851.032H916.789Z" fill="#364D51"/>
<g style="mix-blend-mode:multiply" opacity="0.5">
<path d="M881.859 879.192C872.089 885.612 861.839 891.322 851.229 896.262C815.249 913.052 775.119 921.082 735.569 918.652C724.479 917.982 713.429 916.472 702.529 914.112C699.709 913.502 696.899 912.832 694.089 912.132C671.409 906.472 649.139 898.492 625.839 897.202C588.169 895.112 554.289 910.112 520.899 928.712C482.369 950.152 444.499 976.372 402.199 986.622C322.719 1005.89 237.639 963.692 186.929 899.522C181.719 892.932 176.819 886.152 172.199 879.192H881.859Z" fill="#364D51"/>
</g>
<path d="M256.18 676.862L208.62 780.512C192.29 816.092 210.47 857.962 247.61 870.332C288.43 883.932 331.1 855.312 334.01 812.382L336.48 775.972L291.15 690.262L256.19 676.862H256.18Z" fill="white"/>
<path d="M291.509 851.032C291.509 851.032 261.879 842.222 251.369 834.652C248.859 832.852 246.379 830.912 243.909 828.892C241.549 826.532 239.369 824.002 237.409 821.332C223.779 802.802 220.149 777.542 230.569 754.852L237.449 739.862L237.689 739.342L250.419 711.602L288.399 754.932L291.409 848.072L291.509 851.032Z" fill="#1A1A1A"/>
<path d="M830.06 662.062L884.23 762.422C902.82 796.862 887.4 839.832 851.14 854.572C811.29 870.782 766.86 844.992 761.17 802.342L756.35 766.162L796.04 677.692L830.06 662.052V662.062Z" fill="white"/>
<path d="M858.13 805.012C856.35 807.802 854.34 810.472 852.13 812.982C849.36 815.562 846.559 818.022 843.719 820.292C834.109 827.972 806.07 838.152 806.07 838.152L805.979 835.192L802.949 742.052L838.049 696.352L845.949 710.982L852.82 723.712L860.649 738.232C872.519 760.202 870.53 785.642 858.13 805.012Z" fill="#1A1A1A"/>
<path d="M811.039 885.202L774.88 886.372L293.159 902.002L283.139 593.182L281.609 545.912L799.479 529.102L811.039 885.202Z" fill="#83BC3B"/>
<g style="mix-blend-mode:multiply" opacity="0.7">
<path d="M774.88 886.372L293.16 902.002L283.14 593.182L764.85 577.542L774.88 886.372Z" fill="#83BC3B"/>
</g>
<path d="M265.749 747.152L288.399 754.932C284.139 793.442 272.959 821.732 251.369 834.652C248.859 832.852 246.379 830.912 243.909 828.892C241.549 826.532 239.369 824.002 237.409 821.332C223.779 802.802 220.149 777.542 230.569 754.852L237.449 739.862L237.689 739.342L238.019 739.882L265.749 747.152Z" fill="#FFABB1"/>
<path d="M284.819 644.492L288.399 754.922C287.349 765.082 267.739 785.522 263.699 790.272C251.029 776.302 241.259 760.332 238.019 739.872C243.439 694.872 258.259 662.572 284.819 644.482V644.492Z" fill="#FFABB1"/>
<path d="M284.819 644.492C310.999 653.782 334.019 670.472 354.539 692.972C358.929 697.782 359.649 704.902 356.429 710.552L330.529 755.952C327.969 760.442 322.779 762.722 317.739 761.582L288.399 754.922L260.959 723.362L284.809 644.482L284.819 644.492Z" fill="#FFABB1"/>
<path d="M334.129 749.642C334.129 749.642 298.199 727.572 278.019 725.712" stroke="#E07C88" stroke-width="4" stroke-linecap="round" stroke-linejoin="round"/>
<path d="M345.219 730.202L288.189 697.962" stroke="#E07C88" stroke-width="4" stroke-linecap="round" stroke-linejoin="round"/>
<path d="M355.129 712.832C355.129 712.832 328.049 686.102 299.759 674.692" stroke="#E07C88" stroke-width="4" stroke-linecap="round" stroke-linejoin="round"/>
<path d="M858.13 805.012C856.35 807.802 854.34 810.472 852.13 812.982C849.36 815.562 846.559 818.022 843.719 820.292L843.68 820.312C816.92 792.352 806.26 738.122 806.26 738.122L845.949 710.982L850.099 699.202L862.099 732.982C873.969 754.952 870.54 785.642 858.13 805.012Z" fill="#FFABB1"/>
<path d="M802.679 627.692L806.259 738.122C807.959 748.192 828.859 767.322 833.199 771.802C844.939 757.042 853.649 740.472 855.559 719.842C847.239 675.292 830.359 644.022 802.679 627.682V627.692Z" fill="#FFABB1"/>
<path d="M802.68 627.692C777.16 638.662 755.27 656.802 736.25 680.592C732.19 685.672 731.92 692.822 735.51 698.252L764.3 741.882C767.14 746.192 772.47 748.132 777.42 746.672L806.269 738.122L831.6 704.852L802.68 627.692Z" fill="#FFABB1"/>
<path d="M760.28 735.812C760.28 735.812 794.7 711.462 814.72 708.292" stroke="#E07C88" stroke-width="4" stroke-linecap="round" stroke-linejoin="round"/>
<path d="M747.959 717.132L802.779 681.262" stroke="#E07C88" stroke-width="4" stroke-linecap="round" stroke-linejoin="round"/>
<path d="M736.949 700.442C736.949 700.442 762.239 672.012 789.729 658.792" stroke="#E07C88" stroke-width="4" stroke-linecap="round" stroke-linejoin="round"/>
<path d="M428.981 695.329C433.031 695.167 436.576 695.709 439.614 696.954C442.651 698.156 445.03 699.983 446.751 702.433C448.47 704.841 449.396 707.729 449.531 711.097C449.665 714.465 448.972 717.418 447.451 719.955C445.929 722.493 443.704 724.503 440.774 725.987C437.843 727.428 434.352 728.229 430.302 728.391L422.5 728.702L422.968 740.405L410.306 740.911L408.517 696.147L428.981 695.329ZM429.136 718.445C431.736 718.341 433.675 717.709 434.953 716.548C436.228 715.344 436.824 713.697 436.741 711.608C436.658 709.519 435.932 707.926 434.564 706.827C433.197 705.729 431.213 705.232 428.612 705.336L421.578 705.617L422.101 718.726L429.136 718.445ZM490.931 720.396C490.934 720.482 490.91 721.486 490.859 723.41L465.663 724.416C466.246 726.186 467.282 727.533 468.771 728.455C470.301 729.334 472.174 729.728 474.391 729.64C476.053 729.573 477.472 729.282 478.647 728.765C479.865 728.247 481.071 727.43 482.264 726.315L488.925 732.71C485.707 736.596 480.858 738.669 474.378 738.928C470.327 739.09 466.737 738.464 463.606 737.052C460.475 735.64 458.003 733.604 456.188 730.943C454.417 728.281 453.462 725.224 453.324 721.771C453.188 718.36 453.876 715.279 455.389 712.529C456.942 709.734 459.138 707.511 461.976 705.86C464.813 704.21 468.044 703.312 471.668 703.167C475.121 703.03 478.284 703.629 481.155 704.966C484.025 706.261 486.325 708.24 488.054 710.904C489.824 713.523 490.783 716.687 490.931 720.396ZM472.077 711.798C470.201 711.873 468.645 712.469 467.408 713.586C466.215 714.701 465.484 716.182 465.216 718.029L479.413 717.462C478.998 715.642 478.13 714.225 476.809 713.21C475.53 712.194 473.953 711.723 472.077 711.798ZM496.271 750.479C492.732 750.621 489.894 750.136 487.758 749.026L490.482 740.27C491.618 740.908 492.889 741.199 494.296 741.143C495.405 741.098 496.263 740.68 496.872 739.887C497.481 739.094 497.756 737.951 497.696 736.459L496.35 702.758L508.5 702.273L509.849 736.038C510.019 740.301 508.896 743.719 506.48 746.292C504.107 748.906 500.704 750.302 496.271 750.479ZM502.272 698.678C500.055 698.767 498.239 698.22 496.826 697.038C495.412 695.857 494.669 694.349 494.596 692.516C494.522 690.683 495.143 689.121 496.458 687.83C497.773 686.539 499.539 685.849 501.756 685.761C503.973 685.672 505.787 686.197 507.199 687.337C508.609 688.433 509.351 689.898 509.424 691.731C509.501 693.65 508.882 695.276 507.569 696.609C506.254 697.9 504.489 698.59 502.272 698.678ZM552.773 700.504L554.157 735.164L542.583 735.627L542.434 731.918C541.212 733.376 539.719 734.503 537.958 735.299C536.196 736.095 534.314 736.534 532.31 736.614C527.833 736.792 524.199 735.614 521.408 733.078C518.659 730.54 517.179 726.628 516.968 721.342L516.194 701.965L528.344 701.48L529.039 718.874C529.143 721.475 529.709 723.352 530.737 724.507C531.766 725.661 533.218 726.201 535.093 726.126C537.012 726.049 538.542 725.326 539.682 723.957C540.864 722.544 541.4 720.451 541.289 717.68L540.622 700.989L552.773 700.504ZM575.348 699.026C581.104 698.796 585.548 699.942 588.68 702.464C591.811 704.944 593.484 708.891 593.701 714.305L594.47 733.554L583.151 734.006L582.972 729.53C581.359 732.968 578.015 734.788 572.942 734.99C570.256 735.098 567.914 734.722 565.915 733.862C563.917 733.002 562.374 731.804 561.288 730.268C560.243 728.687 559.679 726.873 559.598 724.827C559.466 721.544 560.623 718.957 563.067 717.066C565.509 715.133 569.352 714.061 574.595 713.852L581.502 713.576C581.142 709.918 578.618 708.182 573.928 708.37C572.265 708.436 570.593 708.781 568.909 709.403C567.224 709.983 565.804 710.765 564.648 711.751L560.225 703.665C562.093 702.309 564.377 701.236 567.078 700.445C569.82 699.609 572.577 699.136 575.348 699.026ZM576.025 727.181C577.432 727.125 578.654 726.734 579.693 726.01C580.731 725.285 581.459 724.253 581.875 722.912L581.755 719.907L576.511 720.116C572.973 720.257 571.25 721.501 571.344 723.845C571.386 724.911 571.825 725.748 572.661 726.355C573.497 726.962 574.618 727.237 576.025 727.181ZM623.305 697.11C627.611 696.938 631.116 698.079 633.819 700.533C636.564 702.985 638.04 706.791 638.246 711.949L639.038 731.774L626.887 732.259L626.175 714.417C625.986 709.685 623.994 707.395 620.2 707.546C618.111 707.63 616.454 708.379 615.229 709.794C614.048 711.208 613.511 713.279 613.62 716.008L614.289 732.762L602.139 733.248L600.754 698.587L612.329 698.125L612.48 701.898C613.788 700.436 615.365 699.306 617.212 698.506C619.058 697.664 621.089 697.198 623.305 697.11ZM683.063 695.299L684.195 723.629C684.452 730.066 682.897 734.953 679.529 738.291C676.162 741.67 671.196 743.491 664.631 743.754C661.22 743.89 658.007 743.634 654.992 742.986C651.977 742.337 649.396 741.309 647.247 739.9L651.32 731.219C652.773 732.314 654.578 733.138 656.735 733.693C658.936 734.288 661.082 734.544 663.171 734.46C666.368 734.333 668.685 733.536 670.121 732.069C671.557 730.603 672.219 728.484 672.109 725.713L672.063 724.562C669.827 727.384 666.449 728.885 661.93 729.066C658.861 729.188 655.998 728.619 653.343 727.359C650.687 726.056 648.541 724.178 646.905 721.724C645.268 719.227 644.383 716.316 644.251 712.991C644.119 709.708 644.771 706.778 646.205 704.201C647.638 701.582 649.627 699.539 652.173 698.07C654.718 696.56 657.525 695.743 660.594 695.62C665.54 695.423 669.227 696.877 671.657 699.982L671.489 695.762L683.063 695.299ZM664.422 719.294C666.597 719.208 668.361 718.475 669.715 717.097C671.112 715.718 671.768 713.984 671.685 711.895C671.601 709.806 670.831 708.15 669.373 706.927C667.913 705.662 666.075 705.073 663.858 705.162C661.641 705.25 659.834 705.984 658.437 707.364C657.082 708.699 656.445 710.411 656.529 712.5C656.612 714.589 657.405 716.265 658.907 717.529C660.41 718.793 662.248 719.381 664.422 719.294Z" fill="white"/>
<path d="M418.892 814.335C412.242 814.601 406.989 812.996 403.136 809.52C399.324 806.043 397.286 800.979 397.02 794.328L396.029 769.516L408.691 769.01L409.667 793.439C409.953 800.601 412.931 804.069 418.601 803.842C424.229 803.618 426.899 799.924 426.613 792.762L425.637 768.333L438.108 767.835L439.099 792.647C439.364 799.298 437.715 804.509 434.151 808.281C430.629 812.051 425.543 814.069 418.892 814.335ZM465.091 795.324L460.56 800.565L461.007 811.756L448.473 812.257L446.685 767.492L459.219 766.992L459.963 785.601L476.549 766.299L490.49 765.742L472.993 786.297L493.238 810.468L478.529 811.056L465.091 795.324ZM536.976 808.721L535.9 785.001L525.161 804.774L519.533 804.998L507.341 786.783L508.263 809.868L496.56 810.336L494.772 765.571L505.196 765.155L521.959 790.362L536.275 763.914L546.698 763.497L548.615 808.256L536.976 808.721ZM576.249 762.317C580.299 762.155 583.844 762.696 586.883 763.941C589.92 765.144 592.299 766.97 594.019 769.421C595.738 771.829 596.665 774.717 596.799 778.085C596.934 781.453 596.24 784.406 594.719 786.943C593.198 789.48 590.972 791.491 588.042 792.974C585.111 794.415 581.62 795.216 577.57 795.378L569.768 795.69L570.236 807.393L557.574 807.898L555.786 763.134L576.249 762.317ZM576.404 785.433C579.005 785.329 580.944 784.696 582.221 783.535C583.497 782.331 584.093 780.685 584.009 778.596C583.926 776.507 583.2 774.913 581.833 773.815C580.465 772.717 578.481 772.219 575.88 772.323L568.846 772.604L569.37 785.714L576.404 785.433ZM622.775 760.458C626.825 760.296 630.369 760.838 633.408 762.083C636.445 763.285 638.824 765.112 640.544 767.562C642.263 769.97 643.19 772.858 643.325 776.226C643.459 779.594 642.766 782.547 641.244 785.084C639.723 787.622 637.498 789.632 634.568 791.116C631.636 792.557 628.146 793.358 624.095 793.52L616.294 793.831L616.761 805.534L604.099 806.04L602.311 761.276L622.775 760.458ZM622.93 783.574C625.53 783.47 627.469 782.838 628.746 781.677C630.022 780.473 630.618 778.826 630.535 776.737C630.451 774.648 629.726 773.055 628.358 771.956C626.991 770.858 625.006 770.361 622.406 770.465L615.371 770.746L615.895 783.855L622.93 783.574ZM648.836 759.417L670.004 758.571C674.906 758.376 679.291 759.118 683.159 760.8C687.027 762.482 690.072 764.965 692.296 768.249C694.519 771.534 695.721 775.436 695.902 779.955C696.082 784.474 695.195 788.459 693.241 791.91C691.286 795.362 688.449 798.08 684.728 800.065C681.006 802.049 676.695 803.14 671.792 803.336L650.625 804.181L648.836 759.417ZM670.877 793.252C674.714 793.099 677.74 791.889 679.955 789.623C682.213 787.355 683.265 784.303 683.112 780.466C682.959 776.629 681.666 773.67 679.235 771.589C676.846 769.507 673.733 768.542 669.896 768.696L661.902 769.015L662.883 793.571L670.877 793.252Z" fill="white"/>
<path d="M393.166 677.96C389.543 678.105 386.008 677.798 382.561 677.039C379.115 676.28 376.296 675.197 374.105 673.79L377.889 664.287C379.945 665.529 382.311 666.502 384.987 667.206C387.662 667.911 390.279 668.212 392.837 668.11C397.697 667.916 400.079 666.604 399.982 664.173C399.931 662.894 399.19 661.985 397.759 661.444C396.369 660.859 394.126 660.287 391.029 659.727C387.632 659.137 384.788 658.482 382.496 657.762C380.202 657 378.209 655.734 376.515 653.966C374.822 652.198 373.913 649.757 373.789 646.645C373.68 643.917 374.328 641.435 375.734 639.201C377.137 636.925 379.284 635.088 382.175 633.692C385.108 632.294 388.727 631.509 393.033 631.337C395.975 631.219 398.888 631.444 401.771 632.012C404.653 632.538 407.207 633.397 409.432 634.589L405.907 644.145C401.552 642.013 397.37 641.027 393.363 641.187C390.847 641.288 389.03 641.745 387.909 642.558C386.787 643.329 386.25 644.311 386.298 645.505C386.345 646.699 387.063 647.567 388.451 648.109C389.839 648.651 392.06 649.182 395.112 649.7C398.552 650.289 401.397 650.965 403.648 651.729C405.94 652.449 407.932 653.693 409.626 655.462C411.36 657.186 412.289 659.604 412.413 662.716C412.521 665.402 411.872 667.862 410.466 670.096C409.061 672.33 406.893 674.167 403.961 675.608C401.028 677.006 397.43 677.79 393.166 677.96ZM452.966 657.381C452.97 657.466 452.946 658.471 452.894 660.394L427.699 661.401C428.282 663.171 429.318 664.517 430.806 665.44C432.336 666.318 434.209 666.713 436.426 666.625C438.089 666.558 439.507 666.267 440.682 665.75C441.9 665.232 443.106 664.415 444.3 663.3L450.96 669.695C447.742 673.581 442.893 675.654 436.413 675.913C432.363 676.074 428.772 675.449 425.641 674.037C422.51 672.625 420.038 670.589 418.224 667.928C416.452 665.266 415.497 662.209 415.359 658.755C415.223 655.345 415.911 652.264 417.424 649.514C418.978 646.719 421.173 644.496 424.011 642.845C426.849 641.195 430.079 640.297 433.703 640.152C437.156 640.014 440.319 640.614 443.191 641.951C446.06 643.246 448.36 645.225 450.089 647.888C451.859 650.508 452.818 653.672 452.966 657.381ZM434.112 648.783C432.236 648.858 430.68 649.454 429.444 650.571C428.25 651.686 427.519 653.167 427.251 655.014L441.448 654.447C441.034 652.627 440.166 651.21 438.844 650.195C437.565 649.179 435.988 648.708 434.112 648.783ZM502.998 637.384C507.262 637.214 510.702 638.357 513.32 640.815C515.98 643.271 517.413 647.078 517.619 652.236L518.411 672.061L506.261 672.546L505.548 654.704C505.451 652.274 504.91 650.502 503.926 649.389C502.985 648.273 501.683 647.749 500.02 647.815C498.187 647.889 496.742 648.587 495.685 649.91C494.627 651.233 494.15 653.195 494.254 655.796L494.942 672.998L482.791 673.483L482.078 655.642C481.889 650.909 480.047 648.613 476.551 648.753C474.675 648.828 473.209 649.527 472.151 650.85C471.094 652.173 470.617 654.135 470.721 656.736L471.408 673.938L459.258 674.424L457.873 639.763L469.448 639.301L469.594 642.946C470.817 641.488 472.288 640.383 474.009 639.631C475.771 638.835 477.696 638.395 479.785 638.311C482.215 638.214 484.407 638.575 486.361 639.394C488.316 640.212 489.926 641.515 491.193 643.3C492.488 641.498 494.161 640.086 496.212 639.064C498.264 638.043 500.526 637.483 502.998 637.384ZM539.444 635.928C545.2 635.698 549.644 636.844 552.776 639.367C555.907 641.846 557.581 645.793 557.797 651.208L558.566 670.456L547.247 670.909L547.068 666.432C545.455 669.87 542.111 671.69 537.038 671.893C534.352 672 532.01 671.624 530.011 670.764C528.013 669.905 526.47 668.707 525.384 667.17C524.339 665.589 523.775 663.776 523.694 661.729C523.563 658.447 524.719 655.86 527.163 653.969C529.605 652.035 533.448 650.964 538.692 650.754L545.598 650.478C545.238 646.82 542.714 645.085 538.024 645.272C536.361 645.339 534.689 645.683 533.005 646.305C531.321 646.885 529.9 647.668 528.744 648.653L524.321 640.568C526.189 639.212 528.473 638.139 531.174 637.347C533.917 636.512 536.673 636.039 539.444 635.928ZM540.121 664.084C541.528 664.027 542.75 663.637 543.789 662.912C544.827 662.188 545.555 661.155 545.971 659.815L545.851 656.809L540.607 657.019C537.069 657.16 535.346 658.403 535.44 660.748C535.482 661.814 535.921 662.65 536.757 663.257C537.593 663.864 538.714 664.14 540.121 664.084ZM587.402 634.012C591.707 633.84 595.212 634.981 597.915 637.436C600.66 639.888 602.136 643.693 602.342 648.852L603.134 668.676L590.983 669.161L590.271 651.32C590.082 646.587 588.09 644.297 584.296 644.449C582.207 644.532 580.55 645.282 579.325 646.697C578.144 648.111 577.607 650.182 577.716 652.91L578.385 669.665L566.235 670.15L564.851 635.49L576.425 635.027L576.576 638.8C577.884 637.339 579.462 636.208 581.308 635.409C583.154 634.566 585.185 634.101 587.402 634.012ZM647.159 632.202L648.291 660.531C648.548 666.969 646.993 671.856 643.625 675.193C640.258 678.573 635.292 680.394 628.727 680.656C625.316 680.792 622.103 680.536 619.088 679.888C616.074 679.24 613.492 678.212 611.343 676.803L615.416 668.121C616.869 669.216 618.674 670.041 620.831 670.595C623.032 671.19 625.178 671.446 627.267 671.363C630.464 671.235 632.781 670.438 634.217 668.972C635.653 667.505 636.315 665.386 636.205 662.615L636.159 661.464C633.923 664.286 630.545 665.788 626.026 665.968C622.957 666.091 620.095 665.522 617.439 664.262C614.783 662.959 612.637 661.08 611.001 658.626C609.364 656.129 608.479 653.218 608.347 649.893C608.216 646.61 608.867 643.681 610.301 641.104C611.734 638.485 613.723 636.441 616.269 634.973C618.814 633.462 621.621 632.645 624.69 632.523C629.636 632.325 633.323 633.779 635.753 636.885L635.585 632.664L647.159 632.202ZM628.518 656.197C630.693 656.11 632.457 655.378 633.811 654C635.208 652.62 635.864 650.886 635.781 648.797C635.697 646.708 634.927 645.052 633.469 643.829C632.009 642.564 630.171 641.976 627.954 642.064C625.737 642.153 623.93 642.887 622.533 644.266C621.178 645.601 620.541 647.314 620.625 649.403C620.708 651.492 621.501 653.168 623.003 654.432C624.506 655.695 626.344 656.284 628.518 656.197ZM669.715 630.724C675.471 630.494 679.915 631.64 683.047 634.163C686.178 636.642 687.852 640.589 688.068 646.004L688.837 665.252L677.518 665.705L677.339 661.228C675.726 664.666 672.382 666.486 667.309 666.689C664.623 666.796 662.281 666.42 660.282 665.56C658.284 664.701 656.741 663.503 655.655 661.966C654.61 660.385 654.046 658.572 653.965 656.525C653.834 653.243 654.99 650.656 657.434 648.765C659.876 646.831 663.719 645.76 668.963 645.55L675.869 645.274C675.509 641.616 672.985 639.881 668.295 640.068C666.633 640.135 664.96 640.479 663.276 641.101C661.592 641.681 660.171 642.464 659.015 643.449L654.593 635.364C656.46 634.008 658.744 632.935 661.445 632.143C664.188 631.308 666.944 630.835 669.715 630.724ZM670.392 658.88C671.799 658.823 673.021 658.433 674.06 657.708C675.099 656.984 675.826 655.951 676.242 654.611L676.122 651.605L670.878 651.815C667.34 651.956 665.617 653.199 665.711 655.544C665.753 656.61 666.193 657.446 667.028 658.053C667.864 658.66 668.985 658.936 670.392 658.88ZM720.367 662.584C719.369 663.264 718.131 663.805 716.653 664.205C715.217 664.604 713.668 664.837 712.005 664.903C707.486 665.084 703.967 664.114 701.448 661.994C698.93 659.875 697.583 656.619 697.407 652.228L696.942 640.589L691.89 640.791L691.528 631.71L696.58 631.508L696.219 622.492L708.37 622.006L708.73 631.023L716.66 630.706L717.022 639.787L709.093 640.104L709.553 651.615C709.602 652.851 709.961 653.819 710.629 654.518C711.339 655.173 712.248 655.478 713.356 655.434C714.763 655.378 715.985 654.966 717.022 654.199L720.367 662.584Z" fill="white"/>
<path d="M365.849 946.072C365.409 947.412 364.689 948.622 363.749 949.662C362.589 950.942 361.109 951.972 359.409 952.702C356.339 954.032 352.579 954.372 348.879 953.402L333.269 949.332L317.659 945.262C311.099 943.552 306.879 938.332 307.359 933.002C307.419 932.312 307.559 931.612 307.789 930.932C308.779 927.932 311.159 925.622 314.239 924.302C317.309 922.972 321.069 922.632 324.769 923.602L340.379 927.672L355.989 931.742C363.399 933.672 367.819 940.092 365.849 946.082V946.072Z" fill="#F1F2F2"/>
<path d="M340.369 927.662L338.459 933.472L333.259 949.322L317.649 945.252C311.089 943.542 306.869 938.322 307.349 932.992C307.409 932.302 307.549 931.602 307.779 930.922C308.769 927.922 311.149 925.612 314.229 924.292C317.299 922.962 321.059 922.622 324.759 923.592L340.369 927.662Z" fill="#2B8CC8"/>
<g style="mix-blend-mode:multiply" opacity="0.5">
<path d="M363.749 949.662C362.589 950.942 361.109 951.972 359.409 952.702C356.339 954.032 352.579 954.372 348.879 953.402L333.269 949.332L317.659 945.262C311.099 943.552 306.879 938.332 307.359 933.002C308.519 931.722 310.009 930.682 311.709 929.952C314.779 928.622 318.539 928.282 322.239 929.252L338.469 933.482L353.469 937.392C360.029 939.102 364.249 944.332 363.759 949.662H363.749Z" fill="#2B8CC8"/>
</g>
<path d="M217.81 915.592C218.07 917.042 218.62 918.382 219.44 919.602C220.44 921.092 221.81 922.382 223.45 923.382C226.41 925.212 230.23 926.122 234.18 925.672L250.86 923.812L267.54 921.952C274.55 921.172 279.67 916.432 279.97 910.872C280.01 910.152 279.97 909.412 279.84 908.672C279.27 905.442 277.16 902.702 274.19 900.882C271.23 899.052 267.41 898.142 263.46 898.582L246.78 900.442L230.1 902.302C222.18 903.182 216.67 909.122 217.8 915.582L217.81 915.592Z" fill="#F1F2F2"/>
<path d="M246.79 900.452L247.89 906.722L250.87 923.812L267.55 921.952C274.56 921.172 279.68 916.432 279.98 910.872C280.02 910.152 279.98 909.412 279.85 908.672C279.28 905.442 277.17 902.702 274.2 900.882C271.24 899.052 267.42 898.142 263.47 898.582L246.79 900.442V900.452Z" fill="#2B8CC8"/>
<g style="mix-blend-mode:multiply" opacity="0.5">
<path d="M219.44 919.592C220.44 921.082 221.81 922.372 223.45 923.372C226.41 925.202 230.23 926.112 234.18 925.662L250.86 923.802L267.54 921.942C274.55 921.162 279.669 916.422 279.969 910.862C278.969 909.372 277.59 908.082 275.95 907.072C272.99 905.242 269.169 904.332 265.219 904.772L247.88 906.702L231.86 908.482C224.85 909.262 219.73 914.012 219.44 919.572V919.592Z" fill="#2B8CC8"/>
</g>
<path d="M398.849 932.172C399.109 933.622 399.659 934.962 400.479 936.182C401.479 937.672 402.849 938.962 404.489 939.962C407.449 941.792 411.269 942.702 415.219 942.252L431.899 940.392L448.579 938.532C455.589 937.752 460.709 933.012 461.009 927.452C461.049 926.732 461.009 925.992 460.879 925.252C460.309 922.022 458.199 919.282 455.229 917.462C452.269 915.632 448.449 914.722 444.499 915.162L427.819 917.022L411.139 918.882C403.219 919.762 397.709 925.702 398.839 932.162L398.849 932.172Z" fill="#F1F2F2"/>
<path d="M427.829 917.032L428.929 923.302L431.909 940.392L448.589 938.532C455.599 937.752 460.719 933.012 461.019 927.452C461.059 926.732 461.019 925.992 460.889 925.252C460.319 922.022 458.209 919.282 455.239 917.462C452.279 915.632 448.459 914.722 444.509 915.162L427.829 917.022V917.032Z" fill="#2B8CC8"/>
<g style="mix-blend-mode:multiply" opacity="0.5">
<path d="M400.479 936.172C401.479 937.662 402.85 938.952 404.49 939.952C407.45 941.782 411.269 942.692 415.219 942.242L431.9 940.382L448.579 938.522C455.589 937.742 460.709 933.002 461.009 927.442C460.009 925.952 458.63 924.662 456.99 923.652C454.03 921.822 450.209 920.912 446.259 921.352L428.919 923.282L412.9 925.062C405.89 925.842 400.769 930.592 400.479 936.152V936.172Z" fill="#2B8CC8"/>
</g>
</svg>
