<?xml version="1.0" encoding="UTF-8"?>
<svg id="Layer_1" data-name="Layer 1" xmlns="http://www.w3.org/2000/svg" xmlns:xlink="http://www.w3.org/1999/xlink" viewBox="0 0 2100 900">
  <defs>
    <style>
      .cls-1, .cls-2, .cls-3, .cls-4 {
        stroke-width: 0px;
      }

      .cls-1, .cls-5 {
        fill: none;
      }

      .cls-6 {
        clip-path: url(#clippath);
      }

      .cls-2 {
        fill: #83bc3b;
      }

      .cls-3 {
        fill: #fff;
      }

      .cls-5 {
        stroke: #fff;
        stroke-linecap: round;
        stroke-linejoin: round;
        stroke-width: 3px;
      }

      .cls-4 {
        fill: #2b8cc8;
      }
    </style>
    <clipPath id="clippath">
      <rect class="cls-1" width="2100" height="900"/>
    </clipPath>
  </defs>
  <g class="cls-6">
    <g>
      <g>
        <g>
          <g>
            <path class="cls-4" d="M608.53,202.67c0,30.88-25.04,55.92-55.93,55.92-12.33,0-23.73-4-32.98-10.77-4.66-3.38-8.78-7.5-12.18-12.16-6.77-9.25-10.77-20.65-10.77-32.98,0-30.89,25.04-55.93,55.93-55.93,12.34,0,23.75,3.99,33,10.76,4.66,3.41,8.77,7.52,12.16,12.18,6.77,9.25,10.77,20.65,10.77,33Z"/>
            <path class="cls-3" d="M597.76,169.68l-78.14,78.14c-4.66-3.38-8.78-7.5-12.18-12.16l78.15-78.15c4.66,3.41,8.77,7.52,12.16,12.18Z"/>
          </g>
          <path class="cls-2" d="M710.94,202.66v63.31c0,52.48-42.55,95.03-95.03,95.03h-63.31v-54.31h41.58c34.49,0,62.44-27.95,62.44-62.43v-41.6h54.31Z"/>
          <path class="cls-4" d="M552.6,306.69v54.31h-63.31c-52.48,0-95.03-42.55-95.03-95.03v-63.31h54.31v41.6c0,34.48,27.95,62.43,62.44,62.43h41.58Z"/>
          <path class="cls-2" d="M552.6,44.33v54.31h-41.58c-34.49,0-62.44,27.95-62.44,62.43v41.58h-54.31v-63.3c0-52.48,42.55-95.03,95.03-95.03h63.31Z"/>
          <path class="cls-4" d="M710.94,139.36v63.3h-54.31v-41.58c0-34.48-27.95-62.43-62.44-62.43h-41.58v-54.31h63.31c52.48,0,95.03,42.55,95.03,95.03Z"/>
        </g>
        <g>
          <g>
            <path class="cls-4" d="M608.53,847.84c0,30.88-25.04,55.92-55.93,55.92-12.33,0-23.73-4-32.98-10.77-4.66-3.38-8.78-7.5-12.18-12.16-6.77-9.25-10.77-20.65-10.77-32.98,0-30.89,25.04-55.93,55.93-55.93,12.34,0,23.75,3.99,33,10.76,4.66,3.41,8.77,7.52,12.16,12.18,6.77,9.25,10.77,20.65,10.77,33Z"/>
            <path class="cls-3" d="M597.76,814.85l-78.14,78.14c-4.66-3.38-8.78-7.5-12.18-12.16l78.15-78.15c4.66,3.41,8.77,7.52,12.16,12.18Z"/>
          </g>
          <path class="cls-2" d="M710.94,847.84v63.3c0,52.48-42.55,95.03-95.03,95.03h-63.31v-54.31h41.59c34.49,0,62.44-27.95,62.44-62.43v-41.59h54.31Z"/>
          <path class="cls-4" d="M552.6,951.86v54.31h-63.3c-52.5,0-95.03-42.55-95.03-95.03v-63.3h54.31v41.59c0,34.47,27.95,62.43,62.43,62.43h41.59Z"/>
          <path class="cls-2" d="M552.6,689.5v54.31h-41.59c-34.47,0-62.43,27.95-62.43,62.43v41.6h-54.31v-63.31c0-52.48,42.54-95.03,95.03-95.03h63.3Z"/>
          <path class="cls-4" d="M710.94,784.53v63.31h-54.31v-41.6c0-34.47-27.95-62.43-62.44-62.43h-41.59v-54.31h63.31c52.48,0,95.03,42.55,95.03,95.03Z"/>
        </g>
        <g>
          <g>
            <circle class="cls-4" cx="594.25" cy="571.56" r="30.11"/>
            <circle class="cls-2" cx="669.5" cy="571.56" r="30.11"/>
          </g>
          <g>
            <circle class="cls-2" cx="594.25" cy="644.97" r="30.11"/>
            <circle class="cls-4" cx="669.5" cy="644.97" r="30.11"/>
          </g>
        </g>
        <g>
          <circle class="cls-2" cx="12.68" cy="408.15" r="30.11"/>
          <circle class="cls-4" cx="12.68" cy="481.56" r="30.11"/>
        </g>
        <g>
          <g>
            <circle class="cls-2" cx="1091.69" cy="248.24" r="30.11"/>
            <circle class="cls-4" cx="1166.94" cy="248.24" r="30.11"/>
          </g>
          <g>
            <circle class="cls-4" cx="1091.69" cy="321.65" r="30.11"/>
            <circle class="cls-2" cx="1166.94" cy="321.65" r="30.11"/>
          </g>
        </g>
        <g>
          <g>
            <circle class="cls-2" cx="1257.06" cy="404.88" r="30.11"/>
            <circle class="cls-2" cx="1332.31" cy="404.88" r="30.11"/>
          </g>
          <g>
            <circle class="cls-4" cx="1257.06" cy="478.29" r="30.11"/>
            <circle class="cls-2" cx="1332.31" cy="478.29" r="30.11"/>
          </g>
        </g>
        <g>
          <g>
            <circle class="cls-2" cx="931.16" cy="736.09" r="30.11"/>
            <circle class="cls-4" cx="1006.41" cy="736.09" r="30.11"/>
          </g>
          <g>
            <circle class="cls-4" cx="931.16" cy="809.5" r="30.11"/>
            <circle class="cls-2" cx="1006.41" cy="809.5" r="30.11"/>
          </g>
        </g>
        <circle class="cls-4" cx="20.19" cy="902.65" r="30.11"/>
        <g>
          <circle class="cls-4" cx="436.69" cy="-2.82" r="30.11"/>
          <circle class="cls-2" cx="511.94" cy="-2.82" r="30.11"/>
        </g>
        <g>
          <g>
            <circle class="cls-2" cx="103.94" cy="80.62" r="30.11"/>
            <circle class="cls-4" cx="179.19" cy="80.62" r="30.11"/>
          </g>
          <g>
            <circle class="cls-4" cx="103.94" cy="154.03" r="30.11"/>
            <circle class="cls-2" cx="179.19" cy="154.03" r="30.11"/>
          </g>
        </g>
        <g>
          <path class="cls-4" d="M558.17,655.67c0,10.45-1.2,20.63-3.45,30.38-9.75,2.26-19.93,3.45-30.38,3.45-73.94,0-133.88-59.94-133.88-133.88,0-10.45,1.2-20.63,3.45-30.38,9.75-2.26,19.93-3.45,30.38-3.45,73.94,0,133.88,59.94,133.88,133.88Z"/>
          <path class="cls-2" d="M524.34,361c10.45,0,20.63,1.2,30.38,3.45,2.26,9.75,3.45,19.93,3.45,30.38,0,73.94-59.94,133.88-133.88,133.88-10.45,0-20.63-1.2-30.38-3.45-2.26-9.75-3.45-19.93-3.45-30.38,0-73.94,59.94-133.88,133.88-133.88Z"/>
        </g>
        <g>
          <path class="cls-2" d="M354.94,196.25c10.45,0,20.63,1.2,30.38,3.45,2.26,9.75,3.45,19.93,3.45,30.38,0,73.94-59.94,133.88-133.88,133.88-10.45,0-20.63-1.2-30.38-3.45-2.26-9.75-3.45-19.93-3.45-30.38,0-73.94,59.94-133.88,133.88-133.88Z"/>
          <path class="cls-4" d="M60.26,230.08c0-10.45,1.2-20.63,3.45-30.38,9.75-2.26,19.93-3.45,30.38-3.45,73.94,0,133.88,59.94,133.88,133.88,0,10.45-1.2,20.63-3.45,30.38-9.75,2.26-19.93,3.45-30.38,3.45-73.94,0-133.88-59.94-133.88-133.88Z"/>
        </g>
        <path class="cls-4" d="M30.14-129.97c10.45,0,20.63,1.2,30.38,3.45,2.26,9.75,3.45,19.93,3.45,30.38,0,73.94-59.94,133.88-133.88,133.88-10.45,0-20.63-1.2-30.38-3.45-2.26-9.75-3.45-19.93-3.45-30.38,0-73.94,59.94-133.88,133.88-133.88Z"/>
        <g>
          <path class="cls-2" d="M26.43,857.21c10.45,0,20.63-1.2,30.38-3.45,2.26-9.75,3.45-19.93,3.45-30.38,0-73.94-59.94-133.88-133.88-133.88-10.45,0-20.63,1.2-30.38,3.45-2.26,9.75-3.45,19.93-3.45,30.38,0,73.94,59.94,133.88,133.88,133.88Z"/>
          <path class="cls-4" d="M26.43,528.71c10.45,0,20.63,1.2,30.38,3.45,2.26,9.75,3.45,19.93,3.45,30.38,0,73.94-59.94,133.88-133.88,133.88-10.45,0-20.63-1.2-30.38-3.45-2.26-9.75-3.45-19.93-3.45-30.38,0-73.94,59.94-133.88,133.88-133.88Z"/>
        </g>
        <g>
          <path class="cls-2" d="M1015.35,852.28c10.45,0,20.63,1.2,30.38,3.45,2.26,9.75,3.45,19.93,3.45,30.38,0,73.94-59.94,133.88-133.88,133.88-10.45,0-20.63-1.2-30.38-3.45-2.26-9.75-3.45-19.93-3.45-30.38,0-73.94,59.94-133.88,133.88-133.88Z"/>
          <path class="cls-4" d="M720.68,886.11c0-10.45,1.2-20.63,3.45-30.38,9.75-2.26,19.93-3.45,30.38-3.45,73.94,0,133.88,59.94,133.88,133.88,0,10.45-1.2,20.63-3.45,30.38-9.75,2.26-19.93,3.45-30.38,3.45-73.94,0-133.88-59.94-133.88-133.88Z"/>
        </g>
        <g>
          <g>
            <path class="cls-4" d="M1057.31-88.58c0-9.84,1.13-19.43,3.25-28.62,9.18-2.13,18.78-3.25,28.62-3.25,69.66,0,126.13,56.47,126.13,126.13,0,9.84-1.13,19.43-3.25,28.62-9.18,2.13-18.78,3.25-28.62,3.25-69.66,0-126.13-56.47-126.13-126.13Z"/>
            <path class="cls-4" d="M1333.5,189.03c9.84,0,19.43-1.13,28.62-3.25,2.13-9.18,3.25-18.78,3.25-28.62,0-69.66-56.47-126.13-126.13-126.13-9.84,0-19.43,1.13-28.62,3.25-2.13,9.18-3.25,18.78-3.25,28.62,0,69.66,56.47,126.13,126.13,126.13Z"/>
            <path class="cls-2" d="M1089.19,189.03c-9.84,0-19.43-1.13-28.62-3.25-2.13-9.18-3.25-18.78-3.25-28.62,0-69.66,56.47-126.13,126.13-126.13,9.84,0,19.43,1.13,28.62,3.25,2.13,9.18,3.25,18.78,3.25,28.62,0,69.66-56.47,126.13-126.13,126.13Z"/>
          </g>
          <path class="cls-2" d="M1365.37-88.58c0-9.84-1.13-19.43-3.25-28.62-9.18-2.13-18.78-3.25-28.62-3.25-69.66,0-126.13,56.47-126.13,126.13,0,9.84,1.13,19.43,3.25,28.62,9.18,2.13,18.78,3.25,28.62,3.25,69.66,0,126.13-56.47,126.13-126.13Z"/>
        </g>
        <path class="cls-2" d="M548.94,10.5c0,10.45,1.2,20.63,3.45,30.38,9.75,2.26,19.93,3.45,30.38,3.45,73.94,0,133.88-59.94,133.88-133.88,0-10.45-1.2-20.63-3.45-30.38-9.75-2.26-19.93-3.45-30.38-3.45-73.94,0-133.88,59.94-133.88,133.88Z"/>
        <g>
          <path class="cls-2" d="M1082.71,532.02c-10.45,0-20.63,1.2-30.38,3.45-2.26,9.75-3.45,19.93-3.45,30.38,0,73.94,59.94,133.88,133.88,133.88,10.45,0,20.63-1.2,30.38-3.45,2.26-9.75,3.45-19.93,3.45-30.38,0-73.94-59.94-133.88-133.88-133.88Z"/>
          <path class="cls-4" d="M1377.38,565.85c0-10.45-1.2-20.63-3.45-30.38-9.75-2.26-19.93-3.45-30.38-3.45-73.94,0-133.88,59.94-133.88,133.88,0,10.45,1.2,20.63,3.45,30.38,9.75,2.26,19.93,3.45,30.38,3.45,73.94,0,133.88-59.94,133.88-133.88Z"/>
        </g>
        <g>
          <rect class="cls-4" x="283.43" y="30.55" width="47.86" height="165.69"/>
          <rect class="cls-4" x="283.43" y="30.55" width="47.86" height="165.69" transform="translate(193.96 420.77) rotate(-90)"/>
        </g>
        <g>
          <rect class="cls-2" x="778.16" y="686.59" width="47.86" height="165.69"/>
          <rect class="cls-2" x="778.16" y="686.59" width="47.86" height="165.69" transform="translate(32.65 1571.52) rotate(-90)"/>
        </g>
        <g>
          <rect class="cls-4" x="1104.57" y="361.33" width="47.86" height="165.69"/>
          <rect class="cls-4" x="1104.57" y="361.33" width="47.86" height="165.69" transform="translate(684.32 1572.67) rotate(-90)"/>
        </g>
        <g>
          <path class="cls-2" d="M315.39,881.39c30.88,0,55.92,25.04,55.92,55.93,0,12.33-4,23.73-10.77,32.98-3.38,4.66-7.5,8.78-12.16,12.18-9.25,6.77-20.65,10.77-32.98,10.77-30.89,0-55.93-25.04-55.93-55.93,0-12.34,3.99-23.75,10.76-33,3.41-4.66,7.52-8.77,12.18-12.16,9.25-6.77,20.65-10.77,33-10.77Z"/>
          <path class="cls-3" d="M282.4,892.17l78.14,78.14c-3.38,4.66-7.5,8.78-12.16,12.18l-78.15-78.15c3.41-4.66,7.52-8.77,12.18-12.16Z"/>
        </g>
        <g>
          <path class="cls-4" d="M961.28,558.92c30.88,0,55.92,25.04,55.92,55.93,0,12.33-4,23.73-10.77,32.98-3.38,4.66-7.5,8.78-12.16,12.18-9.25,6.77-20.65,10.77-32.98,10.77-30.89,0-55.93-25.04-55.93-55.93,0-12.34,3.99-23.75,10.76-33,3.41-4.66,7.52-8.77,12.18-12.16,9.25-6.77,20.65-10.77,33-10.77Z"/>
          <path class="cls-3" d="M928.28,569.7l78.14,78.14c-3.38,4.66-7.5,8.78-12.16,12.18l-78.15-78.15c3.41-4.66,7.52-8.77,12.18-12.16Z"/>
        </g>
        <g>
          <path class="cls-4" d="M794.66,235.6c-30.88,0-55.92,25.04-55.92,55.93,0,12.33,4,23.73,10.77,32.98,3.38,4.66,7.5,8.78,12.16,12.18,9.25,6.77,20.65,10.77,32.98,10.77,30.89,0,55.93-25.04,55.93-55.93,0-12.34-3.99-23.75-10.76-33-3.41-4.66-7.52-8.77-12.18-12.16-9.25-6.77-20.65-10.77-33-10.77Z"/>
          <path class="cls-3" d="M827.66,246.38l-78.14,78.14c3.38,4.66,7.5,8.78,12.16,12.18l78.15-78.15c-3.41-4.66-7.52-8.77-12.18-12.16Z"/>
        </g>
        <g>
          <path class="cls-4" d="M140.65-95.46c-30.88,0-55.92,25.04-55.92,55.93,0,12.33,4,23.73,10.77,32.98,3.38,4.66,7.5,8.78,12.16,12.18,9.25,6.77,20.65,10.77,32.98,10.77,30.89,0,55.93-25.04,55.93-55.93,0-12.34-3.99-23.75-10.76-33-3.41-4.66-7.52-8.77-12.18-12.16-9.25-6.77-20.65-10.77-33-10.77Z"/>
          <path class="cls-3" d="M173.64-84.68L95.5-6.54c3.38,4.66,7.5,8.78,12.16,12.18l78.15-78.15c-3.41-4.66-7.52-8.77-12.18-12.16Z"/>
        </g>
        <path class="cls-2" d="M396.89-123.38c0,93.28-75.64,168.92-168.92,168.92V-123.38h168.92Z"/>
        <g>
          <path class="cls-2" d="M957.37,163.37c-.53,0-1.06-.14-1.53-.41-.52-.3-12.76-7.41-25.19-18.12-7.36-6.35-13.24-12.65-17.47-18.72-5.47-7.86-8.22-15.41-8.18-22.46.05-8.2,2.99-15.91,8.27-21.72,5.37-5.9,12.54-9.15,20.19-9.15,9.8,0,18.76,5.49,23.91,14.18,5.16-8.69,14.11-14.18,23.91-14.18,7.22,0,14.11,2.93,19.41,8.26,5.81,5.84,9.11,14.1,9.05,22.65-.04,7.04-2.85,14.58-8.33,22.43-4.24,6.07-10.11,12.36-17.45,18.71-12.38,10.71-24.54,17.83-25.05,18.12-.48.28-1.01.42-1.54.42h0Z"/>
          <polyline class="cls-5" points="906.69 113.6 935.93 113.6 954.48 132.15 969.45 97.48 980.04 121.89 1003.48 121.89"/>
        </g>
        <g>
          <path class="cls-2" d="M802.09,490.15c-.53,0-1.06-.14-1.53-.41-.52-.3-12.76-7.41-25.19-18.12-7.36-6.35-13.24-12.65-17.47-18.72-5.47-7.86-8.22-15.41-8.18-22.46.05-8.2,2.99-15.91,8.27-21.72,5.37-5.9,12.54-9.15,20.19-9.15,9.8,0,18.76,5.49,23.91,14.18,5.16-8.69,14.11-14.18,23.91-14.18,7.22,0,14.11,2.93,19.41,8.26,5.81,5.84,9.11,14.1,9.05,22.65-.04,7.04-2.85,14.58-8.33,22.43-4.24,6.07-10.11,12.36-17.45,18.71-12.38,10.71-24.54,17.83-25.05,18.12-.48.28-1.01.42-1.54.42h0Z"/>
          <polyline class="cls-5" points="751.4 440.38 780.65 440.38 799.2 458.93 814.17 424.26 824.75 448.66 848.2 448.66"/>
        </g>
        <g>
          <path class="cls-4" d="M149.08,814.73c-.53,0-1.06-.14-1.53-.41-.52-.3-12.76-7.41-25.19-18.12-7.36-6.35-13.24-12.65-17.47-18.72-5.47-7.86-8.22-15.41-8.18-22.46.05-8.2,2.99-15.91,8.27-21.72,5.37-5.9,12.54-9.15,20.19-9.15,9.8,0,18.76,5.49,23.91,14.18,5.16-8.69,14.11-14.18,23.91-14.18,7.22,0,14.11,2.93,19.41,8.26,5.81,5.84,9.11,14.1,9.05,22.65-.04,7.04-2.85,14.58-8.33,22.43-4.24,6.07-10.11,12.36-17.45,18.71-12.38,10.71-24.54,17.83-25.05,18.12-.48.28-1.01.42-1.54.42h0Z"/>
          <polyline class="cls-5" points="98.39 764.96 127.64 764.96 146.19 783.51 161.16 748.84 171.75 773.25 195.19 773.25"/>
        </g>
        <g>
          <path class="cls-4" d="M63.72,34.29c0,90.71-73.53,164.25-164.26,164.25s-164.25-73.53-164.25-164.25H63.72Z"/>
          <path class="cls-2" d="M63.72,362.78c0-90.71-73.53-164.25-164.26-164.25s-164.25,73.53-164.25,164.25H63.72Z"/>
        </g>
        <g>
          <path class="cls-4" d="M1046.72,198.53c0,90.71-73.53,164.25-164.25,164.25v-164.25h164.25Z"/>
          <path class="cls-2" d="M882.47,34.29v164.25h-164.25c0-90.71,73.53-164.25,164.25-164.25Z"/>
        </g>
        <g>
          <path class="cls-2" d="M882.47,362.78c90.71,0,164.25,73.53,164.25,164.25h-164.25v-164.25Z"/>
          <path class="cls-4" d="M718.23,527.02h164.25v164.25c-90.71,0-164.25-73.53-164.25-164.25Z"/>
        </g>
        <g>
          <path class="cls-4" d="M227.97,692.96c90.71,0,164.25,73.53,164.25,164.25h-164.25v-164.25Z"/>
          <path class="cls-2" d="M63.72,857.21h164.25v164.25c-90.71,0-164.25-73.53-164.25-164.25Z"/>
        </g>
        <g>
          <path class="cls-2" d="M725.58,23.54c0-87.17,70.2-157.95,157.14-158.88v60.29c-53.65.95-96.86,44.72-96.86,98.59h-60.28Z"/>
          <path class="cls-4" d="M882.47-135.34c90.71,0,164.25,73.53,164.25,164.25h-164.25v-164.25Z"/>
        </g>
        <g>
          <g>
            <path class="cls-4" d="M384.88,369.82c0,87.17-70.2,157.95-157.14,158.88v-60.29c53.65-.95,96.86-44.72,96.86-98.59h60.28Z"/>
            <path class="cls-2" d="M384.88,687.59c0-87.17-70.2-157.95-157.14-158.88v60.29c53.65.95,96.86,44.72,96.86,98.59h60.28Z"/>
          </g>
          <path class="cls-4" d="M227.98,528.71c-90.71,0-164.25,73.53-164.25,164.25h164.25v-164.25Z"/>
          <path class="cls-2" d="M227.98,528.7c-90.71,0-164.25-73.53-164.25-164.25h164.25v164.25Z"/>
        </g>
        <g>
          <path class="cls-2" d="M1366.31,696.42c0,85.59-69.38,154.96-154.97,154.96s-154.96-69.37-154.96-154.96h309.93Z"/>
          <path class="cls-4" d="M1056.37,1006.33c0-85.59,69.38-154.96,154.97-154.96s154.96,69.37,154.96,154.96h-309.93Z"/>
        </g>
        <polygon class="cls-4" points="718.23 527.02 718.23 358.12 549.88 526.46 718.23 527.02"/>
        <path class="cls-4" d="M1223.03,359.83v-63.31c0-52.48,42.55-95.03,95.03-95.03h63.31s0,54.31,0,54.31h-41.58c-34.49,0-62.44,27.95-62.44,62.43v41.6s-54.31,0-54.31,0Z"/>
      </g>
      <g>
        <g>
          <g>
            <path class="cls-4" d="M1491.47,95.02c0,30.88,25.04,55.92,55.93,55.92,12.33,0,23.73-4,32.98-10.77,4.66-3.38,8.78-7.5,12.18-12.16,6.77-9.25,10.77-20.65,10.77-32.98,0-30.89-25.04-55.93-55.93-55.93-12.34,0-23.75,3.99-33,10.76-4.66,3.41-8.77,7.52-12.16,12.18-6.77,9.25-10.77,20.65-10.77,33Z"/>
            <path class="cls-3" d="M1502.24,62.03l78.14,78.14c4.66-3.38,8.78-7.5,12.18-12.16l-78.15-78.15c-4.66,3.41-8.77,7.52-12.16,12.18Z"/>
          </g>
          <path class="cls-2" d="M1389.06,95.01v63.31c0,52.48,42.55,95.03,95.03,95.03h63.31s0-54.31,0-54.31h-41.58c-34.49,0-62.44-27.95-62.44-62.43v-41.6s-54.31,0-54.31,0Z"/>
          <path class="cls-4" d="M1547.4,199.04v54.31s63.31,0,63.31,0c52.48,0,95.03-42.55,95.03-95.03v-63.31s-54.31,0-54.31,0v41.6c0,34.48-27.95,62.43-62.44,62.43h-41.58Z"/>
          <path class="cls-2" d="M1547.4-63.31V-9.01s41.58,0,41.58,0c34.49,0,62.44,27.95,62.44,62.43v41.58s54.31,0,54.31,0V31.71c0-52.48-42.55-95.03-95.03-95.03h-63.31Z"/>
          <path class="cls-4" d="M1389.06,31.71v63.3s54.31,0,54.31,0v-41.58c0-34.48,27.95-62.43,62.44-62.43h41.58s0-54.31,0-54.31h-63.31c-52.48,0-95.03,42.55-95.03,95.03Z"/>
        </g>
        <g>
          <g>
            <path class="cls-4" d="M1491.47,740.2c0,30.88,25.04,55.92,55.93,55.92,12.33,0,23.73-4,32.98-10.77,4.66-3.38,8.78-7.5,12.18-12.16,6.77-9.25,10.77-20.65,10.77-32.98,0-30.89-25.04-55.93-55.93-55.93-12.34,0-23.75,3.99-33,10.76-4.66,3.41-8.77,7.52-12.16,12.18-6.77,9.25-10.77,20.65-10.77,33Z"/>
            <path class="cls-3" d="M1502.24,707.2l78.14,78.14c4.66-3.38,8.78-7.5,12.18-12.16l-78.15-78.15c-4.66,3.41-8.77,7.52-12.16,12.18Z"/>
          </g>
          <path class="cls-2" d="M1389.06,740.2v63.3c0,52.48,42.55,95.03,95.03,95.03h63.31s0-54.31,0-54.31h-41.59c-34.49,0-62.44-27.95-62.44-62.43v-41.59s-54.31,0-54.31,0Z"/>
          <path class="cls-4" d="M1547.4,844.21v54.31s63.3,0,63.3,0c52.5,0,95.03-42.55,95.03-95.03v-63.3s-54.31,0-54.31,0v41.59c0,34.47-27.95,62.43-62.43,62.43h-41.59Z"/>
          <path class="cls-2" d="M1547.4,581.86v54.31s41.59,0,41.59,0c34.47,0,62.43,27.95,62.43,62.43v41.6s54.31,0,54.31,0v-63.31c0-52.48-42.54-95.03-95.03-95.03h-63.3Z"/>
          <path class="cls-4" d="M1389.06,676.89v63.31s54.31,0,54.31,0v-41.6c0-34.47,27.95-62.43,62.44-62.43h41.59s0-54.31,0-54.31h-63.31c-52.48,0-95.03,42.55-95.03,95.03Z"/>
        </g>
        <g>
          <g>
            <circle class="cls-4" cx="1505.75" cy="463.91" r="30.11"/>
            <circle class="cls-2" cx="1430.5" cy="463.91" r="30.11"/>
          </g>
          <g>
            <circle class="cls-2" cx="1505.75" cy="537.32" r="30.11"/>
            <circle class="cls-4" cx="1430.5" cy="537.32" r="30.11"/>
          </g>
        </g>
        <g>
          <circle class="cls-2" cx="2087.32" cy="300.5" r="30.11"/>
          <circle class="cls-4" cx="2087.32" cy="373.91" r="30.11"/>
        </g>
        <g>
          <circle class="cls-4" cx="2079.81" cy="795" r="30.11"/>
          <circle class="cls-2" cx="2079.81" cy="868.41" r="30.11"/>
        </g>
        <g>
          <g>
            <circle class="cls-2" cx="1996.06" cy="-27.03" r="30.11"/>
            <circle class="cls-4" cx="1920.81" cy="-27.03" r="30.11"/>
          </g>
          <g>
            <circle class="cls-4" cx="1996.06" cy="46.38" r="30.11"/>
            <circle class="cls-2" cx="1920.81" cy="46.38" r="30.11"/>
          </g>
        </g>
        <g>
          <path class="cls-4" d="M1541.83,548.03c0,10.45,1.2,20.63,3.45,30.38,9.75,2.26,19.93,3.45,30.38,3.45,73.94,0,133.88-59.94,133.88-133.88,0-10.45-1.2-20.63-3.45-30.38-9.75-2.26-19.93-3.45-30.38-3.45-73.94,0-133.88,59.94-133.88,133.88Z"/>
          <path class="cls-2" d="M1575.66,253.35c-10.45,0-20.63,1.2-30.38,3.45-2.26,9.75-3.45,19.93-3.45,30.38,0,73.94,59.94,133.88,133.88,133.88,10.45,0,20.63-1.2,30.38-3.45,2.26-9.75,3.45-19.93,3.45-30.38,0-73.94-59.94-133.88-133.88-133.88Z"/>
        </g>
        <g>
          <path class="cls-2" d="M1745.06,88.6c-10.45,0-20.63,1.2-30.38,3.45-2.26,9.75-3.45,19.93-3.45,30.38,0,73.94,59.94,133.88,133.88,133.88,10.45,0,20.63-1.2,30.38-3.45,2.26-9.75,3.45-19.93,3.45-30.38,0-73.94-59.94-133.88-133.88-133.88Z"/>
          <path class="cls-4" d="M2039.74,122.43c0-10.45-1.2-20.63-3.45-30.38-9.75-2.26-19.93-3.45-30.38-3.45-73.94,0-133.88,59.94-133.88,133.88,0,10.45,1.2,20.63,3.45,30.38,9.75,2.26,19.93,3.45,30.38,3.45,73.94,0,133.88-59.94,133.88-133.88Z"/>
        </g>
        <g>
          <path class="cls-2" d="M2073.57,749.56c-10.45,0-20.63-1.2-30.38-3.45-2.26-9.75-3.45-19.93-3.45-30.38,0-73.94,59.94-133.88,133.88-133.88,10.45,0,20.63,1.2,30.38,3.45,2.26,9.75,3.45,19.93,3.45,30.38,0,73.94-59.94,133.88-133.88,133.88Z"/>
          <path class="cls-4" d="M2073.57,421.06c-10.45,0-20.63,1.2-30.38,3.45-2.26,9.75-3.45,19.93-3.45,30.38,0,73.94,59.94,133.88,133.88,133.88,10.45,0,20.63-1.2,30.38-3.45,2.26-9.75,3.45-19.93,3.45-30.38,0-73.94-59.94-133.88-133.88-133.88Z"/>
        </g>
        <g>
          <rect class="cls-4" x="1768.71" y="-77.09" width="47.86" height="165.69" transform="translate(3585.27 11.51) rotate(-180)"/>
          <rect class="cls-4" x="1768.71" y="-77.09" width="47.86" height="165.69" transform="translate(1786.88 1798.39) rotate(-90)"/>
        </g>
        <g>
          <path class="cls-2" d="M1784.61,773.75c-30.88,0-55.92,25.04-55.92,55.93,0,12.33,4,23.73,10.77,32.98,3.38,4.66,7.5,8.78,12.16,12.18,9.25,6.77,20.65,10.77,32.98,10.77,30.89,0,55.93-25.04,55.93-55.93,0-12.34-3.99-23.75-10.76-33-3.41-4.66-7.52-8.77-12.18-12.16-9.25-6.77-20.65-10.77-33-10.77Z"/>
          <path class="cls-3" d="M1817.6,784.52l-78.14,78.14c3.38,4.66,7.5,8.78,12.16,12.18l78.15-78.15c-3.41-4.66-7.52-8.77-12.18-12.16Z"/>
        </g>
        <g>
          <path class="cls-4" d="M1950.92,707.08c-.53,0-1.07-.14-1.54-.42-.51-.3-12.67-7.41-25.05-18.12-7.33-6.35-13.2-12.64-17.45-18.71-5.48-7.85-8.29-15.39-8.33-22.43-.05-8.55,3.25-16.81,9.05-22.65,5.29-5.32,12.18-8.26,19.41-8.26,9.8,0,18.76,5.49,23.91,14.18,5.16-8.69,14.11-14.18,23.91-14.18,7.65,0,14.81,3.25,20.19,9.15,5.28,5.8,8.22,13.52,8.27,21.72.04,7.05-2.71,14.61-8.18,22.46-4.23,6.07-10.11,12.37-17.47,18.72-12.42,10.72-24.67,17.83-25.19,18.12-.47.27-1,.41-1.53.41h0Z"/>
          <polyline class="cls-5" points="2001.61 657.31 1972.36 657.31 1953.81 675.86 1938.84 641.19 1928.25 665.6 1904.81 665.6"/>
        </g>
        <g>
          <path class="cls-4" d="M2036.28-73.36c0,90.71,73.53,164.25,164.26,164.25,90.71,0,164.25-73.53,164.25-164.25h-328.51Z"/>
          <path class="cls-2" d="M2036.28,255.14c0-90.71,73.53-164.25,164.26-164.25,90.71,0,164.25,73.53,164.25,164.25h-328.51Z"/>
        </g>
        <g>
          <path class="cls-4" d="M1872.03,585.31c-90.71,0-164.25,73.53-164.25,164.25h164.25s0-164.25,0-164.25Z"/>
          <path class="cls-2" d="M2036.28,749.56h-164.25s0,164.25,0,164.25c90.71,0,164.25-73.53,164.25-164.25Z"/>
        </g>
        <g>
          <g>
            <path class="cls-4" d="M1715.12,262.18c0,87.17,70.2,157.95,157.14,158.88v-60.29c-53.65-.95-96.86-44.72-96.86-98.59h-60.28Z"/>
            <path class="cls-2" d="M1715.12,579.94c0-87.17,70.2-157.95,157.14-158.88v60.29c-53.65.95-96.86,44.72-96.86,98.59h-60.28Z"/>
          </g>
          <path class="cls-4" d="M1872.02,421.06c90.71,0,164.25,73.53,164.25,164.25h-164.25v-164.25Z"/>
          <path class="cls-2" d="M1872.02,421.05c90.71,0,164.25-73.53,164.25-164.25h-164.25s0,164.25,0,164.25Z"/>
        </g>
        <polygon class="cls-4" points="1381.77 419.38 1381.77 250.47 1550.12 418.82 1381.77 419.38"/>
      </g>
    </g>
  </g>
</svg>