<svg xmlns="http://www.w3.org/2000/svg" xmlns:xlink="http://www.w3.org/1999/xlink" viewBox="0 0 1080 1080"><defs><clipPath id="clip-path"><path d="M827,728.72s-11.83-163.63-42.54-201.86c-6.18-7.69-30.27-15.27-52.53-20.88-1.07-.35-2.15-.66-3.25-1a40.2,40.2,0,0,0,22.14-24.5c.29-.92.55-1.87.79-2.82a40.21,40.21,0,0,0-29.57-48.59,39.33,39.33,0,0,0-4.07-.77,23,23,0,0,0-5.3-8.78c7,.5,12.7-7.2,15.43-15.88,2.49-8,2.49-16.75-1.28-20.76.25-2.44.53-5.95.67-10.19.65-18.59-1.25-50.76-20.41-63.71-20.94-14.14-54.33-16-75.87-2.24a51.41,51.41,0,0,0-4.62,3.36c-20.15,16.6-21.21,50.65-20.92,62.59a9.44,9.44,0,0,0-3.35,1.26c-11.14,6.63-4.39,45.23,13.2,37.88a56.17,56.17,0,0,0,18.07,37.49,106,106,0,0,1-.54,15.8c-.15,1.33-.33,2.69-.55,4.07-13.29-17.87-26.27-32-37.56-38.55-9.88-5.73-39-3.87-65.4-.64a80.42,80.42,0,0,0-9.92,1.15l-3.17.58c-3.37.48-6.6,1-9.66,1.43A72,72,0,0,0,487,428.29a50.48,50.48,0,0,0-13.79.3l-.24.07-8.5-14.74a8.06,8.06,0,0,0-2.17-2.46,122.43,122.43,0,0,1-5.49-19.3,64.55,64.55,0,0,0,11-36.31c0-.65,0-1.29,0-1.94a65.5,65.5,0,0,0-.85-8.81c19.27,3.11,19.26-32,9.08-43.15a195.47,195.47,0,0,0-4.05-29.08c-.39-1.73-.8-3.39-1.22-4.92-12.43-45-29.27-34.14-29.27-34.14-37.25-26.87-96.93-7.05-108.72,14-16.75,11.78-22,36.16-11.68,53.81-5.79,11.27-2.32,21,2.66,28.3,3.78,5.56,8.43,9.7,10.55,12.07-8.46,12.24,14.58,50.08,30.32,35a65,65,0,0,0,35.12,32.93s1.57,3.45,3.37,8.66c.87,2.5,1.79,5.44,2.64,8.62A98.51,98.51,0,0,1,407.9,437l-54.51,31.42-13.46,7.76a8.31,8.31,0,0,0-3.83,9.52,8.71,8.71,0,0,0,.77,1.82l3.47,6,8.72,15.14c-5.14,2.33-9.32,5.09-12.18,8.33C300,558.94,270.4,626.8,253.21,672.5c-8.28,22-13.69,38.85-15.68,45.23h0c-.56,1.82-.85,2.78-.85,2.78-4,12-5,22.78-3.78,32.14a41.25,41.25,0,0,0-.5,7.55,42.13,42.13,0,0,0,33.94,40.25l1.53.3a42.17,42.17,0,0,0,31-5.88c12.52-8,26.54-19.54,42.57-34.15,11.86-10.77,24.85-23.25,39.15-37.21L413,832.28,530.12,949.43a60.78,60.78,0,0,0,86,0L776.93,788.58l-.29-4-1.1-15.37a90.77,90.77,0,0,0,17,2.19l0-.06c.5,0,1,.06,1.5.08l32.6-32.6h0A61.56,61.56,0,0,0,827,728.72Z" fill="none"/></clipPath></defs><g style="isolation:isolate"><g id="Layer_1" data-name="Layer 1"><path d="M334.43,835.34A119.83,119.83,0,1,1,214.61,715.51,119.26,119.26,0,0,1,334.43,835.34Z" fill="#2b8cc8"/><path d="M316.94,883.52a118.83,118.83,0,0,1-1.05,15.87A119.85,119.85,0,0,1,95.83,819.46a119.84,119.84,0,0,1,221.11,64.06Z" fill="#2b8cc8" opacity="0.3" style="mix-blend-mode:multiply"/><path d="M1000.46,644.27A138.27,138.27,0,1,1,862.19,506,138.64,138.64,0,0,1,1000.46,644.27Z" fill="#2b8cc8"/><path d="M998.63,666.73a138.28,138.28,0,0,1-272.89,0,138.29,138.29,0,0,1,272.89,0Z" fill="#2b8cc8" opacity="0.3" style="mix-blend-mode:multiply"/><path d="M923.37,554.41s-2.39-4.83-5.89-12.75c-13.1-29.49-41.92-102-22.33-128.44,4.24-5.77,10.78-9.35,20.27-9.85C980.27,400,923.37,554.41,923.37,554.41Z" fill="#83bc3b"/><path d="M917.48,541.66c-13.1-29.49-41.92-102-22.33-128.44a33.33,33.33,0,0,1,7.29-1.14C952.07,409.47,930.39,499.35,917.48,541.66Z" fill="#83bc3b" opacity="0.5" style="mix-blend-mode:multiply"/><path d="M916.15,412.22c9.63,32.37-4.46,65.66,8.77,100.69" fill="none" stroke="#364d51" stroke-linecap="round" stroke-linejoin="round" stroke-width="2"/><path d="M985.9,468c-20.21,39.77-69,85.11-69,85.11a498.25,498.25,0,0,1,4.4-56c6.19-44.93,21.07-98.13,56.78-82.33C999.67,424.38,997.45,445.29,985.9,468Z" fill="#83bc3b"/><path d="M985.9,468c-20.21,39.77-69,85.11-69,85.11a498.25,498.25,0,0,1,4.4-56c8.62-31.55,23.56-56.24,49.39-44.81C979.05,456,983.84,461.45,985.9,468Z" fill="#83bc3b" opacity="0.5" style="mix-blend-mode:multiply"/><path d="M924.39,534.32c10.66-40.62,29.25-67.39,42.34-99.55" fill="none" stroke="#364d51" stroke-linecap="round" stroke-linejoin="round" stroke-width="2"/><path d="M975.16,551.67l-.47,1.38L950.9,623.78A15.37,15.37,0,0,1,933.37,634l-58.79-11.58a14.14,14.14,0,0,1-2.08-.56,15.39,15.39,0,0,1-10.29-15.48l4.89-75.93a15.33,15.33,0,0,1,18.29-14.07l78.18,15.38A15.36,15.36,0,0,1,975.16,551.67Z" fill="#f5f5f5"/><path d="M974.69,553.05,950.9,623.78A15.37,15.37,0,0,1,933.37,634l-58.79-11.58a14.14,14.14,0,0,1-2.08-.56L877,551.46a15.36,15.36,0,0,1,18.31-14.07l78.17,15.38C973.9,552.85,974.29,552.94,974.69,553.05Z" fill="#e5e5e5" style="mix-blend-mode:multiply"/><path d="M866.28,543.08a22.47,22.47,0,0,1,2.48.39c8.84,1.93,16.26,7.66,23.85,12.59s16.29,9.37,25.25,8.16c7.6-1,14.38-6,22-6.31,7.13-.28,13.76,3.54,19.48,7.79,2.94,2.2,5.81,4.57,8.81,6.69" fill="none" stroke="#364d51" stroke-linecap="round" stroke-linejoin="round" stroke-width="2"/><path d="M864.19,575.69c8.1,2.24,15.07,7.55,22.16,12.18,7.56,4.94,16.29,9.35,25.25,8.16,7.6-1,14.38-6,22-6.31,7.13-.3,13.76,3.52,19.47,7.79,1.77,1.31,3.52,2.69,5.27,4" fill="none" stroke="#364d51" stroke-linecap="round" stroke-linejoin="round" stroke-width="2"/><path d="M904.86,660.43c-.91,1.06-1.87,2.09-2.87,3.09l-75.32,75.32-32.61,32.6-178,178a60.77,60.77,0,0,1-86,0L413,832.28,244.22,663.52c-1-1-2-2-2.87-3.09a60.76,60.76,0,0,1,2.87-82.87l91.89-91.88,17.28-17.29,49.79-49.8,64.68-64.68,62.26-62.26a60.78,60.78,0,0,1,86,0L902,577.56A60.78,60.78,0,0,1,904.86,660.43Z" fill="#e5e5e5"/><path d="M904.86,660.43c-.91,1.06-1.87,2.09-2.87,3.09l-75.32,75.32-32.61,32.6-178,178a60.77,60.77,0,0,1-86,0L413,832.28,244.22,663.52c-1-1-2-2-2.87-3.09.91-1,1.87-2.08,2.87-3.08l91.89-91.89,67.07-67.08,64.68-64.69,62.26-62.25a60.77,60.77,0,0,1,86,0L902,657.35C903,658.35,904,659.38,904.86,660.43Z" fill="#e5e5e5" style="mix-blend-mode:multiply"/><text transform="translate(365.41 506.01) rotate(-30.56)" font-size="21.26" fill="#fff" font-family="Montserrat-Bold, Montserrat" font-weight="700"><tspan letter-spacing="-0.01em">C</tspan><tspan x="15.44" y="0">a</tspan><tspan x="28.07" y="0" letter-spacing="-0.01em">r</tspan><tspan x="36.66" y="0" letter-spacing="0em">diology</tspan></text><text transform="translate(661.15 595.9) rotate(6.86)" font-size="26.05" fill="#fff" font-family="Montserrat-Bold, Montserrat" font-weight="700" letter-spacing="-0.01em">S<tspan x="16.44" y="0" letter-spacing="0em">urgery</tspan></text><g clip-path="url(#clip-path)"><path d="M475.3,314.94a69.92,69.92,0,0,1-33.65,25.29c-30.51,9.7-64.24,11.09-96.09,10.52-5.57-.46-7.48-3.29-10.32-7.64-1.34-2-7-6.63-11.42-13.15-5-7.3-8.45-17-2.66-28.3-10.35-17.65-5.07-42,11.68-53.81,11.79-21.09,71.47-40.91,108.72-14,0,0,16.84-10.87,29.27,34.14.42,1.53.83,3.19,1.22,4.92C475.65,288.86,477.56,311.61,475.3,314.94Z" fill="#2e2e2e"/><path d="M475.3,314.94a69.92,69.92,0,0,1-33.65,25.29c-30.51,9.7-64.24,11.09-96.09,10.52-5.57-.46-7.48-3.29-10.32-7.64-1.34-2-7-6.63-11.42-13.15a26.06,26.06,0,0,1,2.95-10.06c-10.34-17.66-5.07-42,11.68-53.81,11.79-21.1,71.47-40.92,108.72-14,0,0,13.22-8.54,24.88,20.83C475.65,288.86,477.56,311.61,475.3,314.94Z" fill="#1a1a1a"/><path d="M384.93,565.76,363,631.35l-15.49,46.28-24.1,72c-18.33,54.67-71.81,51.87-87,16.25-5-11.8-5.85-27.22.24-45.35,0,0,.29-1,.85-2.78h0c6.11-19.64,44.67-138.6,99.35-200.75,3.78-4.28,9.85-7.72,17.43-10.45C391.19,493.22,417,543.27,384.93,565.76Z" fill="#f1f2f2"/><polygon points="430.42 766.95 461.95 958.43 633.13 972.77 756.46 863.23 671.28 673.92 562.61 647.34 430.42 766.95" fill="#2b8cc8"/><path d="M618.6,506.65,679.42,695a781.51,781.51,0,0,1-240.87,93L357,607.69a80.35,80.35,0,0,1,30.7-101.31l24.2-15.1,50.22-.6,37.59-33.31,28.07-5.09A80.36,80.36,0,0,1,618.6,506.65Z" fill="#2b8cc8"/><path d="M610.46,485.58l60.82,188.34c-82.93,58.07-154,79.41-240.86,93L348.85,586.62a80.35,80.35,0,0,1,30.7-101.31l24.2-15.1,50.22-.6,37.6-33.31,28.07-5.09A80.35,80.35,0,0,1,610.46,485.58Z" fill="#2b8cc8"/><path d="M488,435.08a3.48,3.48,0,0,1-1.61.21,45,45,0,0,0-11.71.19,3.51,3.51,0,0,1-1.39-6.89A50.26,50.26,0,0,1,487,428.3a3.52,3.52,0,0,1,.93,6.78Z" fill="#364d51"/><path d="M489.84,440.21,515,466.82l-42.47,69.59L390.58,503.9,400,468.23c11.63-8.46,9.55-27.08,5.85-41a121.09,121.09,0,0,0-6-17.29l26.13-16.51,30.91-1.26a121.94,121.94,0,0,0,5.53,19.39C467.36,424.73,476.07,439.87,489.84,440.21Z" fill="#ffabb1"/><path d="M353.17,341.62s-11.33-9.14-18.52,0c-9.28,11.83,14.27,50.89,30.19,35.23l9.09-17.73Z" fill="#ffabb1"/><path d="M456.38,309.43s4.14-13.95,15.25-10.5c14.37,4.46,17.18,50-4.81,46.15l-17.56-9.43Z" fill="#ffabb1"/><path d="M456.85,392.16a121.94,121.94,0,0,0,5.53,19.39c-1.18,1.59-2.43,3.15-3.76,4.65-5.4,6.05-12,11.11-20,13.61s-16.33,2.09-24.21.17a60,60,0,0,1-8.58-2.76,121.09,121.09,0,0,0-6-17.29l26.13-16.51Z" fill="#e07c88"/><line x1="461.42" y1="332.57" x2="472.69" y2="311.54" fill="none" stroke="#e07c88" stroke-linecap="round" stroke-linejoin="round" stroke-width="2"/><line x1="364.94" y1="365.02" x2="343.88" y2="353.81" fill="none" stroke="#e07c88" stroke-linecap="round" stroke-linejoin="round" stroke-width="2"/><path d="M452.59,296.59,464.88,336c6.77,21.72,2.08,45.62-13.06,62.6-5.39,6-12,11.11-20,13.6s-16.33,2.1-24.21.18C385.49,407,368.05,390,361.28,368.29L349,328.9a54.27,54.27,0,0,1,35.65-68h0A54.26,54.26,0,0,1,452.59,296.59Z" fill="#ffabb1"/><circle cx="382" cy="347.96" r="5.58"/><circle cx="437.81" cy="332.38" r="5.58"/><path d="M442.84,312.58c-5-.91-10.26-1.83-15.2-.57a25.31,25.31,0,0,0-4.6,1.81,2,2,0,0,1-2.84-.83,1.94,1.94,0,0,1,.22-2c2.65-3.68,7.46-5.64,11.92-5.65a21.65,21.65,0,0,1,9.41,2.1c1.56.81,4.73,2.15,3.19,4.4a2,2,0,0,1-2.1.73Z"/><path d="M365.72,329.23a20.26,20.26,0,0,1,16.11-9.85,14.29,14.29,0,0,1,6.57,1.41,1.93,1.93,0,0,1,.94,2.57,2,2,0,0,1-2.13,1.1c-7-1-13.15,3.09-18.49,7.19a2,2,0,0,1-3-2.42Z"/><path d="M408.68,332.17l1.73,13.41L409,348.84a8.25,8.25,0,0,0,3,10.23L414.8,361" fill="none" stroke="#e07c88" stroke-linecap="round" stroke-linejoin="round" stroke-width="2"/><path d="M358.13,345c-.07,2.44-.73,5.46-3.1,6s-4.44-2.05-5.64-4.31l-11.08-21c-1.38-2.61-2.79-5.71-1.56-8.39,3.09-6.75,13.31-1.39,16.62,2.45,2.31,2.68,2.88,7.05,3.53,10.38A67.79,67.79,0,0,1,358.13,345Z" fill="#1a1a1a"/><path d="M431.19,290c-.34,11.35-16.92,9-14.13-2C397,303.21,394,319.21,345.41,330.44,335,332.86,330.06,299.57,331.89,296c4.33-8.44,9.25-16.69,15.8-23.61a133.08,133.08,0,0,1,37.86-24.51A58.17,58.17,0,0,1,436,250.12a50.66,50.66,0,0,1,24.86,58.52c-.93,3.23-2,5.33-3.34,5C446.55,310.4,434.19,301.46,431.19,290Z" fill="#1a1a1a"/><path d="M439.16,367.88c-3.16-10.18-40,1.26-36.86,11.44a19.3,19.3,0,0,0,36.86-11.44Z" fill="#fff"/><polygon points="766.49 866.21 712.88 918.8 628.13 743.1 603.29 691.6 480.8 437.64 570.06 449.06 670.17 661.68 693.93 712.11 766.49 866.21" fill="#f1f2f2"/><path d="M730.38,659.7c-3.74,37.53-53.78,49.16-74.7,1.65l-89.83-182-72.14-25.83-6.43-7.91-6.48-8s94.65-18.27,114.15-7C644,459.15,725,630.81,725,630.81,729.72,641.5,731.22,651.26,730.38,659.7Z" fill="#fff"/><path d="M730.38,659.7c-3.74,37.53-53.78,49.16-74.7,1.65l-89.83-182-72.14-25.83-6.43-7.91c21.67-3.87,91.26-15.28,107.67-5.77C644,468.32,725,640,725,640A64.11,64.11,0,0,1,730.38,659.7Z" fill="#f1f2f2"/><path d="M565.63,509.75a3.52,3.52,0,0,1-4.55-2c-22.75-58.89-56.58-70.67-74.73-72.45a3.51,3.51,0,1,1,.68-7c19.76,1.93,56.51,14.5,80.61,76.91A3.51,3.51,0,0,1,565.63,509.75Z" fill="#364d51"/><polygon points="480.81 437.64 557.7 464.2 552.39 567.89 624.72 637.76 611.59 708.49 480.81 437.64" fill="#d1d3d4"/><rect x="642.74" y="735.43" width="57" height="13.76" transform="translate(-173.01 204.89) rotate(-15.4)" fill="#d1d3d4"/><polygon points="693.93 712.11 628.13 743.1 603.29 691.6 605 672.95 670.17 661.68 693.93 712.11" fill="#d1d3d4"/><polygon points="405.05 462.65 538.86 986.02 453.09 966.89 337.47 578.88 339.01 518.76 405.05 462.65" fill="#f1f2f2"/><polygon points="405.3 463.7 363.61 533.56 434.5 609.43 424.22 709.47 479.84 755.09 405.3 463.7" fill="#d1d3d4"/><rect x="427.12" y="818.71" width="57" height="13.76" transform="translate(-322.07 292.32) rotate(-26.67)" fill="#d1d3d4"/><polygon points="396.56 809.35 497 772.17 536.51 848.86 507.78 962.27 405.33 922.29 396.56 809.35" fill="#a7a9ac" opacity="0.1" style="mix-blend-mode:multiply"/><path d="M546.51,821.25c17.5.82,34-4.06,48.89-18.89" fill="none" stroke="#364d51" stroke-linecap="round" stroke-linejoin="round" stroke-width="2"/><line x1="573.06" y1="817.25" x2="633.13" y2="972.77" fill="none" stroke="#364d51" stroke-linecap="round" stroke-linejoin="round" stroke-width="2"/><path d="M375.18,614.43l8.45,24.69A28.84,28.84,0,0,0,410,658.6" fill="none" stroke="#fff" stroke-linecap="round" stroke-linejoin="round" stroke-width="2"/><path d="M444.84,587.53l10.33,24A28.82,28.82,0,0,1,448,644.34" fill="none" stroke="#fff" stroke-linecap="round" stroke-linejoin="round" stroke-width="2"/><path d="M420.36,663.05a4.93,4.93,0,0,1-1.63.33l-6.64.24c-.75,0-1.52,0-2.29,0a5,5,0,0,1,.32-10h1.62l6.63-.24a5,5,0,0,1,2,9.71Z" fill="#364d51"/><path d="M444.06,653.89a5,5,0,0,1-5.05-8.52l5.07-4.29.54-.47a5,5,0,1,1,6.72,7.47l-.77.67L445.5,653A4.92,4.92,0,0,1,444.06,653.89Z" fill="#364d51"/><path d="M448.43,597.19a4,4,0,0,1-5.19-2.3c-.07-.17-2.79-7-15.92-34-.13-.26-.25-.51-.38-.75-8.72-17-25.56-19.65-38.38-14.7S365,563.67,370,582.13c.07.27.15.54.23.81,8.47,29,11,35.81,11.06,35.87A4,4,0,0,1,379,624h0a4,4,0,0,1-5.19-2.3c-.1-.26-2.63-6.9-11.28-36.51l-.27-1C356,561.06,370,544,385.66,538s37.5-2.83,48.43,18.53l.45.91c13.51,27.73,16.09,34.34,16.19,34.6A4,4,0,0,1,448.43,597.19Z" fill="#364d51"/><path d="M388.56,545.45l-.25.09a4,4,0,0,1-5-2.64c-9.28-29.66-9-53.18.73-69.92,7.58-13,18.24-16.72,18.69-16.88a4,4,0,0,1,2.59,7.61c-1.47.52-34.29,13-14.34,76.79A4,4,0,0,1,388.56,545.45Z" fill="#364d51"/><circle cx="452.16" cy="348.74" r="9.33" fill="#e07c88"/><circle cx="382.13" cy="369.09" r="9.33" fill="#e07c88"/><path d="M336.88,487.49l3.46,6,62.91,109.13,30.41,52.78A8.31,8.31,0,0,0,445,658.47l23.55-13.58,25.53-14.7,54.34-31.32,9.83-5.67a8.31,8.31,0,0,0,3-11.35l-9.25-16.05-24.63-42.72-3.22-5.59L464.52,413.93a8.32,8.32,0,0,0-11.35-3.06L339.93,476.15A8.3,8.3,0,0,0,336.88,487.49Z" fill="#83bc3b"/><circle cx="450.54" cy="540" r="52.95" fill="#83bc3b" opacity="0.7" style="mix-blend-mode:multiply"/><path d="M455.22,521a29.91,29.91,0,0,1,3-2.37,3.78,3.78,0,0,0-4-6.37,28,28,0,0,0-3.35,2.21,12.23,12.23,0,0,0-16.28.69l0-.07a4.94,4.94,0,1,0-9.31,3.3l4.4,12.23a12.12,12.12,0,0,0-5.37,9.86,33.48,33.48,0,0,0,8.45,23.26,2.44,2.44,0,0,0,3.18.42,26.71,26.71,0,0,0,3.23,2.63c8.56,6,21.62,6.46,31.09,1.86,5.12-2.49,8-9,5.05-13.91-4.53-7.65-5.15-15.95-6.58-22.45C466.3,521.7,460,520.22,455.22,521Z" fill="#ff6d7a"/><path d="M470.17,568.69c-9.47,4.6-22.53,4.1-31.09-1.86a27.48,27.48,0,0,1-3.23-2.63,2.36,2.36,0,0,0,1.1-2.12,1.75,1.75,0,0,1,2.63-1.6c8.79,5.12,20.79,5.08,29.49.86a11.3,11.3,0,0,0,4.1-3.4,1.75,1.75,0,0,1,3.14,1,10.64,10.64,0,0,1-6.14,9.78Z" fill="#ff8c95"/><path d="M450.82,514.51a30.1,30.1,0,0,0-2.64,2.23A1.2,1.2,0,0,1,447,517,12,12,0,0,0,437,518a1.16,1.16,0,0,1-1.67-.63l-.8-2.21A12.23,12.23,0,0,1,450.82,514.51Z" fill="#ff8c95"/><path d="M465.55,538.92a1.16,1.16,0,0,1-1.47.74,4.71,4.71,0,0,0-3.7.3c1.16,4.84,1,9.65,5.07,11.09a1.17,1.17,0,1,1-.78,2.2,7.78,7.78,0,0,1-4.72-4.81c-1.79.79-3.57,1.26-2.71,4.13a1.16,1.16,0,1,1-2.23.67,6.58,6.58,0,0,1-.3-2.34,5.44,5.44,0,0,1-3.17-3.91,1.17,1.17,0,0,1,.9-1.38,1.15,1.15,0,0,1,1.38.89,3.08,3.08,0,0,0,1.64,2.17c.91-1.35,2.38-1.85,3.8-2.47-1.14-4.79-1.06-10-5.52-12.34a7.86,7.86,0,0,0,.64-2.25,1.21,1.21,0,0,1,.3.11,10.42,10.42,0,0,1,5,6,7,7,0,0,1,5.1-.24,1.15,1.15,0,0,1,.73,1.47Z" fill="#e84857"/><path d="M449.71,556.06a6.69,6.69,0,0,1-4.35,2,15.5,15.5,0,0,1,.27,2.73,1.17,1.17,0,0,1-2.33,0,13.17,13.17,0,0,0-3.24-8.61,19.47,19.47,0,0,1,1.77-1.52,15,15,0,0,1,2.92,5,4.42,4.42,0,0,0,3.3-1.32,1.16,1.16,0,1,1,1.66,1.63Z" fill="#e84857"/><path d="M462.82,566.37a17.18,17.18,0,0,1-10.14.57,1.17,1.17,0,0,1,.59-2.26,15.22,15.22,0,0,0,10.41-1.2,1.17,1.17,0,0,1,1.07,2.07,15.73,15.73,0,0,1-1.93.82Z" fill="#fff"/><path d="M458.25,512.53a3.77,3.77,0,0,1,0,6.14,29.91,29.91,0,0,0-3,2.37,12.31,12.31,0,0,0-5.67,2.4,12.88,12.88,0,0,0-6.16-1,31.62,31.62,0,0,1,10.78-10.15A3.77,3.77,0,0,1,458.25,512.53Z" fill="#e84857"/><path d="M457.51,514.16a32.41,32.41,0,0,0-9,8.13,1.18,1.18,0,0,1-1.18.44,13,13,0,0,0-3.95-.28,31.61,31.61,0,0,1,10.78-10.15,3.79,3.79,0,0,1,3.18-.25A1.17,1.17,0,0,1,457.51,514.16Z" fill="#ea5a68"/><path d="M449.55,523.44a12.32,12.32,0,0,0-11.72,1l-3.33-9.28a4.94,4.94,0,1,0-9.31,3.3l4.4,12.23a12.76,12.76,0,0,1,4.28-1.86,12,12,0,0,1,14.5,9.39,7.73,7.73,0,0,0,1.18-14.75Z" fill="#80aaff"/><path d="M451.06,524.24a1.17,1.17,0,0,1-.92,2.1A12,12,0,0,0,440,528.51a1.18,1.18,0,0,1-1,.22,12.39,12.39,0,0,0-5.18.07,11.93,11.93,0,0,1,9.52-6.35,12.65,12.65,0,0,1,7.67,1.79Z" fill="#9cbcff"/><path d="M428.26,512.09a2.06,2.06,0,0,1,2.41,3,5,5,0,0,0-.48,4.28l2.69,7.49a2.06,2.06,0,0,1-1.13,2.59,12.51,12.51,0,0,0-2.16,1.17l-4.4-12.23a5,5,0,0,1,3.07-6.34Z" fill="#9cbcff"/><path d="M445.47,532.46A11.28,11.28,0,0,1,448.19,543c-2.7,9-11.67,6.12-11.24,19.1a2.45,2.45,0,0,1-4.28,1.7,33.48,33.48,0,0,1-8.45-23.26C424.51,529.53,438.09,524.31,445.47,532.46Z" fill="#ff8c95"/><path d="M439.82,528.92a1.31,1.31,0,0,1,.27,2.4,12.13,12.13,0,0,0-6.17,10.36A33.83,33.83,0,0,0,437.11,557c.39.83-.29,1.17-.16,5.09a2.45,2.45,0,0,1-4.28,1.7,33.48,33.48,0,0,1-8.45-23.26,12.38,12.38,0,0,1,15.6-11.6Z" fill="#ff8c95"/><polygon points="364.24 630.48 347.49 677.63 328.68 730.56 286.84 678.22 362.98 631.35 364.24 630.48" fill="#d1d3d4"/><path d="M386.68,592.41s54.05-60.65,59.33-57.92-1.95,11.9,3.56,15.66,11.56,2,10.84,8.28-1.19,8.82.93,9.26c7.7,1.58,10.19,4.31,10.87,7.59.77,3.65-1.23,7.62,3.72,14.7,3,4.28-38.89,47.74-38.89,47.74l-29.12-14.13Z" fill="#ffabb1"/><path d="M370,654.64l32.07,26.91,25-31.68,9.62-12.18-25.3-52.62-30.91-21.82c-7.63,3.61.71,18.25,2.16,40.92.63,9.82-18.31,27.75-18.31,27.75Z" fill="#ffabb1"/><polygon points="370.04 654.64 402.11 681.55 427.13 649.87 364.39 631.92 370.04 654.64" fill="#e07c88"/><path d="M414.17,690.55l-6.2,6.08c-47.29,46.43-81.74,80.71-109.12,98.24a42.17,42.17,0,0,1-31,5.88l-1.53-.3a42.15,42.15,0,0,1-19.21-73.37l114-97.63C387.94,649.48,403.94,669.91,414.17,690.55Z" fill="#fff"/><path d="M408,696.63c-47.29,46.43-81.74,80.71-109.12,98.24a42.17,42.17,0,0,1-31,5.88l-1.53-.3a42.15,42.15,0,0,1-25.55-66.6c.86-.76,1.75-1.49,2.68-2.17l120.62-89.39C385.3,660.62,399,678.7,408,696.63Z" fill="#f1f2f2"/><line x1="448.34" y1="548.96" x2="430.93" y2="566.89" fill="none" stroke="#e07c88" stroke-linecap="round" stroke-linejoin="round" stroke-width="2"/><line x1="460.18" y1="566.89" x2="443.9" y2="581.5" fill="none" stroke="#e07c88" stroke-linecap="round" stroke-linejoin="round" stroke-width="2"/><line x1="471.35" y1="582.58" x2="455.07" y2="597.19" fill="none" stroke="#e07c88" stroke-linecap="round" stroke-linejoin="round" stroke-width="2"/><path d="M340.3,647.31s38.83,27.77,52.67,64.06" fill="none" stroke="#364d51" stroke-linecap="round" stroke-linejoin="round" stroke-width="2"/><text transform="matrix(0.85, -0.53, 0.53, 0.85, 366.88, 513.64)" font-size="21.26" fill="#fff" font-family="Montserrat-Bold, Montserrat" font-weight="700"><tspan letter-spacing="-0.01em">C</tspan><tspan x="15.44" y="0">a</tspan><tspan x="28.07" y="0" letter-spacing="-0.01em">r</tspan><tspan x="36.66" y="0" letter-spacing="0em">diology</tspan></text><path d="M727.5,372.74c-.29,8.28-1.08,13.86-1.08,13.86l-19.17,1.16-36.69-32.23-34.67-15.36c-5.26,10.89-9.22,25.45-12.62,41.59A52.22,52.22,0,0,1,605.88,377s0-.53-.1-1.48v0c-.42-8.18-1.2-47.19,20.81-65.33,21.1-17.38,58-16.32,80.5-1.12C726.25,322,728.15,354.15,727.5,372.74Z" fill="#2e2e2e"/><path d="M727.5,372.74c-.29,8.28-1.08,13.86-1.08,13.86l-19.17,1.16-36.69-32.23-34.67-15.36c-5.26,10.89-9.22,25.45-12.62,41.59A52.22,52.22,0,0,1,605.88,377s0-.53-.1-1.48v0c.71-15.32,4.52-40.2,20.81-53.64,21.1-17.38,58-16.33,80.5-1.13C722.65,331.23,726.83,354.45,727.5,372.74Z" fill="#1a1a1a"/><polygon points="547.09 746.75 512.89 910.97 646.44 975.83 780 925.92 770.27 746.75 690.92 691.48 547.09 746.75" fill="#2b8cc8"/><g opacity="0.4" style="mix-blend-mode:multiply"><path d="M779.88,595.48l-9.61,170.79a675.2,675.2,0,0,1-223.18,0l-9.61-170.79a69.46,69.46,0,0,1,56.3-72.13L618,518.71l40.68,15.16,40.69-15.16,24.21,4.64A69.44,69.44,0,0,1,779.88,595.48Z" fill="#2b8cc8"/></g><path d="M779.88,576l-9.61,170.79c-84.95,21-148.87,16.09-223.18,0L537.48,576a69.46,69.46,0,0,1,56.3-72.13L618,499.19l40.68,15.15,40.69-15.15,24.21,4.64A69.44,69.44,0,0,1,779.88,576Z" fill="#2b8cc8"/><path d="M751.61,477.71c-.23,1-.49,1.9-.79,2.82a40.3,40.3,0,1,1,.79-2.82Z" fill="#1a1a1a"/><path d="M750.82,480.53a40.23,40.23,0,0,1-73.92,6.32,40.23,40.23,0,0,1,73.92-6.32Z" fill="#1a1a1a"/><path d="M718,442.77a23,23,0,1,1-43.6-14.48c.2-.6.42-1.19.67-1.76h0A23,23,0,0,1,718,442.77Z" fill="#83bc3b"/><g opacity="0.7" style="mix-blend-mode:multiply"><path d="M710.19,452.46q-.3.9-.66,1.74a23,23,0,0,1-35.17-25.91c.2-.6.42-1.19.67-1.76h0a23,23,0,0,1,35.16,25.94Z" fill="#83bc3b"/></g><path d="M696.84,497.08a3.06,3.06,0,0,1-1.37-.32,39.15,39.15,0,0,0-9.5-3.5,3,3,0,0,1,1-6,43.51,43.51,0,0,1,11.2,4.06,3,3,0,0,1-1.36,5.75Z" fill="#364d51"/><polygon points="500.08 852.75 498.12 864.46 491.45 929.4 443.87 876.56 447.54 855.1 453.5 820.26 473.51 824.77 500.08 852.75" fill="#ffabb1"/><path d="M500.08,852.75l-2,11.71c-20.3-.27-36.68-3.8-50.58-9.36l6-34.84,20,4.51Z" fill="#e07c88"/><path d="M621.4,493.49,618.45,503l-4,12.75L558.76,551.5,532.94,687.85c-.24,1.25-.51,2.45-.8,3.62v0l-32,161.23c-22.08.25-39.67-3.22-54.47-9-3.27-1.28-6.39-2.66-9.4-4.15l32.38-164S484.17,575.49,520,521.56C534.59,499.49,621.4,493.49,621.4,493.49Z" fill="#fff"/><path d="M618.45,503l-4,12.75L558.76,551.5,532.94,687.85c-.24,1.25-.51,2.45-.8,3.62v0l-32,161.23c-22.08.25-39.67-3.22-54.47-9L477.16,684S492.73,583.91,528.51,530C539.83,512.91,594.34,505.46,618.45,503Z" fill="#f1f2f2"/><path d="M696.75,501.8l12,29.29L652.81,574l-55.92-51.72,18.68-25.84c12-3.19,16.13-18.86,17.49-31.24a105.25,105.25,0,0,0,.53-15.81l26.22-5.18,25.31,8.61a105.48,105.48,0,0,0-1.58,17.36C683.45,482.33,685.76,497.25,696.75,501.8Z" fill="#ffabb1"/><path d="M617.26,379.75S611,368.86,602.33,374c-11.18,6.65-4.34,45.48,13.36,37.82l12.86-11.47Z" fill="#ffabb1"/><path d="M710.51,386s7.68-10,15.56-3.73c10.2,8.07-1.71,45.65-18.25,35.72L696.6,404.87Z" fill="#ffabb1"/><path d="M685.12,452.79a105.48,105.48,0,0,0-1.58,17.36c-1.44.92-2.94,1.79-4.48,2.58-6.24,3.2-13.14,5.21-20.37,4.74s-13.82-3.4-19.57-7.4a52.52,52.52,0,0,1-6.06-4.9,105.25,105.25,0,0,0,.53-15.81l26.22-5.18Z" fill="#e07c88"/><line x1="707.37" y1="406.17" x2="723" y2="392.72" fill="none" stroke="#e07c88" stroke-linecap="round" stroke-linejoin="round" stroke-width="2"/><line x1="619.46" y1="402.28" x2="605.97" y2="386.69" fill="none" stroke="#e07c88" stroke-linecap="round" stroke-linejoin="round" stroke-width="2"/><path d="M711.45,374.41,709.08,410a56.18,56.18,0,0,1-30,46.41c-6.23,3.2-13.14,5.21-20.37,4.73s-13.82-3.39-19.57-7.39a56.19,56.19,0,0,1-23.63-50l2.37-35.59a46.89,46.89,0,0,1,49.9-43.69h0A46.9,46.9,0,0,1,711.45,374.41Z" fill="#ffabb1"/><path d="M635.88,340.17a185.88,185.88,0,0,0,4.31,39.11,477.69,477.69,0,0,0,67.58,4.49c3.21-8,5.92-18.54,8.48-29.86L711.92,335l-46-24.85L639.33,317Z" fill="#1a1a1a"/><circle cx="638.53" cy="393.84" r="4.82"/><circle cx="688.38" cy="398.66" r="4.82"/><path d="M689,396.22a11.84,11.84,0,0,0,8.35-4.75" fill="none" stroke="#000" stroke-linecap="round" stroke-linejoin="round" stroke-width="2"/><path d="M698.42,384.44c-4.61-3.45-10.18-6.29-16.07-5.09a2,2,0,0,1-1.43-3.59c5.19-3,11.88-1.31,16.37,2.18a19.2,19.2,0,0,1,4,3.89,1.93,1.93,0,0,1-.39,2.7,2,2,0,0,1-2.44-.09Z"/><path d="M631.11,373.45c4.71-3.11,10.7-4.55,16.21-2.78a13.33,13.33,0,0,1,5,3.06,1.93,1.93,0,0,1,.08,2.72,2,2,0,0,1-2.52.27,15.79,15.79,0,0,0-3.88-1.59c-4.28-1-8.91.15-13,1.66a1.94,1.94,0,0,1-1.92-3.34Z"/><path d="M665,389.42l-2.78,11.35L660,403a7.14,7.14,0,0,0-.77,9.19l1.71,2.39" fill="none" stroke="#e07c88" stroke-linecap="round" stroke-linejoin="round" stroke-width="2"/><path d="M645.05,424.17s12.73,18.13,33.38,1.91" fill="none" stroke="#e07c88" stroke-linecap="round" stroke-linejoin="round" stroke-width="2"/><path d="M440.29,819s38.09,18.41,63.82,13.5" fill="none" stroke="#364d51" stroke-linecap="round" stroke-linejoin="round" stroke-width="2"/><path d="M635.88,340.17c-5.25,10.89-9.2,25.45-12.61,41.59l-.18,0A16.29,16.29,0,0,1,609.2,360.9c3.52-12.07,10.6-28.42,24.51-39.89l36.85,34.52Z" fill="#1a1a1a"/><path d="M722.83,824.53,538.71,964.86l9.48,52s180.76,4.08,193,4.08,41.45-65.23,41.45-65.23Z" fill="#2b8cc8" opacity="0.4" style="mix-blend-mode:multiply"/><polygon points="787.15 931.45 727.55 957.16 713.94 789.1 709.94 739.83 690.27 496.93 758.68 533.92 773.19 736.54 776.64 784.6 787.15 931.45" fill="#f1f2f2"/><path d="M820.88,756.32v0c-16,26-57.25,18.83-59.27-24.58L745.85,557.05l-50.12-43.28-2-6.23-3.44-10.62s82,14.75,94.2,29.94C815.18,565.09,827,728.72,827,728.72,827.55,740.21,825.1,749.43,820.88,756.32Z" fill="#fff"/><path d="M820.88,756.32v0c-16,26-57.25,18.83-59.27-24.58L745.85,557.05l-50.12-43.28-2-6.23c20.53,4.06,76.75,16.13,86.68,28.49,30.7,38.24,42.55,201.86,42.55,201.86A54.65,54.65,0,0,1,820.88,756.32Z" fill="#f1f2f2"/><path d="M736.21,581.48a3,3,0,0,1-3-3c0-54.56-23.62-74.6-37.7-81.68a3,3,0,1,1,2.73-5.43c15.33,7.71,41,29.29,41,87.11A3,3,0,0,1,736.21,581.48Z" fill="#364d51"/><polygon points="690.27 496.93 744 542.28 707.43 624.23 743.99 703.1 711.38 756.03 690.27 496.93" fill="#d1d3d4"/><rect x="724.31" y="795.94" width="49.27" height="11.89" transform="translate(83.63 -70.64) rotate(5.72)" fill="#d1d3d4"/><polygon points="776.64 784.6 713.94 789.1 709.94 739.83 717.13 725.33 773.19 736.54 776.64 784.6" fill="#d1d3d4"/><polygon points="621.4 493.5 570.13 924.97 562.21 991.67 492.47 943.33 505.17 852.06 544.45 569.56 550.67 518.18 621.4 493.5" fill="#f1f2f2"/><polygon points="621.27 494.43 565.91 537.77 599.44 621.01 560 698.48 590.63 752.58 621.27 494.43" fill="#d1d3d4"/><rect x="524.52" y="795.94" width="49.27" height="11.89" transform="translate(-74.98 56.87) rotate(-5.55)" fill="#d1d3d4"/><line x1="527.14" y1="714.18" x2="503.11" y2="708.18" fill="none" stroke="#364d51" stroke-linecap="round" stroke-linejoin="round" stroke-width="2"/><polygon points="570.13 924.97 562.21 991.67 492.47 943.33 505.17 852.06 570.13 924.97" fill="#d1d3d4"/><path d="M623.79,826.69c13.85,6.11,28.7,7.32,45.3,0" fill="none" stroke="#364d51" stroke-linecap="round" stroke-linejoin="round" stroke-width="2"/><line x1="646.44" y1="831.73" x2="646.44" y2="975.83" fill="none" stroke="#364d51" stroke-linecap="round" stroke-linejoin="round" stroke-width="2"/><path d="M550.05,606.58l-.88,22.54A24.93,24.93,0,0,0,564.34,653" fill="none" stroke="#fff" stroke-linecap="round" stroke-linejoin="round" stroke-width="2"/><path d="M614.59,606.58l.87,22.54a24.92,24.92,0,0,1-16,24.25" fill="none" stroke="#fff" stroke-linecap="round" stroke-linejoin="round" stroke-width="2"/><path d="M571.34,659.85a4.41,4.41,0,0,1-1.42-.24l-5.43-1.88c-.61-.22-1.23-.45-1.84-.71a4.34,4.34,0,1,1,3.38-8c.43.18.86.35,1.31.5l5.42,1.88a4.35,4.35,0,0,1-1.42,8.45Z" fill="#364d51"/><path d="M593.3,659.85a4.35,4.35,0,0,1-1.42-8.45l5.42-1.88c.2-.06.4-.14.59-.21a4.34,4.34,0,0,1,3.09,8.11l-.83.31-5.43,1.88A4.41,4.41,0,0,1,593.3,659.85Z" fill="#364d51"/><path d="M614.48,615.49A3.48,3.48,0,0,1,611,612c0-.16-.06-6.53-2.25-32.37,0-.25,0-.49-.07-.72-1.73-16.45-14.49-23.81-26.37-23.81s-24.65,7.36-26.37,23.8c0,.25-.05.49-.07.73-2.21,26.05-2.25,32.31-2.25,32.37a3.48,3.48,0,0,1-3.47,3.46h0a3.47,3.47,0,0,1-3.47-3.47c0-.24,0-6.38,2.28-33,0-.29,0-.58.08-.87,2.16-20.62,18.77-30,33.28-30s31.11,9.39,33.28,30c0,.28.06.58.08.87,2.25,26.56,2.28,32.7,2.28,32.94A3.48,3.48,0,0,1,614.48,615.49Z" fill="#364d51"/><path d="M582.32,555.12h-.23a3.49,3.49,0,0,1-3.24-3.7c1.76-26.8,9.29-45.69,22.37-56.15,10.16-8.12,19.91-7.8,20.32-7.79a3.48,3.48,0,0,1-.27,6.95c-1.35,0-31.71-.18-35.49,57.45A3.46,3.46,0,0,1,582.32,555.12Z" fill="#364d51"/><path d="M656.56,620.68s-10.47-3.29-16.92,1.92-8.95,9.29-16.2,10.65-11.3,8.49-10.24,17.55-3.35,9.63-2.44,16,1.45,5.32-.13,9.17,1.49,8,5.9,10.31,11.21,6.34,11.21,6.34l24.81-6,1.81-50.4Z" fill="#ffabb1"/><polygon points="777.45 643.51 798.58 704.28 764.31 697.42 758.68 666.86 777.45 643.51" fill="#d1d3d4"/><rect x="646.09" y="556.52" width="138.63" height="198.03" rx="9" transform="matrix(0.99, 0.15, -0.15, 0.99, 103.77, -97.74)" fill="#fff"/><path d="M788.73,574.2l-1,6.47L770.4,697.93,762,754.63a7.83,7.83,0,0,1-8.88,6.59l-25.3-3.75-27.42-4.06L642,744.76l-10.56-1.56a7.81,7.81,0,0,1-6.59-8.88l2.55-17.25,6.81-45.9.88-6,16.48-111.28a7.83,7.83,0,0,1,8.88-6.59l121.67,18A7.81,7.81,0,0,1,788.73,574.2Z" fill="#83bc3b"/><circle cx="708.15" cy="664.05" r="47.64" fill="#83bc3b" opacity="0.7" style="mix-blend-mode:multiply"/><circle cx="696.87" cy="651.7" r="18.68" fill="#ff6d7a"/><path d="M706.28,652.53a2.46,2.46,0,0,1-2.66,2.23l-4.52-.4-.4,4.52a2.45,2.45,0,0,1-4.89-.43l.4-4.52-4.53-.39a2.46,2.46,0,0,1,.43-4.9l4.52.4.4-4.52a2.45,2.45,0,0,1,4.32-1.37,2.43,2.43,0,0,1,.57,1.8l-.39,4.52,4.52.39A2.46,2.46,0,0,1,706.28,652.53Z" fill="#e84857"/><path d="M739.38,641.05a2.47,2.47,0,0,0-3.74-.86L681.8,682.6c-5.53,4.36,1,12.66,6.54,8.31l21.18-16.69a2.46,2.46,0,0,0,.41-3.46l-1.75-2.22,3.87-3,3.65,4.64a2.46,2.46,0,0,0,3.46.41l16.35-12.88a13.66,13.66,0,0,0,3.87-16.62Z" fill="#eef7ff"/><path d="M733.52,641.86a9.07,9.07,0,0,1-1.79,12.37L714.1,668.11l-2.05-2.61-3.87,3-1.74-2.21a2.46,2.46,0,0,0-3.46-.41Z" fill="#b5d5f5"/><path d="M732.85,646.45l-26,20.45-.45-.57a2.46,2.46,0,0,0-3.46-.41l30.54-24.06A3.36,3.36,0,0,1,732.85,646.45Z" fill="#cbe3fa"/><path d="M709.93,670.76l-3.49-4.43a2.46,2.46,0,0,0-3.46-.41L681.8,682.6c-5.53,4.36,1,12.66,6.54,8.31l21.18-16.69a2.46,2.46,0,0,0,.41-3.46Z" fill="#8af7fa"/><path d="M703.26,672.3l-16.75,13.2a5,5,0,0,0-1.4,6.63c-4.38.07-7.77-6-3.31-9.53l18.25-14.37Z" fill="#aefcfe"/><path d="M709.93,670.76a2.46,2.46,0,0,1-.41,3.46l-2.93,2.31-6.54-8.3,2.93-2.31a2.46,2.46,0,0,1,3.46.41Z" fill="#5ff2f9"/><path d="M708.17,668.52c-.36.17-.14,0-4.91,3.78l-3.21-4.07,2.93-2.31a2.46,2.46,0,0,1,3.46.41Z" fill="#8af7fa"/><path d="M686.11,686.85a1,1,0,0,1-.52-1.76l8.06-6.35a1,1,0,0,1,1.38.16,1,1,0,0,1-.16,1.39l-8.06,6.35A1,1,0,0,1,686.11,686.85Z" fill="#5ff2f9"/><polygon points="766.47 705.35 748.94 760.59 700.41 753.41 627.42 717.07 634.23 671.17 682.79 681.9 766.47 705.35" fill="#83bc3b" opacity="0.7" style="mix-blend-mode:multiply"/><path d="M682.79,685.57,666.7,715.24l-28.14-16.36-10.82-6.28L630.07,649s22.37-29.82,29.16-29.36,3.17,24,3.17,31.93,17.9,15.27,17.9,15.27Z" fill="#ffabb1"/><polygon points="682.79 685.57 666.7 715.24 638.56 698.88 680.3 666.86 682.79 685.57" fill="#e07c88"/><path d="M792.53,771.42c-27-.53-69.13-19.2-132.21-45.86,1.56-18.51,7.52-38.57,21.67-61.51L811.7,708.8l3.13,30.83Z" fill="#f1f2f2"/><path d="M698.39,669.71s-15.2,20.38-20,63.5" fill="none" stroke="#364d51" stroke-linecap="round" stroke-linejoin="round" stroke-width="2"/><text transform="translate(661.15 595.9) rotate(6.86)" font-size="26.05" fill="#fff" font-family="Montserrat-Bold, Montserrat" font-weight="700" letter-spacing="-0.01em">S<tspan x="16.44" y="0" letter-spacing="0em">urgery</tspan></text><circle cx="694.86" cy="416.33" r="8.06" fill="#e07c88"/><circle cx="632.06" cy="410.92" r="8.06" fill="#e07c88"/><path d="M639,390.84a11.83,11.83,0,0,1-8.35-4.76" fill="none" stroke="#000" stroke-linecap="round" stroke-linejoin="round" stroke-width="2"/></g><path d="M333.45,454.73a26,26,0,0,1-5.58,8.23l-94.69,94.58a26.42,26.42,0,0,1-37.36,0L93.15,454.73l-5.88-5.89a26.42,26.42,0,0,1,0-37.36L182,316.9a26.4,26.4,0,0,1,37.36,0L327.89,425.59A26.39,26.39,0,0,1,333.45,454.73Z" fill="#e5e5e5"/><path d="M333.45,454.73a26,26,0,0,1-5.58,8.23l-9.34,9.33-85.35,85.25a26.42,26.42,0,0,1-37.36,0l-85.13-85.23L93.15,454.73Z" fill="#2b8cc8"/><path d="M318.53,472.29l-85.35,85.25a26.42,26.42,0,0,1-37.36,0l-85.13-85.23Z" fill="#2b8cc8" opacity="0.4" style="mix-blend-mode:multiply"/><ellipse cx="211.16" cy="498.92" rx="59.3" ry="7.14" fill="#2b8cc8" opacity="0.4" style="mix-blend-mode:multiply"/><rect x="148.64" y="357.99" width="107.68" height="136.86" rx="15.08" transform="matrix(0.99, -0.17, 0.17, 0.99, -70.23, 41.11)" fill="#fff"/><rect x="159.68" y="370.96" width="85.59" height="110.9" rx="15.08" transform="matrix(0.99, -0.17, 0.17, 0.99, -70.23, 41.11)" fill="#e5e5e5"/><path d="M242,339.94a9.64,9.64,0,0,1,.08,2.93,10,10,0,0,1-8.19,8.6l-86.42,15.06a10,10,0,1,1-3.43-19.64l86.43-15.07A10,10,0,0,1,242,339.94Z" fill="#c7ef8e"/><path d="M242.12,342.87a10,10,0,0,1-8.19,8.6l-86.42,15.06a10,10,0,0,1-10.62-5.32,10,10,0,0,1,8.19-8.6l86.43-15.07a10,10,0,0,1,10.61,5.33Z" fill="#83bc3b"/><rect x="147.33" y="396.71" width="107.68" height="44.41" transform="matrix(0.99, -0.17, 0.17, 0.99, -68.96, 40.78)" fill="#83bc3b"/><text transform="translate(159.17 430.48) rotate(-9.89)" font-size="18.1" fill="#fff" font-family="Montserrat-Bold, Montserrat" font-weight="700">Medicine</text><g opacity="0.5" style="mix-blend-mode:multiply"><rect x="148.24" y="345.89" width="4.84" height="19.95" transform="translate(-58.88 31.17) rotate(-9.89)" fill="#5a841f"/><rect x="161.02" y="343.66" width="4.84" height="19.95" transform="matrix(0.99, -0.17, 0.17, 0.99, -58.31, 33.33)" fill="#5a841f"/><rect x="173.81" y="341.43" width="4.84" height="19.95" transform="translate(-57.74 35.49) rotate(-9.89)" fill="#5a841f"/><rect x="186.59" y="339.21" width="4.84" height="19.95" transform="translate(-57.17 37.65) rotate(-9.89)" fill="#5a841f"/><rect x="199.37" y="336.98" width="4.84" height="19.95" transform="translate(-56.59 39.82) rotate(-9.89)" fill="#5a841f"/><rect x="212.15" y="334.75" width="4.84" height="19.95" transform="translate(-56.02 41.98) rotate(-9.89)" fill="#5a841f"/><rect x="224.94" y="332.52" width="4.84" height="19.95" transform="translate(-55.45 44.14) rotate(-9.89)" fill="#5a841f"/></g><rect x="111.13" y="552.83" width="25.76" height="78.63" fill="#83bc3b"/><rect x="111.13" y="552.83" width="25.76" height="78.63" transform="translate(-468.13 716.15) rotate(-90)" fill="#83bc3b"/><path d="M812.87,344.91l-7.82,7.94L785.23,373,667.7,257.51a5.25,5.25,0,0,1-.07-7.47l20.25-20.6a5.3,5.3,0,0,1,7.47-.07Z" fill="#f5f5f5" opacity="0.8"/><path d="M682.94,234.47,672.57,245,655,227.74l-2.76-7.32a4.74,4.74,0,0,1,1-5h0a4.76,4.76,0,0,1,5.21-1.06l6.87,2.84Z" fill="#1d2b2d"/><rect x="668.25" y="237.64" width="17.25" height="2.46" transform="translate(32.03 554.14) rotate(-45.49)" fill="#1d2b2d"/><polygon points="674.67 235.84 673.81 236.72 598.22 162.42 595.57 158.09 674.67 235.84" fill="#1d2b2d"/><path d="M678.89,258.65h76.28a0,0,0,0,1,0,0v29.58a0,0,0,0,1,0,0H678.89a10,10,0,0,1-10-10v-9.59A10,10,0,0,1,678.89,258.65Z" transform="translate(395.92 -420.7) rotate(44.51)" fill="#2b8cc8"/><rect x="732.4" y="301.83" width="29.58" height="12.32" transform="translate(3.76 624.96) rotate(-45.49)" fill="#1d2b2d"/><rect x="793.77" y="292.05" width="12.32" height="135.57" transform="translate(-17.44 678.06) rotate(-45.49)" fill="#f5f5f5" opacity="0.99"/><rect x="837.46" y="406.86" width="24.65" height="4.93" transform="translate(-37.83 728.42) rotate(-45.49)" fill="#f5f5f5"/><path d="M805.05,352.85,785.23,373,667.7,257.51a5.33,5.33,0,0,1-1.27-5.59l14-14.2a5.28,5.28,0,0,1,7.46-.06Z" fill="#1d2b2d" opacity="0.13" style="mix-blend-mode:multiply"/><path d="M820.74,347.45l-32.83,33.4a4.93,4.93,0,0,1-7,.06h0a4.92,4.92,0,0,1-.06-7l32.83-33.4a4.93,4.93,0,0,1,7-.06h0A4.93,4.93,0,0,1,820.74,347.45Z" fill="#f5f5f5"/><path d="M804.77,188.42a24.64,24.64,0,0,1-2.83,8.23,24.43,24.43,0,0,1-25,12.14l-28-4.31-28-4.3a24.39,24.39,0,0,1-20.67-23.25,24,24,0,0,1,.27-4.53A24.4,24.4,0,0,1,728.31,152l28,4.31,28,4.3A24.37,24.37,0,0,1,804.77,188.42Z" fill="#f1f2f2"/><path d="M756.34,156.32l-2,12.92L749,204.48l-28-4.3a24.39,24.39,0,0,1-20.67-23.25,24,24,0,0,1,.27-4.53A24.4,24.4,0,0,1,728.31,152Z" fill="#83bc3b"/><path d="M801.94,196.65a24.43,24.43,0,0,1-25,12.14l-28-4.31-28-4.3a24.39,24.39,0,0,1-20.67-23.25,24.54,24.54,0,0,1,6.85-7.72,24.29,24.29,0,0,1,18.11-4.44l29.14,4.47,26.93,4.14A24.38,24.38,0,0,1,801.94,196.65Z" fill="#d1d3d4" style="mix-blend-mode:multiply"/><path d="M760.25,951.6a17.48,17.48,0,0,1-21.68,11.9L719,957.82l-19.54-5.69A17.48,17.48,0,0,1,687,933.67a17.19,17.19,0,0,1,.61-3.2,17.51,17.51,0,0,1,21.68-11.91l19.54,5.68,19.55,5.68A17.49,17.49,0,0,1,760.25,951.6Z" fill="#f1f2f2"/><path d="M728.79,924.24l-2.62,9L719,957.82l-19.54-5.69A17.48,17.48,0,0,1,687,933.67a17.19,17.19,0,0,1,.61-3.2,17.51,17.51,0,0,1,21.68-11.91Z" fill="#83bc3b"/><path d="M757.46,957.2a17.5,17.5,0,0,1-18.89,6.3L719,957.82l-19.54-5.69a13,13,0,1,1,6.37-24.79l20.31,5.91,18.77,5.46A17.49,17.49,0,0,1,757.46,957.2Z" fill="#d1d3d4" style="mix-blend-mode:multiply"/><path d="M373.35,916a17.62,17.62,0,0,1-.3,6.25,17.54,17.54,0,0,1-14.76,13.36l-20.18,2.65-20.18,2.66A17.51,17.51,0,0,1,299,929a17.5,17.5,0,0,1,14.34-22.8l20.18-2.65,20.18-2.66A17.49,17.49,0,0,1,373.35,916Z" fill="#f1f2f2"/><path d="M333.55,903.56l1.22,9.3,3.34,25.36-20.18,2.66A17.51,17.51,0,0,1,299,929a17.5,17.5,0,0,1,14.34-22.8Z" fill="#83bc3b"/><path d="M373.05,922.21a17.54,17.54,0,0,1-14.76,13.36l-20.18,2.65-20.18,2.66A17.51,17.51,0,0,1,299,929a17.61,17.61,0,0,1,3.18-6.69,17.4,17.4,0,0,1,11.59-6.7l21-2.76,19.38-2.55A17.5,17.5,0,0,1,373.05,922.21Z" fill="#d1d3d4" style="mix-blend-mode:multiply"/><path d="M174.05,828.05s-4.1-3.48-10.47-9.36c-23.73-21.86-79-76.91-71.52-109,1.6-7,6.18-12.86,14.69-17.09C164.9,663.71,174.05,828.05,174.05,828.05Z" fill="#83bc3b"/><path d="M163.58,818.69c-23.73-21.86-79-76.91-71.52-109a33.66,33.66,0,0,1,6.24-3.94C142.81,683.64,158.62,774.74,163.58,818.69Z" fill="#83bc3b" opacity="0.5" style="mix-blend-mode:multiply"/><path d="M110.94,700.43c21.7,25.89,22,62,48.05,88.93" fill="none" stroke="#364d51" stroke-linecap="round" stroke-linejoin="round" stroke-width="2"/><path d="M197.11,723.93c-2.75,44.52-29.52,105.53-29.52,105.53a499.54,499.54,0,0,1-18.21-53.12c-12.17-43.7-19.65-98.42,19.4-98.11C192.41,678.41,198.68,698.48,197.11,723.93Z" fill="#83bc3b"/><path d="M197.11,723.93c-2.75,44.52-29.52,105.53-29.52,105.53a499.54,499.54,0,0,1-18.21-53.12c-4.62-32.39-.72-61,27.53-60.75C186.07,715.66,192.62,718.72,197.11,723.93Z" fill="#83bc3b" opacity="0.5" style="mix-blend-mode:multiply"/><path d="M167,809.21c-6.36-41.51.07-73.46-.7-108.17" fill="none" stroke="#364d51" stroke-linecap="round" stroke-linejoin="round" stroke-width="2"/><path d="M214.85,897.07l-5.63,1.23-52.93,11.5A15.33,15.33,0,0,1,138.57,900l-25.7-71.61a15.8,15.8,0,0,1-.75-3.09,15.35,15.35,0,0,1,12-17.11l77.84-16.93A15.37,15.37,0,0,1,220.5,805l6.39,75.8A15.38,15.38,0,0,1,214.85,897.07Z" fill="#f5f5f5"/><path d="M209.22,898.3l-52.93,11.5A15.33,15.33,0,0,1,138.57,900l-25.7-71.61a15.8,15.8,0,0,1-.75-3.09l72.21-15.72a15.36,15.36,0,0,1,18.57,13.72Z" fill="#e5e5e5" style="mix-blend-mode:multiply"/><path d="M117.17,840.34a22.21,22.21,0,0,1,2.43-.63c8.87-1.74,18,.57,26.88,2.08s18.67,2.13,26.42-2.54c6.57-4,10.81-11.23,17.72-14.55,6.43-3.09,14-2.23,21-.59,3.57.84,7.15,1.87,10.74,2.63" fill="none" stroke="#364d51" stroke-linecap="round" stroke-linejoin="round" stroke-width="2"/><path d="M128.2,871.1c8.33-1.16,16.83.94,25.17,2.36,8.91,1.53,18.67,2.12,26.43-2.54,6.56-4,10.8-11.22,17.71-14.55,6.43-3.1,14-2.23,21-.59,2.14.51,4.29,1.08,6.43,1.62" fill="none" stroke="#364d51" stroke-linecap="round" stroke-linejoin="round" stroke-width="2"/><path d="M569.64,175.2a55.64,55.64,0,0,1-51.51,55.49c-1.36.1-2.74.15-4.13.15s-2.77-.05-4.13-.15a55.64,55.64,0,0,1,0-111c1.36-.11,2.74-.16,4.13-.16s2.77,0,4.13.16A55.63,55.63,0,0,1,569.64,175.2Z" fill="#bcbec0"/><path d="M562.66,168.42a55.65,55.65,0,0,1-51.51,55.49c-1.37.1-2.74.15-4.14.15s-2.76-.05-4.13-.15a55.64,55.64,0,0,1,0-111c1.37-.11,2.75-.16,4.13-.16s2.77,0,4.14.16a55.63,55.63,0,0,1,51.51,55.49Z" fill="#f1f2f2"/><path d="M562.66,168.42a55.65,55.65,0,0,1-51.51,55.49c-1.37.1-2.74.15-4.14.15s-2.76-.05-4.13-.15a55.42,55.42,0,0,1-32.18-13.33,55.65,55.65,0,0,1,42.63-85.67c1.36-.1,2.74-.15,4.13-.15s2.77,0,4.13.15a55.4,55.4,0,0,1,32.18,13.33A55.41,55.41,0,0,1,562.66,168.42Z" fill="#f1f2f2" style="mix-blend-mode:multiply"/><path d="M511.15,112.93v111q-2.06.15-4.14.15c-1.38,0-2.76-.05-4.13-.15v-111c1.37-.1,2.75-.15,4.13-.15S509.78,112.83,511.15,112.93Z" fill="#e5e5e5" style="mix-blend-mode:multiply"/><path d="M885.53,892.45a53.74,53.74,0,0,1-68.24,26.31c-1.23-.48-2.45-1-3.65-1.61s-2.38-1.22-3.52-1.89A53.74,53.74,0,0,1,857.18,819c1.23.49,2.45,1,3.65,1.62s2.39,1.21,3.52,1.88A53.74,53.74,0,0,1,885.53,892.45Z" fill="#bcbec0"/><path d="M882.34,883.61a53.76,53.76,0,0,1-68.24,26.31c-1.23-.49-2.44-1-3.65-1.62s-2.38-1.22-3.52-1.88A53.75,53.75,0,0,1,854,810.1c1.24.49,2.45,1,3.65,1.62s2.39,1.22,3.53,1.89a53.74,53.74,0,0,1,21.17,70Z" fill="#f1f2f2"/><path d="M882.34,883.61a53.76,53.76,0,0,1-68.24,26.31c-1.23-.49-2.44-1-3.65-1.62s-2.38-1.22-3.52-1.88a53.55,53.55,0,0,1-22.28-25.22A53.76,53.76,0,0,1,858,824.93c1.22.49,2.44,1,3.65,1.62s2.38,1.22,3.52,1.88a53.53,53.53,0,0,1,22.27,25.22A53.4,53.4,0,0,1,882.34,883.61Z" fill="#f1f2f2" style="mix-blend-mode:multiply"/><path d="M861.16,813.61,814.1,909.92c-1.23-.49-2.45-1-3.65-1.62s-2.38-1.21-3.52-1.88L854,810.1c1.22.49,2.44,1,3.65,1.62S860,812.94,861.16,813.61Z" fill="#e5e5e5" style="mix-blend-mode:multiply"/></g></g></svg>