<svg width="375" height="471" viewBox="0 0 375 471" fill="none" xmlns="http://www.w3.org/2000/svg">
<path d="M153.253 59.3394C147.992 66.6995 140.593 72.2608 132.06 75.267C112.845 81.3761 91.6015 82.2515 71.5424 81.8925C68.0344 81.6028 66.8315 79.8205 65.0428 77.0808C64.1989 75.8212 60.6342 72.9053 57.8505 68.799C54.7015 64.2014 52.5287 58.0924 56.1753 50.9756C49.6568 39.8596 52.9822 24.524 63.5313 17.086C70.9567 3.80355 108.543 -8.67909 132.003 8.26884C132.003 8.26884 142.609 1.4229 150.437 29.7702C150.702 30.7338 150.96 31.7793 151.206 32.8688C153.473 42.9142 154.676 57.2421 153.253 59.3394Z" fill="#2E2E2E"/>
<path d="M153.253 59.3394C147.992 66.6995 140.593 72.2608 132.06 75.267C112.845 81.3761 91.6017 82.2515 71.5425 81.8925C68.0346 81.6028 66.8316 79.8205 65.043 77.0808C64.1991 75.8212 60.6344 72.9053 57.8507 68.799C58.0344 66.583 58.6665 64.4274 59.7086 62.4632C53.1965 51.3409 56.5155 36.0115 67.0647 28.5736C74.49 15.2848 112.077 2.80216 135.537 19.7564C135.537 19.7564 143.863 14.3779 151.206 32.8752C153.473 42.9142 154.676 57.2421 153.253 59.3394Z" fill="#1A1A1A"/>
<path d="M96.3384 217.306L82.5269 258.614L72.7713 287.762L57.5931 333.107C46.0489 367.539 12.3671 365.775 2.80047 343.342C-0.348533 335.91 -0.88387 326.198 2.95162 314.78C2.95162 314.78 3.13426 314.15 3.48695 313.029C7.33503 300.66 31.6201 225.739 66.0576 186.597C68.4383 183.901 72.2612 181.735 77.035 180.015C100.281 171.62 116.536 203.142 96.3384 217.306Z" fill="#F1F2F2"/>
<path d="M124.987 344.016L144.845 464.61L252.654 473.641L330.327 404.653L276.681 285.425L208.241 268.685L124.987 344.016Z" fill="#2B8CC8"/>
<path d="M243.504 180.078L281.808 298.701C234.839 326.501 183.573 346.295 130.108 357.273L78.748 243.713C73.6927 232.541 72.8665 219.913 76.4228 208.177C79.9792 196.441 87.6762 186.395 98.0829 179.908L113.324 170.398L144.953 170.02L168.627 149.042L186.305 145.836C198.37 143.647 210.819 145.911 221.339 152.209C231.859 158.507 239.735 168.41 243.504 180.078Z" fill="#2B8CC8"/>
<path d="M238.377 166.809L276.682 285.425C224.452 321.998 179.692 335.438 124.988 343.997L73.6152 230.444C68.5599 219.271 67.7337 206.643 71.29 194.907C74.8464 183.171 82.5434 173.126 92.95 166.638L108.191 157.128L139.82 156.751L163.5 135.772L181.179 132.566C193.243 130.375 205.693 132.64 216.213 138.938C226.734 145.236 234.61 155.14 238.377 166.809Z" fill="#2B8CC8"/>
<path d="M161.252 135.004C160.929 135.127 160.582 135.172 160.238 135.136C157.785 134.854 155.306 134.895 152.863 135.256C152.288 135.372 151.69 135.254 151.201 134.93C150.712 134.605 150.372 134.099 150.256 133.524C150.14 132.948 150.257 132.35 150.582 131.861C150.906 131.372 151.412 131.032 151.988 130.916C154.844 130.461 157.749 130.4 160.622 130.734C161.117 130.783 161.581 130.998 161.939 131.344C162.297 131.689 162.528 132.145 162.596 132.638C162.664 133.131 162.563 133.632 162.312 134.061C162.06 134.49 161.671 134.822 161.208 135.004H161.252Z" fill="#364D51"/>
<path d="M162.41 138.234L178.256 154.993L151.509 198.821L99.8965 178.346L105.829 155.882C113.154 150.553 111.844 138.827 109.514 130.06C108.53 126.34 107.267 122.7 105.735 119.17L122.191 108.772L141.659 107.979C142.48 112.139 143.645 116.223 145.141 120.191C148.253 128.485 153.738 138.02 162.41 138.234Z" fill="#FFABB1"/>
<path d="M76.336 76.1424C76.336 76.1424 69.2003 70.3861 64.6721 76.1424C58.8275 83.593 73.6593 108.193 83.6857 98.3303L89.4106 87.1639L76.336 76.1424Z" fill="#FFABB1"/>
<path d="M141.338 55.8691C141.338 55.8691 143.945 47.0834 150.942 49.2562C159.992 52.0651 161.762 80.7462 147.913 78.3215L136.854 72.3825L141.338 55.8691Z" fill="#FFABB1"/>
<path d="M141.633 107.973C142.455 112.132 143.62 116.217 145.116 120.184C144.373 121.186 143.585 122.168 142.748 123.113C139.347 126.923 135.19 130.11 130.152 131.685C125.113 133.259 119.867 133.001 114.904 131.792C113.062 131.348 111.256 130.767 109.5 130.053C108.517 126.333 107.254 122.693 105.722 119.164L122.178 108.766L141.633 107.973Z" fill="#E07C88"/>
<path d="M144.512 70.4428L151.61 57.1981" stroke="#E07C88" stroke-width="2" stroke-linecap="round" stroke-linejoin="round"/>
<path d="M83.748 90.8798L70.4844 83.8197" stroke="#E07C88" stroke-width="2" stroke-linecap="round" stroke-linejoin="round"/>
<path d="M138.95 47.7825L146.691 72.6029C150.954 86.2822 148.001 101.334 138.465 112.028C135.071 115.807 130.908 119.026 125.869 120.594C120.831 122.162 115.585 121.916 110.622 120.707C96.6908 117.319 85.7071 106.612 81.4433 92.9392L73.7094 68.1314C72.3698 63.8451 71.8881 59.337 72.2916 54.8645C72.6951 50.392 73.9761 46.0428 76.0612 42.0656C78.1463 38.0884 80.9947 34.561 84.4437 31.6852C87.8927 28.8093 91.8745 26.6412 96.1618 25.3049C100.447 23.9708 104.953 23.4939 109.423 23.9015C113.893 24.3091 118.239 25.5932 122.212 27.6805C126.186 29.7678 129.709 32.6174 132.581 36.0665C135.453 39.5157 137.617 43.4968 138.95 47.7825Z" fill="#FFABB1"/>
<path d="M94.4928 83.6496C96.4337 83.6496 98.0071 82.0762 98.0071 80.1353C98.0071 78.1945 96.4337 76.6211 94.4928 76.6211C92.5519 76.6211 90.9785 78.1945 90.9785 80.1353C90.9785 82.0762 92.5519 83.6496 94.4928 83.6496Z" fill="black"/>
<path d="M129.642 73.8374C131.583 73.8374 133.157 72.264 133.157 70.3231C133.157 68.3822 131.583 66.8088 129.642 66.8088C127.701 66.8088 126.128 68.3822 126.128 70.3231C126.128 72.264 127.701 73.8374 129.642 73.8374Z" fill="black"/>
<path d="M132.81 57.853C129.661 57.2799 126.349 56.7005 123.237 57.494C122.237 57.7785 121.266 58.1603 120.34 58.6339C120.191 58.7254 120.023 58.7845 119.849 58.8076C119.676 58.8307 119.499 58.8172 119.33 58.768C119.162 58.7188 119.006 58.635 118.872 58.5219C118.738 58.4088 118.629 58.2689 118.552 58.1112C118.457 57.9086 118.42 57.6841 118.445 57.462C118.469 57.24 118.554 57.0288 118.69 56.8516C120.359 54.5339 123.388 53.2995 126.197 53.2932C128.247 53.283 130.273 53.7351 132.124 54.6158C133.106 55.126 135.103 55.9699 134.133 57.3869C133.983 57.5858 133.777 57.7357 133.541 57.8175C133.306 57.8994 133.051 57.9095 132.81 57.8467V57.853Z" fill="black"/>
<path d="M84.2392 68.3393C85.2996 66.5591 86.7776 65.064 88.5454 63.9832C90.3131 62.9023 92.3175 62.2682 94.3853 62.1357C95.8155 62.0986 97.234 62.403 98.5231 63.0237C98.6685 63.0908 98.7993 63.186 98.9078 63.3037C99.0163 63.4215 99.1005 63.5596 99.1556 63.71C99.2106 63.8604 99.2353 64.0202 99.2284 64.1802C99.2214 64.3402 99.1829 64.4972 99.1151 64.6423C98.9964 64.8872 98.8015 65.0871 98.5597 65.212C98.3178 65.3369 98.0421 65.3801 97.7736 65.3351C93.365 64.7053 89.4917 67.2812 86.1286 69.8634C85.9047 70.0237 85.6344 70.1062 85.3592 70.0983C85.0839 70.0904 84.8188 69.9925 84.6045 69.8196C84.3902 69.6467 84.2384 69.4083 84.1724 69.141C84.1065 68.8736 84.1299 68.592 84.2392 68.3393Z" fill="black"/>
<path d="M111.296 70.1908L112.385 78.6364L111.497 80.6896C110.999 81.8135 110.916 83.0775 111.262 84.2572C111.608 85.4368 112.361 86.4556 113.387 87.1325L115.15 88.348" stroke="#E07C88" stroke-width="2" stroke-linecap="round" stroke-linejoin="round"/>
<path d="M79.4593 78.2712C79.4153 79.8079 78.9996 81.7099 77.507 82.05C76.0143 82.3901 74.7107 80.7589 73.9549 79.3355L66.9767 66.1097C66.1076 64.4659 65.2196 62.5136 65.9942 60.8257C67.9403 56.5745 74.3769 59.9503 76.4615 62.3687C77.9163 64.0566 78.2753 66.8088 78.6847 68.906C79.2867 71.9897 79.5465 75.1305 79.4593 78.2712Z" fill="#1A1A1A"/>
<path d="M125.473 43.6321C125.259 50.7804 114.817 49.3003 116.574 42.3725C103.94 51.9518 102.051 62.0286 71.4489 69.1013C64.8926 70.6254 61.7814 49.6593 62.934 47.4109C65.661 42.0954 68.7596 36.8996 72.8848 32.5414C79.8967 26.0767 87.9606 20.8563 96.729 17.1049C101.791 14.9372 107.276 13.9383 112.777 14.1825C118.278 14.4268 123.653 15.9079 128.502 18.5157C134.928 21.9486 139.984 27.4768 142.833 34.1816C145.681 40.8864 146.149 48.364 144.159 55.3716C143.574 57.4059 142.9 58.7285 142.056 58.5206C135.147 56.4801 127.363 50.8496 125.473 43.6321Z" fill="#1A1A1A"/>
<path d="M130.492 92.681C128.502 86.2697 105.3 93.4746 107.278 99.8859C108.274 102.914 110.42 105.43 113.254 106.891C116.088 108.352 119.382 108.641 122.427 107.696C125.472 106.751 128.023 104.647 129.532 101.839C131.041 99.0303 131.385 95.7414 130.492 92.681Z" fill="white"/>
<path d="M336.645 406.53L302.881 439.651L249.505 328.995L233.861 296.56L156.717 136.616L212.933 143.808L275.982 277.716L290.946 309.477L336.645 406.53Z" fill="#F1F2F2"/>
<path d="M313.902 276.469C311.547 300.106 280.032 307.43 266.856 277.509L210.281 162.885L164.848 146.617L160.798 141.635L156.717 136.597C156.717 136.597 216.327 125.091 228.609 132.188C259.5 150.163 310.514 258.274 310.514 258.274C313.487 265.007 314.431 271.154 313.902 276.469Z" fill="white"/>
<path d="M313.902 276.469C311.547 300.106 280.032 307.43 266.856 277.509L210.281 162.885L164.847 146.617L160.798 141.635C174.446 139.198 218.273 132.012 228.608 138.001C259.5 155.938 310.514 264.062 310.514 264.062C312.299 267.99 313.443 272.179 313.902 276.469Z" fill="#F1F2F2"/>
<path d="M210.143 182.031C209.596 182.243 208.987 182.229 208.45 181.993C207.913 181.757 207.491 181.318 207.277 180.771C192.95 143.682 171.643 136.263 160.212 135.142C159.923 135.114 159.642 135.029 159.385 134.892C159.129 134.756 158.901 134.57 158.716 134.345C158.532 134.121 158.393 133.862 158.308 133.584C158.223 133.305 158.194 133.013 158.222 132.724C158.25 132.434 158.335 132.153 158.472 131.896C158.609 131.64 158.795 131.413 159.019 131.228C159.244 131.043 159.503 130.904 159.781 130.819C160.059 130.735 160.351 130.705 160.641 130.734C173.086 131.949 196.231 139.866 211.409 179.171C211.514 179.442 211.564 179.731 211.557 180.021C211.55 180.312 211.486 180.598 211.368 180.863C211.251 181.129 211.082 181.369 210.872 181.569C210.662 181.769 210.414 181.926 210.143 182.031Z" fill="#364D51"/>
<path d="M156.724 136.616L205.149 153.343L201.805 218.647L247.358 262.652L239.089 307.197L156.724 136.616Z" fill="#D1D3D4"/>
<path d="M292.82 319.544L258.21 329.077L260.511 337.432L295.121 327.899L292.82 319.544Z" fill="#D1D3D4"/>
<path d="M290.946 309.477L249.506 328.995L233.861 296.56L234.938 284.814L275.982 277.716L290.946 309.477Z" fill="#D1D3D4"/>
<path d="M109.01 152.367L193.284 481.986L139.266 469.938L66.4482 225.569L67.4181 187.705L109.01 152.367Z" fill="#F1F2F2"/>
<path d="M109.168 153.028L82.9111 197.026L127.558 244.809L121.083 307.814L156.113 336.546L109.168 153.028Z" fill="#D1D3D4"/>
<path d="M154.967 369.004L122.888 385.117L126.777 392.861L158.857 376.748L154.967 369.004Z" fill="#D1D3D4"/>
<g style="mix-blend-mode:multiply" opacity="0.1">
<path d="M103.663 370.719L166.92 347.303L191.804 395.603L173.71 467.028L109.186 441.849L103.663 370.719Z" fill="#A7A9AC"/>
</g>
<path d="M198.102 378.214C209.123 378.73 219.515 375.657 228.893 366.317" stroke="#364D51" stroke-width="2" stroke-linecap="round" stroke-linejoin="round"/>
<path d="M214.822 375.694L252.654 473.641" stroke="#364D51" stroke-width="2" stroke-linecap="round" stroke-linejoin="round"/>
<path d="M90.1973 247.958L95.5191 263.508C96.7143 266.997 98.9435 270.04 101.91 272.232C104.877 274.423 108.44 275.66 112.127 275.777" stroke="white" stroke-width="2" stroke-linecap="round" stroke-linejoin="round"/>
<path d="M134.069 231.017L140.575 246.132C142.076 249.616 142.448 253.483 141.638 257.19C140.828 260.896 138.877 264.255 136.06 266.796" stroke="white" stroke-width="2" stroke-linecap="round" stroke-linejoin="round"/>
<path d="M118.652 278.579C118.324 278.706 117.977 278.776 117.625 278.787L113.443 278.938C112.971 278.938 112.486 278.938 112.001 278.938C111.166 278.911 110.376 278.554 109.804 277.945C109.232 277.335 108.926 276.524 108.953 275.688C108.98 274.853 109.337 274.063 109.946 273.491C110.556 272.92 111.367 272.613 112.203 272.64H113.223L117.398 272.489C118.16 272.434 118.916 272.658 119.525 273.119C120.134 273.58 120.554 274.247 120.708 274.995C120.863 275.743 120.74 276.521 120.362 277.185C119.985 277.849 119.379 278.354 118.658 278.604L118.652 278.579Z" fill="#364D51"/>
<path d="M133.578 272.81C132.877 273.104 132.094 273.134 131.372 272.895C130.651 272.656 130.04 272.165 129.653 271.511C129.266 270.857 129.128 270.086 129.264 269.338C129.401 268.591 129.804 267.918 130.398 267.444L133.591 264.742L133.931 264.446C134.555 263.885 135.376 263.595 136.214 263.639C137.052 263.683 137.838 264.059 138.399 264.683C138.96 265.306 139.251 266.128 139.207 266.966C139.162 267.804 138.787 268.59 138.163 269.151L137.678 269.573L134.485 272.25C134.217 272.487 133.91 272.677 133.578 272.81Z" fill="#364D51"/>
<path d="M136.331 237.101C136.021 237.221 135.691 237.28 135.358 237.272C135.026 237.264 134.699 237.191 134.395 237.057C134.091 236.922 133.817 236.729 133.588 236.488C133.359 236.246 133.181 235.963 133.062 235.652C133.018 235.545 131.305 231.243 123.036 214.239C122.954 214.075 122.878 213.918 122.796 213.766C117.304 203.06 106.699 201.391 98.6246 204.508C90.5505 207.626 83.7865 215.99 86.9355 227.616C86.9796 227.786 87.03 227.956 87.0804 228.126C92.4148 246.39 94.0082 250.679 94.0459 250.717C94.1668 251.026 94.2254 251.356 94.2183 251.688C94.2112 252.02 94.1385 252.347 94.0045 252.651C93.8704 252.955 93.6777 253.229 93.4373 253.458C93.1969 253.687 92.9136 253.866 92.6037 253.986C92.2941 254.106 91.9636 254.165 91.6314 254.157C91.2992 254.149 90.9717 254.076 90.6679 253.942C90.364 253.807 90.0898 253.614 89.8611 253.372C89.6324 253.131 89.4536 252.847 89.335 252.537C89.2721 252.373 87.6787 248.191 82.2309 229.543L82.0608 228.913C78.1183 214.346 86.9355 203.602 96.7982 199.823C106.661 196.044 120.416 198.04 127.299 211.493L127.583 212.066C136.091 229.53 137.716 233.693 137.779 233.857C138.015 234.479 137.995 235.17 137.724 235.778C137.453 236.385 136.952 236.861 136.331 237.101Z" fill="#364D51"/>
<path d="M98.6241 204.515L98.4667 204.571C97.8286 204.768 97.1385 204.703 96.5481 204.392C95.9576 204.08 95.515 203.547 95.3177 202.909C89.4731 184.229 89.6495 169.416 95.7774 158.873C100.551 150.686 107.265 148.343 107.548 148.242C108.184 148.026 108.879 148.071 109.482 148.367C110.084 148.664 110.544 149.187 110.76 149.823C110.977 150.458 110.932 151.154 110.635 151.756C110.339 152.359 109.815 152.818 109.18 153.035C108.254 153.362 87.5837 161.222 100.148 201.397C100.342 202.013 100.292 202.68 100.009 203.26C99.7249 203.84 99.2293 204.289 98.6241 204.515Z" fill="#364D51"/>
<path d="M138.68 86.5027C141.925 86.5027 144.556 83.8719 144.556 80.6266C144.556 77.3814 141.925 74.7506 138.68 74.7506C135.435 74.7506 132.804 77.3814 132.804 80.6266C132.804 83.8719 135.435 86.5027 138.68 86.5027Z" fill="#E07C88"/>
<path d="M94.5743 99.3191C97.8195 99.3191 100.45 96.6883 100.45 93.443C100.45 90.1978 97.8195 87.567 94.5743 87.567C91.329 87.567 88.6982 90.1978 88.6982 93.443C88.6982 96.6883 91.329 99.3191 94.5743 99.3191Z" fill="#E07C88"/>
<path d="M66.0759 168.011L68.255 171.79L107.876 240.52L127.028 273.761C127.719 274.964 128.86 275.844 130.199 276.206C131.538 276.569 132.966 276.385 134.17 275.695L149.002 267.142L165.081 257.884L199.304 238.159L205.495 234.588C206.692 233.889 207.564 232.744 207.918 231.404C208.272 230.064 208.08 228.638 207.384 227.439L201.559 217.331L186.047 190.426L184.019 186.905L146.464 121.683C145.77 120.481 144.628 119.603 143.288 119.241C141.948 118.88 140.519 119.065 139.315 119.756L67.9968 160.87C67.4015 161.212 66.8796 161.669 66.4608 162.213C66.0421 162.758 65.7347 163.379 65.5564 164.042C65.378 164.706 65.332 165.398 65.4212 166.079C65.5103 166.76 65.7328 167.416 66.0759 168.011Z" fill="#83BC3B"/>
<g style="mix-blend-mode:multiply" opacity="0.7">
<path d="M137.659 234.43C156.077 234.43 171.007 219.5 171.007 201.082C171.007 182.665 156.077 167.734 137.659 167.734C119.242 167.734 104.312 182.665 104.312 201.082C104.312 219.5 119.242 234.43 137.659 234.43Z" fill="#83BC3B"/>
</g>
<path d="M140.607 189.116C141.204 188.579 141.835 188.08 142.496 187.623C142.962 187.261 143.276 186.739 143.378 186.158C143.481 185.577 143.364 184.978 143.05 184.479C142.736 183.979 142.248 183.614 141.68 183.453C141.112 183.293 140.505 183.35 139.977 183.612C139.241 184.024 138.536 184.49 137.867 185.003C136.403 183.803 134.549 183.184 132.657 183.265C130.766 183.345 128.971 184.118 127.614 185.438V185.394C127.484 185 127.277 184.637 127.005 184.324C126.733 184.012 126.401 183.757 126.029 183.574C125.657 183.392 125.252 183.286 124.838 183.262C124.424 183.238 124.01 183.297 123.62 183.435C123.229 183.574 122.87 183.789 122.564 184.068C122.257 184.347 122.01 184.685 121.836 185.061C121.662 185.437 121.564 185.844 121.55 186.258C121.535 186.672 121.603 187.085 121.75 187.472L124.521 195.175C123.499 195.86 122.657 196.783 122.068 197.864C121.479 198.946 121.161 200.153 121.139 201.385C120.977 206.768 122.882 212.01 126.461 216.034C126.707 216.312 127.045 216.493 127.413 216.541C127.781 216.59 128.155 216.504 128.464 216.298C129.098 216.902 129.778 217.456 130.498 217.955C135.889 221.733 144.115 222.023 150.079 219.126C153.303 217.558 155.117 213.458 153.259 210.366C150.406 205.548 150.016 200.32 149.115 196.226C147.585 189.557 143.617 188.625 140.607 189.116Z" fill="#FF6D7A"/>
<path d="M150.022 219.151C144.058 222.048 135.833 221.733 130.441 217.98C129.722 217.48 129.042 216.926 128.407 216.323C128.631 216.183 128.813 215.985 128.935 215.75C129.057 215.515 129.114 215.252 129.1 214.988C129.09 214.79 129.134 214.592 129.227 214.417C129.32 214.241 129.458 214.094 129.628 213.991C129.798 213.888 129.992 213.832 130.191 213.83C130.389 213.828 130.585 213.88 130.756 213.981C136.292 217.205 143.85 217.18 149.329 214.522C150.348 214.024 151.234 213.29 151.911 212.381C152.049 212.2 152.24 212.067 152.456 211.998C152.673 211.93 152.905 211.93 153.122 211.999C153.338 212.068 153.528 212.202 153.666 212.383C153.803 212.565 153.881 212.784 153.889 213.011C153.906 214.301 153.55 215.568 152.864 216.661C152.178 217.753 151.191 218.625 150.022 219.17V219.151Z" fill="#FF8C95"/>
<path d="M137.836 185.029C137.255 185.465 136.7 185.934 136.173 186.433C136.075 186.524 135.954 186.587 135.823 186.615C135.693 186.644 135.557 186.638 135.43 186.597C134.397 186.24 133.299 186.112 132.212 186.221C131.124 186.329 130.074 186.673 129.132 187.227C129.038 187.28 128.935 187.312 128.828 187.32C128.721 187.328 128.613 187.313 128.513 187.275C128.412 187.237 128.322 187.178 128.247 187.101C128.172 187.024 128.115 186.931 128.08 186.83L127.576 185.438C128.937 184.12 130.735 183.35 132.628 183.275C134.52 183.199 136.374 183.824 137.836 185.029Z" fill="#FF8C95"/>
<path d="M147.112 200.402C147.082 200.494 147.034 200.578 146.972 200.651C146.909 200.724 146.832 200.784 146.746 200.828C146.66 200.871 146.566 200.897 146.47 200.904C146.374 200.911 146.278 200.899 146.186 200.868C145.805 200.74 145.402 200.691 145.002 200.723C144.601 200.756 144.211 200.869 143.856 201.057C144.587 204.105 144.486 207.135 147.049 208.042C147.147 208.069 147.237 208.115 147.316 208.179C147.395 208.243 147.459 208.322 147.506 208.411C147.553 208.501 147.581 208.6 147.588 208.7C147.595 208.801 147.581 208.903 147.547 208.998C147.513 209.093 147.46 209.181 147.391 209.255C147.322 209.328 147.239 209.387 147.146 209.428C147.053 209.468 146.953 209.489 146.852 209.489C146.751 209.488 146.651 209.468 146.558 209.427C145.867 209.177 145.241 208.775 144.727 208.251C144.212 207.727 143.822 207.093 143.585 206.398C142.458 206.895 141.337 207.191 141.878 208.999C141.934 209.185 141.914 209.386 141.822 209.557C141.73 209.728 141.573 209.856 141.387 209.912C141.295 209.94 141.198 209.949 141.102 209.939C141.007 209.93 140.914 209.901 140.829 209.856C140.658 209.763 140.53 209.607 140.474 209.421C140.323 208.945 140.259 208.446 140.285 207.947C139.779 207.728 139.332 207.389 138.985 206.961C138.637 206.532 138.398 206.025 138.289 205.485C138.249 205.294 138.287 205.096 138.393 204.933C138.499 204.771 138.665 204.656 138.855 204.615C138.949 204.594 139.047 204.592 139.141 204.609C139.236 204.625 139.327 204.661 139.408 204.713C139.489 204.765 139.558 204.833 139.613 204.913C139.667 204.992 139.705 205.082 139.725 205.176C139.781 205.468 139.903 205.743 140.082 205.979C140.261 206.216 140.492 206.409 140.757 206.543C141.331 205.692 142.256 205.377 143.151 204.987C142.433 201.97 142.483 198.689 139.674 197.215C139.878 196.766 140.014 196.288 140.077 195.798C140.143 195.813 140.207 195.836 140.266 195.867C141.766 196.671 142.895 198.026 143.415 199.646C144.429 199.193 145.576 199.139 146.627 199.495C146.719 199.525 146.803 199.573 146.876 199.636C146.949 199.699 147.008 199.775 147.051 199.862C147.094 199.948 147.119 200.042 147.125 200.138C147.132 200.234 147.118 200.33 147.087 200.421L147.112 200.402Z" fill="#E84857"/>
<path d="M137.136 211.197C136.41 211.94 135.434 212.389 134.397 212.456C134.504 213.023 134.561 213.599 134.567 214.176C134.55 214.359 134.465 214.529 134.329 214.652C134.194 214.776 134.017 214.845 133.833 214.845C133.649 214.845 133.472 214.776 133.336 214.652C133.201 214.529 133.116 214.359 133.099 214.176C133.093 212.182 132.368 210.257 131.059 208.753C131.411 208.412 131.783 208.092 132.173 207.796C132.985 208.716 133.61 209.786 134.012 210.945C134.397 210.958 134.781 210.89 135.139 210.747C135.497 210.604 135.821 210.388 136.091 210.114C136.227 209.975 136.412 209.896 136.607 209.894C136.801 209.893 136.988 209.968 137.127 210.104C137.265 210.24 137.344 210.426 137.346 210.62C137.348 210.814 137.272 211.001 137.136 211.14V211.197Z" fill="#E84857"/>
<path d="M145.393 217.69C143.349 218.451 141.123 218.576 139.007 218.049C138.829 217.991 138.679 217.867 138.589 217.702C138.499 217.537 138.475 217.344 138.523 217.162C138.57 216.981 138.685 216.824 138.844 216.724C139.003 216.625 139.195 216.589 139.379 216.626C141.585 217.158 143.908 216.89 145.935 215.87C146.105 215.801 146.295 215.798 146.467 215.862C146.64 215.925 146.782 216.051 146.867 216.214C146.951 216.378 146.971 216.567 146.924 216.744C146.876 216.921 146.764 217.075 146.609 217.174C146.216 217.373 145.81 217.545 145.393 217.69Z" fill="white"/>
<path d="M142.515 183.782C142.823 184.001 143.074 184.291 143.247 184.628C143.421 184.964 143.511 185.337 143.511 185.715C143.511 186.094 143.421 186.466 143.247 186.803C143.074 187.139 142.823 187.429 142.515 187.649C141.854 188.105 141.223 188.604 140.625 189.141C139.326 189.335 138.097 189.855 137.054 190.653C135.832 190.128 134.5 189.912 133.175 190.023C134.9 187.385 137.227 185.194 139.964 183.631C140.359 183.41 140.81 183.307 141.261 183.334C141.713 183.361 142.148 183.516 142.515 183.782Z" fill="#E84857"/>
<path d="M142.049 184.808C139.855 186.143 137.932 187.88 136.381 189.928C136.296 190.04 136.181 190.125 136.05 190.174C135.918 190.223 135.775 190.234 135.638 190.206C134.823 190.02 133.984 189.961 133.15 190.029C134.875 187.391 137.202 185.2 139.94 183.637C140.242 183.467 140.578 183.364 140.924 183.337C141.27 183.31 141.617 183.358 141.942 183.479C142.073 183.529 142.187 183.614 142.271 183.726C142.356 183.837 142.406 183.97 142.417 184.11C142.429 184.249 142.4 184.389 142.335 184.512C142.27 184.636 142.171 184.739 142.049 184.808Z" fill="#EA5A68"/>
<path d="M137.036 190.653C135.85 190.134 134.554 189.92 133.265 190.03C131.976 190.14 130.735 190.571 129.655 191.283L127.557 185.438C127.428 185.044 127.221 184.681 126.948 184.368C126.676 184.056 126.344 183.801 125.972 183.619C125.6 183.436 125.195 183.33 124.782 183.306C124.368 183.282 123.954 183.341 123.563 183.48C123.172 183.618 122.813 183.833 122.507 184.112C122.201 184.391 121.953 184.729 121.779 185.105C121.605 185.481 121.508 185.888 121.493 186.302C121.479 186.716 121.547 187.129 121.694 187.516L124.465 195.219C125.284 194.666 126.198 194.269 127.16 194.047C128.15 193.817 129.175 193.788 130.175 193.963C131.176 194.138 132.13 194.512 132.983 195.064C133.835 195.616 134.568 196.335 135.136 197.176C135.705 198.017 136.098 198.965 136.293 199.961C137.314 199.739 138.236 199.195 138.924 198.408C139.612 197.621 140.028 196.634 140.111 195.592C140.195 194.551 139.941 193.51 139.387 192.624C138.833 191.738 138.009 191.053 137.036 190.672V190.653Z" fill="#80AAFF"/>
<path d="M137.987 191.157C138.125 191.255 138.226 191.397 138.272 191.561C138.317 191.725 138.305 191.899 138.237 192.054C138.169 192.21 138.049 192.337 137.898 192.415C137.747 192.492 137.573 192.515 137.407 192.479C136.308 192.215 135.164 192.201 134.059 192.437C132.954 192.674 131.916 193.155 131.021 193.846C130.933 193.915 130.831 193.963 130.722 193.987C130.613 194.011 130.5 194.01 130.391 193.984C129.313 193.769 128.201 193.784 127.129 194.029C127.713 192.913 128.568 191.962 129.616 191.263C130.664 190.564 131.87 190.14 133.125 190.029C134.814 189.881 136.506 190.276 137.955 191.157H137.987Z" fill="#9CBCFF"/>
<path d="M123.628 183.505C123.878 183.424 124.146 183.421 124.398 183.497C124.649 183.572 124.872 183.722 125.037 183.927C125.201 184.132 125.3 184.382 125.319 184.644C125.338 184.906 125.278 185.167 125.145 185.394C124.897 185.792 124.741 186.241 124.689 186.708C124.637 187.174 124.689 187.646 124.843 188.09L126.537 192.807C126.649 193.118 126.637 193.46 126.505 193.764C126.373 194.067 126.13 194.308 125.826 194.438C125.349 194.638 124.893 194.885 124.465 195.175L121.694 187.472C121.424 186.686 121.476 185.825 121.838 185.078C122.2 184.33 122.844 183.755 123.628 183.479V183.505Z" fill="#9CBCFF"/>
<path d="M134.466 196.334C135.288 197.206 135.877 198.272 136.176 199.432C136.476 200.593 136.477 201.811 136.179 202.972C134.479 208.64 128.829 206.826 129.1 215.001C129.11 215.317 129.021 215.629 128.847 215.894C128.673 216.159 128.422 216.363 128.127 216.48C127.833 216.597 127.51 216.621 127.202 216.548C126.893 216.475 126.615 216.308 126.405 216.072C122.825 212.047 120.921 206.806 121.083 201.422C121.265 194.488 129.818 191.201 134.466 196.334Z" fill="#FF8C95"/>
<path d="M130.908 194.104C131.064 194.15 131.202 194.241 131.307 194.365C131.411 194.49 131.477 194.642 131.495 194.803C131.513 194.965 131.483 195.128 131.409 195.272C131.335 195.417 131.219 195.536 131.078 195.616C129.917 196.27 128.948 197.216 128.267 198.361C127.585 199.505 127.214 200.808 127.192 202.14C127.098 205.469 127.786 208.774 129.201 211.789C129.447 212.312 129.018 212.526 129.1 214.995C129.11 215.311 129.021 215.623 128.847 215.888C128.673 216.152 128.422 216.357 128.127 216.474C127.833 216.591 127.51 216.615 127.202 216.541C126.893 216.468 126.615 216.302 126.405 216.065C122.825 212.041 120.921 206.8 121.083 201.416C121.116 200.238 121.416 199.083 121.961 198.038C122.505 196.993 123.279 196.084 124.224 195.381C125.17 194.678 126.262 194.199 127.42 193.978C128.578 193.758 129.77 193.803 130.908 194.11V194.104Z" fill="#FF8C95"/>
<path d="M83.3071 258.067L72.7579 287.762L60.9114 321.097L34.5605 288.133L82.5136 258.615L83.3071 258.067Z" fill="#D1D3D4"/>
<path d="M97.4404 234.09C97.4404 234.09 131.481 195.893 134.807 197.612C138.132 199.331 133.578 205.107 137.049 207.475C140.519 209.843 144.329 208.734 143.876 212.69C143.422 216.645 143.126 218.244 144.461 218.521C149.311 219.517 150.879 221.236 151.307 223.302C151.792 225.6 150.533 228.101 153.65 232.56C155.54 235.255 129.157 262.626 129.157 262.626L110.817 253.727L97.4404 234.09Z" fill="#FFABB1"/>
<path d="M86.9352 273.283L107.133 290.23L122.878 270.278L128.937 262.607L113.003 229.467L93.5356 215.725C88.7302 217.999 93.9827 227.219 94.8959 241.497C95.2927 247.681 83.3643 258.973 83.3643 258.973L86.9352 273.283Z" fill="#FFABB1"/>
<path d="M86.9607 273.283L107.158 290.231L122.916 270.278L83.4023 258.974L86.9607 273.283Z" fill="#E07C88"/>
<path d="M114.754 295.899L110.849 299.728C81.0655 328.969 59.3689 350.559 42.1249 361.599C36.3414 365.314 29.3431 366.641 22.6011 365.303L21.6375 365.114C16.7491 364.145 12.2321 361.819 8.60339 358.403C4.97469 354.987 2.38083 350.619 1.11856 345.798C-0.143707 340.977 -0.0233919 335.898 1.46574 331.142C2.95487 326.386 5.75267 322.146 9.53905 318.905L81.3363 257.418C98.2338 270.033 108.311 282.9 114.754 295.899Z" fill="white"/>
<path d="M110.868 299.728C81.0844 328.97 59.3877 350.559 42.1438 361.599C36.3603 365.314 29.3619 366.641 22.62 365.303L21.6564 365.114C17.2551 364.241 13.1468 362.267 9.71522 359.376C6.28367 356.486 3.64088 352.772 2.03374 348.583C0.426596 344.393 -0.0924512 339.865 0.525084 335.421C1.14262 330.977 2.87659 326.761 5.565 323.169C6.10663 322.69 6.66714 322.231 7.25286 321.802L83.2194 265.505C96.5712 277.049 105.199 288.436 110.868 299.728Z" fill="#F1F2F2"/>
<path d="M136.273 206.725L125.309 218.018" stroke="#E07C88" stroke-width="2" stroke-linecap="round" stroke-linejoin="round"/>
<path d="M143.731 218.018L133.478 227.219" stroke="#E07C88" stroke-width="2" stroke-linecap="round" stroke-linejoin="round"/>
<path d="M150.766 227.899L140.513 237.101" stroke="#E07C88" stroke-width="2" stroke-linecap="round" stroke-linejoin="round"/>
<path d="M68.2305 268.666C68.2305 268.666 92.6856 286.156 101.402 309.011" stroke="#364D51" stroke-width="2" stroke-linecap="round" stroke-linejoin="round"/>
<path d="M96.674 186.426C95.385 187.23 94.0436 187.682 92.6499 187.781C91.2608 187.861 89.9571 187.594 88.7387 186.982C87.5249 186.35 86.5274 185.408 85.7462 184.155C84.965 182.902 84.5615 181.598 84.5359 180.242C84.5147 178.866 84.8494 177.578 85.54 176.378C86.235 175.158 87.2331 174.143 88.5342 173.332C89.6305 172.648 90.7386 172.225 91.8584 172.062C92.9903 171.892 94.0828 171.98 95.1359 172.327L94.3382 175.234C92.8669 174.779 91.4987 174.946 90.2338 175.735C89.4507 176.224 88.8609 176.834 88.4643 177.566C88.0602 178.287 87.875 179.063 87.9088 179.895C87.9545 180.72 88.2216 181.524 88.7098 182.307C89.1981 183.09 89.8025 183.684 90.5229 184.088C91.2554 184.484 92.0377 184.666 92.87 184.632C93.6947 184.586 94.4986 184.319 95.2817 183.831C96.5467 183.042 97.2951 181.881 97.527 180.348L100.488 180.911C100.344 182.021 99.9463 183.047 99.2952 183.989C98.6441 184.93 97.7703 185.743 96.674 186.426ZM101.31 169.555C102.814 168.617 104.193 168.258 105.449 168.477C106.697 168.684 107.771 169.51 108.671 170.953L112.125 176.491L109.491 178.134L108.737 176.925C108.77 178.157 108.065 179.223 106.622 180.123C105.876 180.588 105.148 180.866 104.437 180.959C103.739 181.044 103.106 180.954 102.54 180.689C101.974 180.424 101.515 180.008 101.162 179.443C100.6 178.541 100.494 177.622 100.845 176.684C101.208 175.74 102.099 174.825 103.519 173.94L105.756 172.545C105.373 171.932 104.894 171.579 104.319 171.487C103.736 171.383 103.072 171.563 102.326 172.028C101.809 172.35 101.35 172.753 100.95 173.237C100.555 173.7 100.269 174.179 100.092 174.673L97.8561 173.337C98.1528 172.634 98.6042 171.952 99.2104 171.29C99.8286 170.621 100.529 170.042 101.31 169.555ZM106.144 177.79C106.626 177.49 106.985 177.115 107.223 176.666C107.453 176.205 107.512 175.71 107.398 175.179L106.779 174.187L104.849 175.391C103.694 176.111 103.353 176.849 103.826 177.607C104.051 177.968 104.369 178.17 104.781 178.214C105.197 178.239 105.651 178.097 106.144 177.79ZM112.106 164.802C112.151 164.123 112.381 163.487 112.796 162.894C113.223 162.294 113.81 161.761 114.555 161.296L116.175 163.894C115.847 164.065 115.629 164.184 115.521 164.251C114.715 164.754 114.226 165.376 114.054 166.118C113.875 166.848 114.066 167.664 114.629 168.566L117.486 173.148L114.672 174.903L108.62 165.197L111.308 163.521L112.106 164.802ZM123.822 150.607L132.168 163.993L129.48 165.669L128.783 164.551C128.61 165.828 127.863 166.879 126.54 167.703C125.626 168.273 124.668 168.586 123.668 168.642C122.679 168.691 121.738 168.468 120.845 167.972C119.951 167.477 119.193 166.73 118.571 165.732C117.948 164.734 117.612 163.725 117.56 162.705C117.509 161.684 117.722 160.741 118.201 159.875C118.691 159.001 119.394 158.279 120.308 157.709C121.547 156.937 122.759 156.724 123.944 157.071L121.008 152.362L123.822 150.607ZM125.587 165.091C126.297 164.648 126.736 164.04 126.905 163.267C127.067 162.481 126.892 161.679 126.382 160.861C125.872 160.044 125.233 159.54 124.464 159.352C123.687 159.151 122.944 159.272 122.235 159.715C121.513 160.164 121.072 160.782 120.91 161.568C120.741 162.341 120.911 163.137 121.421 163.955C121.931 164.773 122.574 165.282 123.351 165.483C124.12 165.671 124.865 165.54 125.587 165.091ZM128.721 152.663L131.536 150.909L137.587 160.614L134.773 162.369L128.721 152.663ZM129.285 150.433C128.768 150.755 128.253 150.868 127.741 150.769C127.229 150.671 126.834 150.4 126.556 149.955C126.279 149.51 126.209 149.036 126.346 148.532C126.483 148.029 126.81 147.616 127.328 147.294C127.845 146.972 128.356 146.853 128.86 146.94C129.365 147.026 129.752 147.285 130.022 147.718C130.315 148.187 130.396 148.679 130.266 149.195C130.129 149.698 129.802 150.111 129.285 150.433ZM144.908 156.25C143.885 156.888 142.834 157.251 141.754 157.34C140.678 157.41 139.675 157.208 138.746 156.735C137.817 156.262 137.052 155.545 136.452 154.583C135.852 153.621 135.544 152.618 135.529 151.576C135.513 150.533 135.777 149.55 136.321 148.627C136.869 147.684 137.654 146.893 138.676 146.256C139.698 145.619 140.747 145.265 141.823 145.196C142.891 145.114 143.89 145.31 144.82 145.783C145.749 146.255 146.514 146.973 147.114 147.935C147.714 148.897 148.021 149.899 148.037 150.942C148.052 151.985 147.792 152.974 147.256 153.909C146.713 154.833 145.93 155.613 144.908 156.25ZM143.468 153.941C144.189 153.491 144.629 152.883 144.786 152.117C144.947 151.332 144.773 150.53 144.263 149.712C143.753 148.894 143.114 148.391 142.345 148.203C141.58 147.994 140.837 148.115 140.116 148.565C139.394 149.015 138.953 149.633 138.791 150.418C138.622 151.192 138.792 151.988 139.302 152.806C139.812 153.623 140.455 154.133 141.232 154.333C142.001 154.522 142.746 154.391 143.468 153.941ZM95.6942 198.786L98.5085 197.031L106.855 210.417L104.041 212.172L95.6942 198.786ZM114.175 206.053C113.153 206.691 112.102 207.054 111.021 207.143C109.946 207.212 108.943 207.011 108.013 206.538C107.084 206.065 106.319 205.348 105.719 204.386C105.119 203.424 104.812 202.421 104.796 201.378C104.781 200.336 105.045 199.353 105.588 198.429C106.136 197.486 106.921 196.696 107.943 196.059C108.966 195.421 110.015 195.068 111.091 194.999C112.159 194.917 113.158 195.113 114.087 195.585C115.017 196.058 115.781 196.776 116.381 197.738C116.981 198.7 117.289 199.702 117.304 200.745C117.32 201.788 117.059 202.777 116.524 203.712C115.98 204.635 115.198 205.416 114.175 206.053ZM112.735 203.744C113.457 203.294 113.896 202.686 114.053 201.92C114.215 201.134 114.041 200.333 113.531 199.515C113.021 198.697 112.381 198.194 111.612 198.005C110.848 197.797 110.105 197.918 109.383 198.368C108.662 198.818 108.22 199.436 108.058 200.221C107.889 200.995 108.06 201.791 108.57 202.608C109.08 203.426 109.723 203.935 110.499 204.136C111.268 204.325 112.014 204.194 112.735 203.744ZM125.249 185.469L130.288 193.551C131.398 195.331 131.76 196.943 131.374 198.386C130.988 199.829 129.905 201.106 128.125 202.216C127.187 202.801 126.225 203.241 125.241 203.538C124.257 203.834 123.353 203.939 122.53 203.85L122.388 201.133C123.007 201.214 123.689 201.156 124.435 200.959C125.188 200.773 125.877 200.486 126.502 200.096C127.476 199.488 128.053 198.82 128.233 198.09C128.432 197.364 128.254 196.557 127.699 195.667L127.44 195.252C127.209 196.515 126.438 197.555 125.127 198.373C124.237 198.928 123.299 199.245 122.314 199.325C121.332 199.386 120.404 199.196 119.529 198.757C118.653 198.317 117.927 197.634 117.35 196.708C116.772 195.782 116.479 194.829 116.469 193.85C116.46 192.87 116.702 191.959 117.195 191.117C117.694 190.255 118.388 189.547 119.278 188.992C120.685 188.114 122.044 187.91 123.355 188.378L122.579 187.134L125.249 185.469ZM124.246 195.715C124.992 195.25 125.464 194.655 125.664 193.929C125.867 193.184 125.748 192.457 125.305 191.747C124.863 191.038 124.266 190.616 123.515 190.483C122.769 190.331 122.022 190.487 121.277 190.952C120.531 191.417 120.056 192.022 119.853 192.767C119.642 193.5 119.757 194.221 120.2 194.931C120.642 195.64 121.243 196.068 122.001 196.213C122.752 196.346 123.501 196.18 124.246 195.715ZM137.502 177.829L139.541 190.863C139.793 192.259 139.731 193.392 139.355 194.261C138.99 195.123 138.345 195.843 137.419 196.421C136.914 196.736 136.366 196.969 135.775 197.12C135.185 197.271 134.647 197.306 134.162 197.224L133.941 194.58C134.278 194.638 134.618 194.634 134.962 194.57C135.318 194.498 135.635 194.376 135.911 194.204C136.296 193.964 136.549 193.673 136.67 193.33C136.798 193 136.823 192.558 136.745 192.005L136.725 191.892L126.425 184.735L129.33 182.924L136.159 187.811L134.796 179.516L137.502 177.829Z" fill="white"/>
<path d="M312.089 95.7418C311.907 100.957 311.409 104.471 311.409 104.471L299.336 105.201L276.228 84.903L254.393 75.2292C251.08 82.0878 248.586 91.2577 246.445 101.423C242.648 101.066 238.942 100.052 235.493 98.4248C235.493 98.4248 235.493 98.091 235.43 97.4927C235.165 92.3409 234.674 67.7724 248.536 56.3478C261.825 45.4019 285.064 46.0695 299.235 55.6424C311.302 63.7858 312.499 84.0338 312.089 95.7418Z" fill="#2E2E2E"/>
<path d="M312.089 95.7418C311.906 100.957 311.409 104.471 311.409 104.471L299.336 105.201L276.228 84.9029L254.393 75.2292C251.08 82.0877 248.586 91.2576 246.445 101.423C242.648 101.066 238.942 100.051 235.493 98.4247C235.493 98.4247 235.493 98.0909 235.43 97.4926C235.877 87.8441 238.276 72.1747 248.536 63.7101C261.825 52.7642 285.064 53.4255 299.235 62.9985C309.034 69.5988 311.667 84.2227 312.089 95.7418Z" fill="#1A1A1A"/>
<path d="M198.467 331.293L176.928 434.719L261.038 475.568L345.154 444.135L339.026 331.293L289.051 296.484L198.467 331.293Z" fill="#2B8CC8"/>
<g style="mix-blend-mode:multiply" opacity="0.4">
<path d="M345.078 236.024L339.025 343.587C292.497 351.384 244.995 351.384 198.466 343.587L192.414 236.024C191.818 225.441 195.084 215.002 201.606 206.646C208.128 198.291 217.461 192.587 227.872 190.596L243.126 187.674L268.746 197.222L294.372 187.674L309.62 190.596C320.032 192.585 329.367 198.288 335.889 206.644C342.411 215 345.677 225.44 345.078 236.024Z" fill="#2B8CC8"/>
</g>
<path d="M345.078 223.755L339.025 331.319C285.524 344.545 245.267 341.452 198.466 331.319L192.414 223.755C191.818 213.173 195.084 202.733 201.606 194.378C208.128 186.022 217.461 180.319 227.872 178.328L243.126 175.38L268.746 184.922L294.372 175.38L309.62 178.302C320.036 180.292 329.375 185.998 335.898 194.36C342.421 202.721 345.683 213.168 345.078 223.755Z" fill="#2B8CC8"/>
<path d="M327.273 161.852C327.129 162.482 326.965 163.049 326.776 163.628C324.75 169.964 320.318 175.251 314.434 178.352C308.549 181.453 301.682 182.12 295.311 180.209C288.94 178.299 283.573 173.964 280.366 168.137C277.158 162.31 276.366 155.456 278.161 149.051C279.955 142.646 284.192 137.202 289.96 133.889C295.728 130.576 302.566 129.66 309.002 131.337C315.439 133.015 320.959 137.152 324.377 142.859C327.794 148.566 328.834 155.386 327.273 161.852Z" fill="#1A1A1A"/>
<path d="M326.776 163.628C325.243 168.378 322.342 172.569 318.436 175.676C314.53 178.783 309.794 180.667 304.821 181.093C299.848 181.518 294.861 180.465 290.484 178.066C286.108 175.667 282.537 172.029 280.221 167.608C281.753 162.859 284.654 158.667 288.56 155.56C292.466 152.453 297.202 150.569 302.175 150.144C307.148 149.719 312.135 150.772 316.512 153.17C320.888 155.569 324.459 159.207 326.776 163.628Z" fill="#1A1A1A"/>
<path d="M306.106 139.847C305.582 141.739 304.678 143.505 303.45 145.038C302.222 146.57 300.696 147.837 298.963 148.761C297.23 149.685 295.328 150.247 293.371 150.413C291.415 150.579 289.445 150.346 287.581 149.727C285.717 149.108 283.999 148.116 282.53 146.813C281.062 145.509 279.874 143.921 279.038 142.144C278.202 140.366 277.737 138.438 277.67 136.476C277.602 134.513 277.935 132.557 278.647 130.727C278.773 130.349 278.911 129.978 279.069 129.619C280.594 126.274 283.334 123.635 286.733 122.236C290.132 120.836 293.935 120.781 297.373 122.081C300.811 123.382 303.626 125.941 305.248 129.24C306.869 132.538 307.176 136.33 306.106 139.847Z" fill="#83BC3B"/>
<g style="mix-blend-mode:multiply" opacity="0.7">
<path d="M301.186 145.95C301.06 146.327 300.922 146.693 300.771 147.045C298.285 148.809 295.307 149.744 292.259 149.717C289.211 149.69 286.25 148.702 283.796 146.894C281.342 145.087 279.521 142.551 278.592 139.648C277.663 136.746 277.673 133.624 278.621 130.727C278.747 130.349 278.885 129.978 279.043 129.619C281.53 127.854 284.51 126.919 287.559 126.947C290.609 126.976 293.571 127.965 296.025 129.776C298.479 131.586 300.299 134.125 301.226 137.03C302.152 139.935 302.139 143.059 301.186 145.956V145.95Z" fill="#83BC3B"/>
</g>
<path d="M292.78 174.051C292.48 174.052 292.185 173.983 291.917 173.85C290.026 172.859 288.015 172.118 285.934 171.645C285.432 171.562 284.985 171.283 284.69 170.869C284.395 170.456 284.276 169.942 284.359 169.441C284.443 168.94 284.722 168.493 285.135 168.197C285.549 167.902 286.062 167.783 286.563 167.867C289.021 168.391 291.394 169.252 293.617 170.424C294.025 170.599 294.358 170.913 294.557 171.31C294.757 171.707 294.81 172.161 294.708 172.594C294.606 173.026 294.354 173.408 293.998 173.674C293.642 173.939 293.204 174.07 292.761 174.045L292.78 174.051Z" fill="#364D51"/>
<path d="M168.86 398.052L167.626 405.427L163.425 446.327L133.459 413.048L135.77 399.532L139.524 377.59L152.126 380.431L168.86 398.052Z" fill="#FFABB1"/>
<path d="M168.859 398.052L167.599 405.427C154.814 405.257 144.498 403.034 135.744 399.532L139.523 377.59L152.119 380.431L168.859 398.052Z" fill="#E07C88"/>
<path d="M245.267 171.79L243.409 177.78L240.89 185.81L205.816 208.325L189.555 294.198C189.404 294.986 189.234 295.741 189.051 296.478L168.897 398.021C154.991 398.178 143.913 395.993 134.592 392.353C132.533 391.547 130.568 390.677 128.672 389.739L149.065 286.452C149.065 286.452 158.839 223.434 181.405 189.469C190.594 175.569 245.267 171.79 245.267 171.79Z" fill="white"/>
<path d="M243.409 177.78L240.89 185.81L205.816 208.325L189.554 294.198C189.403 294.986 189.233 295.741 189.051 296.478L168.897 398.021C154.991 398.178 143.913 395.993 134.592 392.353L154.424 291.774C154.424 291.774 164.23 228.737 186.764 194.784C193.894 184.021 228.224 179.329 243.409 177.78Z" fill="#F1F2F2"/>
<path d="M292.723 177.024L300.281 195.471L265.049 222.495L229.831 189.922L241.596 173.648C249.153 171.639 251.754 161.77 252.611 153.973C252.972 150.667 253.083 147.339 252.945 144.016L269.458 140.754L285.398 146.176C284.766 149.787 284.433 153.444 284.403 157.11C284.347 164.762 285.801 174.158 292.723 177.024Z" fill="#FFABB1"/>
<path d="M242.659 100.157C242.659 100.157 238.717 93.2982 233.256 96.5354C226.215 100.724 230.523 125.179 241.67 120.354L249.77 113.131L242.659 100.157Z" fill="#FFABB1"/>
<path d="M301.388 104.093C301.388 104.093 306.225 97.795 311.188 101.744C317.612 106.826 310.111 130.494 299.694 124.24L292.628 115.977L301.388 104.093Z" fill="#FFABB1"/>
<path d="M285.398 146.157C284.765 149.768 284.432 153.425 284.403 157.091C283.496 157.67 282.551 158.218 281.581 158.716C277.651 160.731 273.306 161.997 268.752 161.701C264.199 161.405 260.048 159.56 256.427 157.04C255.08 156.108 253.804 155.076 252.61 153.954C252.971 150.648 253.083 147.32 252.944 143.997L269.458 140.735L285.398 146.157Z" fill="#E07C88"/>
<path d="M299.411 116.796L309.255 108.325" stroke="#E07C88" stroke-width="2" stroke-linecap="round" stroke-linejoin="round"/>
<path d="M244.045 114.346L235.549 104.528" stroke="#E07C88" stroke-width="2" stroke-linecap="round" stroke-linejoin="round"/>
<path d="M301.98 96.7936L300.488 119.208C300.124 125.295 298.193 131.185 294.883 136.306C291.573 141.428 286.995 145.606 281.594 148.437C277.67 150.453 273.318 151.718 268.765 151.416C264.211 151.114 260.061 149.281 256.439 146.762C251.454 143.242 247.464 138.492 244.856 132.975C242.248 127.457 241.112 121.359 241.557 115.272L243.05 92.8573C243.306 88.9868 244.322 85.2047 246.04 81.7271C247.758 78.2494 250.145 75.1442 253.063 72.589C255.982 70.0338 259.375 68.0786 263.049 66.835C266.723 65.5914 270.606 65.0839 274.477 65.3413C278.348 65.5998 282.131 66.6185 285.608 68.3392C289.086 70.0599 292.19 72.4488 294.744 75.3696C297.299 78.2904 299.252 81.6858 300.494 85.3618C301.735 89.0377 302.24 92.9223 301.98 96.7936Z" fill="#FFABB1"/>
<path d="M254.387 75.2292C254.418 83.5126 255.327 91.7694 257.101 99.8607C271.204 101.809 285.427 102.754 299.663 102.689C301.685 97.6501 303.391 91.012 305.004 83.8827L302.277 71.9731L273.306 56.3226L256.56 60.6367L254.387 75.2292Z" fill="#1A1A1A"/>
<path d="M256.055 112.066C257.732 112.066 259.091 110.707 259.091 109.031C259.091 107.354 257.732 105.995 256.055 105.995C254.379 105.995 253.02 107.354 253.02 109.031C253.02 110.707 254.379 112.066 256.055 112.066Z" fill="black"/>
<path d="M287.451 115.102C289.127 115.102 290.486 113.743 290.486 112.066C290.486 110.39 289.127 109.031 287.451 109.031C285.774 109.031 284.415 110.39 284.415 112.066C284.415 113.743 285.774 115.102 287.451 115.102Z" fill="black"/>
<path d="M287.842 110.53C288.879 110.426 289.882 110.106 290.788 109.591C291.694 109.076 292.482 108.376 293.101 107.538" stroke="black" stroke-width="2" stroke-linecap="round" stroke-linejoin="round"/>
<path d="M293.775 103.111C290.871 100.938 287.363 99.1491 283.654 99.9048C283.378 99.9375 283.1 99.8782 282.861 99.7363C282.623 99.5944 282.438 99.3778 282.336 99.1201C282.233 98.8624 282.218 98.578 282.294 98.311C282.369 98.0441 282.531 97.8096 282.753 97.6439C286.022 95.7545 290.235 96.8188 293.063 99.0168C294.018 99.7064 294.866 100.532 295.582 101.467C295.775 101.725 295.857 102.049 295.811 102.368C295.765 102.687 295.595 102.974 295.337 103.167C295.11 103.329 294.837 103.411 294.559 103.401C294.281 103.39 294.014 103.288 293.8 103.111H293.775Z" fill="black"/>
<path d="M251.382 96.189C254.349 94.2303 258.121 93.3234 261.591 94.4381C262.771 94.8389 263.847 95.4972 264.74 96.3653C264.973 96.5863 265.109 96.8905 265.119 97.2115C265.128 97.5324 265.01 97.8441 264.791 98.0784C264.587 98.2857 264.317 98.4159 264.028 98.4469C263.738 98.4779 263.447 98.4077 263.204 98.2484C262.437 97.8075 261.616 97.4707 260.76 97.247C258.065 96.6172 255.149 97.3415 252.573 98.2925C252.298 98.4096 251.989 98.4219 251.706 98.3269C251.422 98.232 251.184 98.0365 251.035 97.7773C250.886 97.5182 250.837 97.2134 250.897 96.9207C250.958 96.628 251.124 96.3677 251.363 96.189H251.382Z" fill="black"/>
<path d="M272.727 106.247L270.976 113.395L269.578 114.8C268.826 115.551 268.364 116.545 268.275 117.605C268.187 118.664 268.476 119.721 269.093 120.587L270.17 122.093" stroke="#E07C88" stroke-width="2" stroke-linecap="round" stroke-linejoin="round"/>
<path d="M260.162 128.132C260.162 128.132 268.179 139.551 281.185 129.335" stroke="#E07C88" stroke-width="2" stroke-linecap="round" stroke-linejoin="round"/>
<path d="M131.204 376.797C131.204 376.797 155.193 388.391 171.398 385.299" stroke="#364D51" stroke-width="2" stroke-linecap="round" stroke-linejoin="round"/>
<path d="M254.386 75.2292C251.08 82.0877 248.592 91.2576 246.445 101.423H246.331C244.833 101.264 243.388 100.777 242.099 99.996C240.81 99.2155 239.709 98.1607 238.874 96.9066C238.039 95.6525 237.491 94.2299 237.267 92.7398C237.044 91.2497 237.152 89.7287 237.583 88.285C239.8 80.6833 244.259 70.386 253.02 63.1622L276.228 84.9029L254.386 75.2292Z" fill="#1A1A1A"/>
<g style="mix-blend-mode:multiply" opacity="0.4">
<path d="M309.147 380.279L193.188 468.659L199.159 501.409C199.159 501.409 313.002 503.979 320.71 503.979C328.419 503.979 346.816 462.897 346.816 462.897L309.147 380.279Z" fill="#2B8CC8"/>
</g>
<path d="M349.657 447.618L312.121 463.81L303.549 357.966L301.03 326.935L288.642 173.957L331.726 197.253L340.865 324.863L343.037 355.131L349.657 447.618Z" fill="#F1F2F2"/>
<path d="M370.9 337.321C360.823 353.695 334.844 349.18 333.572 321.84L323.646 211.82L292.08 184.563L290.821 180.639L288.654 173.95C288.654 173.95 340.298 183.24 347.982 192.807C367.31 216.884 374.754 319.938 374.754 319.938C375.101 327.175 373.558 332.981 370.9 337.321Z" fill="white"/>
<path d="M370.899 337.321C360.823 353.696 334.843 349.18 333.571 321.84L323.646 211.82L292.08 184.563L290.82 180.639C303.75 183.196 339.157 190.798 345.411 198.582C364.746 222.666 372.209 325.714 372.209 325.714C372.437 329.629 371.994 333.555 370.899 337.321Z" fill="#F1F2F2"/>
<path d="M317.574 227.206C317.073 227.206 316.592 227.007 316.238 226.653C315.883 226.299 315.684 225.818 315.684 225.317C315.684 190.955 300.808 178.334 291.941 173.875C291.716 173.762 291.516 173.606 291.352 173.416C291.188 173.226 291.063 173.005 290.984 172.766C290.905 172.528 290.873 172.276 290.892 172.025C290.91 171.774 290.978 171.53 291.091 171.305C291.204 171.081 291.36 170.881 291.55 170.716C291.74 170.552 291.961 170.427 292.199 170.348C292.438 170.269 292.69 170.238 292.94 170.256C293.191 170.275 293.436 170.342 293.66 170.455C303.315 175.311 319.482 188.902 319.482 225.317C319.482 225.567 319.433 225.814 319.336 226.044C319.24 226.275 319.099 226.484 318.922 226.66C318.745 226.835 318.534 226.974 318.303 227.068C318.071 227.162 317.823 227.209 317.574 227.206Z" fill="#364D51"/>
<path d="M288.642 173.957L322.481 202.518L299.449 254.13L322.474 303.803L301.937 337.138L288.642 173.957Z" fill="#D1D3D4"/>
<path d="M341.393 363.846L310.518 360.754L309.771 368.205L340.647 371.297L341.393 363.846Z" fill="#D1D3D4"/>
<path d="M343.037 355.131L303.548 357.966L301.029 326.935L305.558 317.803L340.864 324.863L343.037 355.131Z" fill="#D1D3D4"/>
<path d="M245.268 171.797L212.978 443.537L207.99 485.544L164.067 455.1L172.066 397.618L196.804 219.699L200.722 187.34L245.268 171.797Z" fill="#F1F2F2"/>
<path d="M245.185 172.382L210.319 199.678L231.436 252.102L206.597 300.893L225.887 334.965L245.185 172.382Z" fill="#D1D3D4"/>
<path d="M214.847 360.79L183.962 363.791L184.686 371.245L215.571 368.244L214.847 360.79Z" fill="#D1D3D4"/>
<path d="M185.902 310.781L170.768 307.002" stroke="#364D51" stroke-width="2" stroke-linecap="round" stroke-linejoin="round"/>
<path d="M212.978 443.537L207.99 485.544L164.067 455.1L172.066 397.618L212.978 443.537Z" fill="#D1D3D4"/>
<path d="M246.772 381.64C255.495 385.488 264.848 386.25 275.302 381.64" stroke="#364D51" stroke-width="2" stroke-linecap="round" stroke-linejoin="round"/>
<path d="M261.037 384.814V475.568" stroke="#364D51" stroke-width="2" stroke-linecap="round" stroke-linejoin="round"/>
<path d="M200.331 243.014L199.777 257.21C199.658 260.39 200.507 263.531 202.214 266.216C203.92 268.902 206.402 271.006 209.331 272.25" stroke="white" stroke-width="2" stroke-linecap="round" stroke-linejoin="round"/>
<path d="M240.978 243.014L241.526 257.21C241.654 260.49 240.751 263.727 238.944 266.467C237.136 269.206 234.515 271.31 231.449 272.483" stroke="white" stroke-width="2" stroke-linecap="round" stroke-linejoin="round"/>
<path d="M213.739 276.564C213.435 276.563 213.133 276.512 212.845 276.413L209.425 275.229C209.041 275.09 208.65 274.945 208.266 274.782C207.935 274.642 207.635 274.438 207.383 274.182C207.131 273.927 206.932 273.624 206.797 273.291C206.661 272.958 206.593 272.602 206.596 272.243C206.598 271.884 206.672 271.529 206.811 271.198C206.951 270.867 207.155 270.567 207.41 270.315C207.666 270.063 207.969 269.863 208.302 269.728C208.635 269.593 208.991 269.525 209.35 269.528C209.709 269.53 210.064 269.603 210.395 269.743C210.666 269.856 210.937 269.964 211.22 270.058L214.633 271.242C215.241 271.457 215.753 271.88 216.079 272.435C216.406 272.99 216.527 273.643 216.42 274.278C216.313 274.914 215.986 275.491 215.496 275.909C215.005 276.327 214.383 276.559 213.739 276.564Z" fill="#364D51"/>
<path d="M227.569 276.564C226.925 276.559 226.303 276.327 225.813 275.909C225.323 275.491 224.995 274.914 224.888 274.278C224.782 273.643 224.902 272.99 225.229 272.435C225.556 271.88 226.068 271.457 226.675 271.242L230.089 270.058C230.215 270.02 230.341 269.97 230.46 269.926C231.134 269.682 231.877 269.713 232.529 270.012C233.18 270.31 233.688 270.853 233.944 271.523C234.199 272.193 234.181 272.936 233.893 273.593C233.606 274.249 233.072 274.767 232.406 275.033L231.884 275.229L228.464 276.413C228.176 276.512 227.874 276.563 227.569 276.564Z" fill="#364D51"/>
<path d="M240.908 248.626C240.62 248.626 240.335 248.569 240.068 248.458C239.802 248.348 239.56 248.186 239.357 247.982C239.153 247.778 238.992 247.535 238.882 247.269C238.772 247.002 238.716 246.716 238.717 246.428C238.717 246.327 238.679 242.315 237.3 226.041C237.3 225.884 237.3 225.733 237.256 225.588C236.166 215.228 228.13 210.592 220.648 210.592C213.166 210.592 205.123 215.228 204.04 225.582C204.04 225.739 204.008 225.89 203.996 226.041C202.604 242.448 202.579 246.39 202.579 246.428C202.576 247.006 202.344 247.559 201.935 247.967C201.525 248.375 200.971 248.605 200.393 248.607C199.814 248.607 199.258 248.377 198.848 247.967C198.438 247.557 198.208 247.001 198.208 246.422C198.208 246.27 198.208 242.404 199.644 225.638C199.644 225.456 199.644 225.273 199.694 225.09C201.055 212.104 211.516 206.196 220.654 206.196C229.793 206.196 240.247 212.11 241.614 225.09C241.614 225.267 241.652 225.456 241.664 225.638C243.081 242.366 243.1 246.233 243.1 246.384C243.107 246.676 243.055 246.966 242.948 247.238C242.841 247.51 242.681 247.757 242.476 247.966C242.272 248.175 242.028 248.341 241.759 248.454C241.49 248.568 241.201 248.626 240.908 248.626Z" fill="#364D51"/>
<path d="M220.655 210.605H220.51C219.931 210.564 219.392 210.297 219.009 209.86C218.627 209.424 218.433 208.854 218.469 208.275C219.578 191.396 224.32 179.499 232.558 172.911C238.957 167.797 245.097 167.999 245.355 168.005C245.921 168.048 246.448 168.309 246.825 168.732C247.203 169.156 247.401 169.709 247.379 170.276C247.357 170.842 247.116 171.379 246.707 171.772C246.298 172.164 245.753 172.383 245.185 172.382C244.335 172.382 225.214 172.269 222.834 208.564C222.798 209.118 222.553 209.637 222.148 210.016C221.744 210.395 221.209 210.606 220.655 210.605Z" fill="#364D51"/>
<path d="M267.411 251.895C267.411 251.895 260.817 249.822 256.755 253.104C252.693 256.385 251.118 258.955 246.552 259.811C241.986 260.668 239.436 265.158 240.103 270.864C240.771 276.57 237.993 276.929 238.566 280.941C239.14 284.953 239.48 284.291 238.485 286.716C237.49 289.141 239.423 291.755 242.2 293.209C244.978 294.664 249.26 297.202 249.26 297.202L264.886 293.424L266.026 261.682L267.411 251.895Z" fill="#FFABB1"/>
<path d="M343.548 266.273L356.856 304.546L335.272 300.225L331.727 280.979L343.548 266.273Z" fill="#D1D3D4"/>
<path d="M350.352 219.707L275.139 208.311C272.04 207.842 269.147 209.973 268.677 213.073L251.67 325.322C251.2 328.421 253.332 331.314 256.431 331.783L331.644 343.179C334.743 343.649 337.636 341.517 338.106 338.418L355.113 226.169C355.583 223.07 353.451 220.177 350.352 219.707Z" fill="white"/>
<path d="M350.651 222.621L350.022 226.696L339.107 300.547L333.817 336.256C333.624 337.548 332.927 338.71 331.878 339.488C330.83 340.266 329.516 340.596 328.224 340.407L312.29 338.045L295.021 335.488L258.241 330.04L251.59 329.058C250.95 328.964 250.335 328.744 249.78 328.412C249.224 328.08 248.74 327.642 248.355 327.122C247.969 326.603 247.69 326.012 247.533 325.385C247.376 324.757 247.344 324.105 247.44 323.465L249.046 312.601L253.335 283.693L253.889 279.914L264.268 209.83C264.461 208.539 265.158 207.377 266.206 206.599C267.255 205.821 268.569 205.49 269.861 205.68L346.488 217.016C347.131 217.109 347.749 217.327 348.306 217.659C348.864 217.992 349.35 218.431 349.737 218.952C350.124 219.473 350.404 220.066 350.561 220.695C350.718 221.325 350.749 221.98 350.651 222.621Z" fill="#83BC3B"/>
<g style="mix-blend-mode:multiply" opacity="0.7">
<path d="M299.902 309.213C316.473 309.213 329.906 295.78 329.906 279.209C329.906 262.638 316.473 249.205 299.902 249.205C283.332 249.205 269.898 262.638 269.898 279.209C269.898 295.78 283.332 309.213 299.902 309.213Z" fill="#83BC3B"/>
</g>
<path d="M292.798 283.196C299.295 283.196 304.563 277.929 304.563 271.431C304.563 264.934 299.295 259.666 292.798 259.666C286.3 259.666 281.033 264.934 281.033 271.431C281.033 277.929 286.3 283.196 292.798 283.196Z" fill="#FF6D7A"/>
<path d="M298.725 271.954C298.688 272.362 298.491 272.739 298.177 273.002C297.863 273.265 297.458 273.393 297.049 273.358L294.203 273.106L293.951 275.953C293.915 276.361 293.718 276.739 293.404 277.002C293.09 277.265 292.684 277.393 292.275 277.357C291.867 277.321 291.49 277.125 291.226 276.811C290.963 276.496 290.835 276.09 290.871 275.682L291.123 272.835L288.27 272.59C287.867 272.546 287.498 272.345 287.241 272.032C286.984 271.719 286.86 271.318 286.896 270.914C286.931 270.511 287.123 270.137 287.431 269.873C287.738 269.61 288.137 269.477 288.541 269.504L291.387 269.756L291.639 266.909C291.665 266.604 291.78 266.314 291.971 266.075C292.162 265.835 292.419 265.658 292.711 265.566C293.002 265.473 293.315 265.47 293.608 265.555C293.902 265.641 294.164 265.812 294.36 266.046C294.493 266.202 294.593 266.382 294.654 266.577C294.716 266.771 294.738 266.976 294.719 267.18L294.473 270.026L297.32 270.272C297.729 270.309 298.107 270.507 298.371 270.822C298.634 271.137 298.761 271.544 298.725 271.954Z" fill="#E84857"/>
<path d="M319.571 264.724C319.469 264.516 319.322 264.333 319.141 264.189C318.959 264.045 318.748 263.943 318.522 263.891C318.297 263.839 318.062 263.839 317.836 263.889C317.61 263.939 317.398 264.039 317.216 264.182L283.307 290.892C279.824 293.638 283.937 298.865 287.426 296.125L300.765 285.614C300.926 285.488 301.059 285.332 301.159 285.154C301.259 284.976 301.323 284.781 301.347 284.578C301.371 284.376 301.354 284.17 301.299 283.974C301.243 283.778 301.15 283.595 301.023 283.435L299.921 282.037L302.359 280.147L304.657 283.07C304.783 283.23 304.94 283.364 305.117 283.464C305.295 283.563 305.491 283.627 305.693 283.651C305.896 283.675 306.101 283.659 306.297 283.603C306.493 283.548 306.677 283.454 306.836 283.328L317.134 275.216C318.668 274.007 319.745 272.312 320.188 270.41C320.631 268.508 320.413 266.511 319.571 264.749V264.724Z" fill="#EEF7FF"/>
<path d="M315.881 265.234C316.728 266.429 317.083 267.904 316.873 269.354C316.663 270.804 315.904 272.118 314.753 273.024L303.65 281.766L302.359 280.122L299.921 282.012L298.826 280.62C298.7 280.459 298.543 280.326 298.366 280.226C298.188 280.126 297.992 280.062 297.79 280.038C297.587 280.014 297.382 280.031 297.186 280.086C296.99 280.142 296.806 280.235 296.646 280.362L315.881 265.234Z" fill="#B5D5F5"/>
<path d="M315.458 268.125L299.084 281.004L298.8 280.645C298.674 280.485 298.518 280.351 298.34 280.251C298.162 280.151 297.967 280.088 297.764 280.064C297.562 280.04 297.357 280.056 297.16 280.111C296.964 280.167 296.781 280.26 296.621 280.387L315.855 265.234C316.173 265.674 316.309 266.22 316.235 266.758C316.161 267.297 315.883 267.786 315.458 268.125Z" fill="#CBE3FA"/>
<path d="M301.023 283.435L298.825 280.645C298.699 280.485 298.543 280.351 298.365 280.251C298.188 280.151 297.992 280.088 297.789 280.064C297.587 280.04 297.382 280.056 297.186 280.111C296.99 280.167 296.806 280.26 296.646 280.387L283.307 290.892C279.824 293.638 283.937 298.865 287.426 296.125L300.765 285.614C300.926 285.488 301.059 285.332 301.159 285.154C301.259 284.976 301.323 284.781 301.347 284.578C301.371 284.376 301.354 284.171 301.299 283.974C301.243 283.778 301.15 283.595 301.023 283.435Z" fill="#8AF7FA"/>
<path d="M296.823 284.405L286.274 292.718C285.629 293.176 285.181 293.86 285.018 294.634C284.854 295.407 284.988 296.214 285.392 296.894C282.633 296.938 280.498 293.115 283.307 290.892L294.801 281.842L296.823 284.405Z" fill="#AEFCFE"/>
<path d="M301.023 283.435C301.15 283.595 301.243 283.778 301.299 283.974C301.354 284.171 301.37 284.376 301.346 284.578C301.322 284.781 301.259 284.976 301.159 285.154C301.059 285.332 300.925 285.488 300.765 285.614L298.92 287.069L294.801 281.842L296.646 280.387C296.806 280.26 296.989 280.167 297.185 280.111C297.382 280.056 297.587 280.04 297.789 280.064C297.992 280.088 298.187 280.151 298.365 280.251C298.543 280.351 298.699 280.485 298.825 280.645L301.023 283.435Z" fill="#5FF2F9"/>
<path d="M299.915 282.024C299.688 282.131 299.827 282.024 296.822 284.405L294.801 281.842L296.646 280.387C296.806 280.26 296.989 280.167 297.185 280.111C297.382 280.056 297.587 280.04 297.789 280.064C297.992 280.088 298.187 280.151 298.365 280.251C298.543 280.351 298.699 280.485 298.825 280.645L299.915 282.024Z" fill="#8AF7FA"/>
<path d="M286.021 293.568C285.899 293.554 285.784 293.503 285.691 293.424C285.597 293.345 285.528 293.24 285.494 293.122C285.459 293.004 285.459 292.879 285.495 292.761C285.53 292.643 285.6 292.539 285.694 292.46L290.77 288.461C290.9 288.362 291.063 288.317 291.225 288.336C291.387 288.354 291.536 288.435 291.639 288.562C291.74 288.692 291.786 288.856 291.767 289.02C291.748 289.183 291.666 289.333 291.538 289.437L286.462 293.436C286.337 293.534 286.18 293.582 286.021 293.568Z" fill="#5FF2F9"/>
<g style="mix-blend-mode:multiply" opacity="0.7">
<path d="M336.632 305.22L325.592 340.01L295.028 335.488L249.059 312.601L253.348 283.693L283.931 290.451L336.632 305.22Z" fill="#83BC3B"/>
</g>
<path d="M283.93 292.762L273.797 311.448L256.074 301.145L249.26 297.19L250.727 269.731C250.727 269.731 264.816 250.95 269.092 251.24C273.369 251.529 271.089 266.355 271.089 271.349C271.089 276.343 282.362 280.966 282.362 280.966L283.93 292.762Z" fill="#FFABB1"/>
<path d="M283.93 292.762L273.797 311.449L256.074 301.145L282.362 280.979L283.93 292.762Z" fill="#E07C88"/>
<path d="M353.045 346.831C336.041 346.497 309.507 334.739 269.779 317.948C270.762 306.29 274.515 293.657 283.427 279.209L365.119 307.393L367.09 326.809L353.045 346.831Z" fill="#F1F2F2"/>
<path d="M293.755 282.774C293.755 282.774 284.182 295.609 281.159 322.766" stroke="#364D51" stroke-width="2" stroke-linecap="round" stroke-linejoin="round"/>
<path d="M277.334 246.105C275.902 245.932 274.537 245.576 273.238 245.035C271.958 244.478 270.95 243.841 270.214 243.123L272.017 240.139C272.724 240.801 273.592 241.369 274.619 241.842C275.647 242.316 276.695 242.617 277.764 242.745C278.954 242.889 279.854 242.822 280.464 242.546C281.077 242.252 281.418 241.812 281.489 241.226C281.541 240.795 281.411 240.42 281.099 240.103C280.807 239.771 280.404 239.486 279.89 239.249C279.393 239.015 278.709 238.74 277.838 238.425C276.498 237.931 275.408 237.468 274.568 237.035C273.728 236.601 273.032 235.984 272.482 235.183C271.948 234.384 271.754 233.381 271.899 232.174C272.026 231.123 272.424 230.209 273.095 229.432C273.767 228.638 274.703 228.06 275.901 227.697C277.116 227.336 278.552 227.255 280.207 227.454C281.362 227.593 282.475 227.867 283.545 228.275C284.616 228.684 285.534 229.197 286.299 229.814L284.623 232.839C283.065 231.69 281.449 231.014 279.777 230.813C278.604 230.672 277.711 230.757 277.096 231.068C276.499 231.381 276.163 231.848 276.088 232.468C276.013 233.089 276.276 233.593 276.877 233.98C277.497 234.352 278.453 234.765 279.745 235.217C281.085 235.711 282.175 236.174 283.015 236.608C283.855 237.041 284.543 237.649 285.079 238.43C285.632 239.214 285.835 240.209 285.69 241.416C285.566 242.451 285.159 243.364 284.469 244.155C283.798 244.932 282.855 245.501 281.64 245.862C280.424 246.223 278.989 246.304 277.334 246.105ZM303.323 234.8L301.649 248.715L297.821 248.254L298.02 246.599C297.413 247.138 296.719 247.527 295.938 247.766C295.16 247.987 294.339 248.045 293.477 247.942C291.649 247.722 290.264 247.022 289.322 245.841C288.379 244.661 288.032 243.036 288.281 240.967L289.227 233.105L293.262 233.59L292.388 240.858C292.118 243.099 292.923 244.333 294.802 244.559C295.768 244.675 296.581 244.458 297.242 243.908C297.905 243.341 298.311 242.436 298.46 241.195L299.288 234.315L303.323 234.8ZM310.693 237.55C311.257 236.936 311.965 236.505 312.817 236.257C313.686 236.012 314.655 235.954 315.724 236.082L315.276 239.807C314.832 239.718 314.532 239.665 314.377 239.646C313.222 239.507 312.277 239.726 311.543 240.302C310.811 240.861 310.367 241.788 310.212 243.081L309.421 249.65L305.387 249.165L307.061 235.25L310.914 235.714L310.693 237.55ZM332.326 238.29L330.932 249.876C330.625 252.428 329.733 254.245 328.256 255.327C326.779 256.409 324.765 256.796 322.213 256.489C320.868 256.327 319.612 256.01 318.444 255.537C317.277 255.064 316.334 254.47 315.615 253.754L317.567 251.05C318.095 251.603 318.791 252.072 319.655 252.455C320.516 252.856 321.395 253.111 322.291 253.219C323.688 253.387 324.752 253.191 325.484 252.632C326.231 252.092 326.682 251.184 326.835 249.908L326.907 249.313C325.716 250.342 324.181 250.743 322.302 250.517C321.026 250.364 319.886 249.947 318.884 249.267C317.9 248.571 317.16 247.677 316.661 246.585C316.163 245.493 315.994 244.284 316.153 242.956C316.313 241.628 316.764 240.493 317.508 239.55C318.251 238.608 319.181 237.924 320.299 237.499C321.437 237.058 322.644 236.915 323.92 237.068C325.937 237.311 327.392 238.16 328.284 239.614L328.498 237.829L332.326 238.29ZM323.502 247.303C324.571 247.432 325.479 247.226 326.226 246.686C326.992 246.132 327.437 245.345 327.559 244.328C327.681 243.311 327.435 242.45 326.82 241.747C326.224 241.028 325.392 240.604 324.323 240.475C323.254 240.347 322.336 240.56 321.57 241.115C320.805 241.653 320.362 242.43 320.24 243.448C320.117 244.465 320.363 245.334 320.976 246.055C321.591 246.759 322.433 247.175 323.502 247.303ZM281.776 271.549C281.77 271.601 281.701 271.96 281.568 272.626L271.042 271.36C271.128 272.245 271.494 272.98 272.141 273.565C272.788 274.15 273.637 274.506 274.689 274.632C275.413 274.72 276.063 274.693 276.64 274.552C277.236 274.397 277.803 274.115 278.342 273.708L280.209 276.294C278.718 277.636 276.714 278.156 274.196 277.853C272.627 277.664 271.276 277.195 270.141 276.447C269.009 275.681 268.18 274.715 267.656 273.55C267.131 272.385 266.952 271.113 267.118 269.733C267.282 268.371 267.748 267.186 268.517 266.176C269.305 265.151 270.295 264.405 271.489 263.936C272.701 263.452 274.006 263.294 275.403 263.462C276.765 263.626 277.962 264.068 278.995 264.787C280.028 265.506 280.789 266.454 281.277 267.632C281.784 268.795 281.951 270.101 281.776 271.549ZM275.061 266.517C274.148 266.407 273.349 266.574 272.666 267.016C271.983 267.459 271.519 268.12 271.273 269L278.127 269.825C278.095 268.929 277.8 268.185 277.241 267.593C276.685 266.984 275.958 266.625 275.061 266.517ZM288.939 267.164C289.502 266.549 290.21 266.118 291.062 265.871C291.931 265.626 292.9 265.567 293.969 265.696L293.521 269.42C293.077 269.332 292.777 269.278 292.622 269.26C291.467 269.121 290.522 269.339 289.788 269.916C289.056 270.475 288.612 271.401 288.457 272.694L287.667 279.264L283.632 278.778L285.306 264.864L289.159 265.327L288.939 267.164ZM310.634 267.911L302.573 281.923C301.742 283.449 300.813 284.483 299.786 285.025C298.776 285.568 297.607 285.759 296.279 285.6C295.555 285.513 294.853 285.314 294.173 285.005C293.493 284.696 292.953 284.316 292.552 283.866L294.372 281.172C294.649 281.485 294.977 281.743 295.355 281.946C295.75 282.151 296.146 282.278 296.542 282.325C297.094 282.392 297.559 282.308 297.937 282.073C298.313 281.856 298.676 281.454 299.027 280.866L299.094 280.743L294.754 266L298.918 266.501L301.688 276.411L306.755 267.444L310.634 267.911Z" fill="white"/>
<path d="M291.532 128.271C294.336 128.271 296.608 125.998 296.608 123.195C296.608 120.391 294.336 118.119 291.532 118.119C288.729 118.119 286.456 120.391 286.456 123.195C286.456 125.998 288.729 128.271 291.532 128.271Z" fill="#E07C88"/>
<path d="M251.98 124.864C254.784 124.864 257.057 122.591 257.057 119.788C257.057 116.984 254.784 114.711 251.98 114.711C249.177 114.711 246.904 116.984 246.904 119.788C246.904 122.591 249.177 124.864 251.98 124.864Z" fill="#E07C88"/>
<path d="M256.352 107.141C255.314 107.037 254.31 106.717 253.404 106.2C252.498 105.684 251.711 104.983 251.093 104.143" stroke="black" stroke-width="2" stroke-linecap="round" stroke-linejoin="round"/>
</svg>
